<svg width="530" height="110" viewBox="0 0 530 110" fill="none" xmlns="http://www.w3.org/2000/svg">
<rect x="2.5" y="2.5" width="525" height="105" rx="47.5" fill="url(#paint0_linear_2_1764)"/>
<rect x="2.5" y="2.5" width="525" height="105" rx="47.5" stroke="url(#paint1_linear_2_1764)" stroke-width="5"/>
<path d="M146.819 48.85C146.252 47.9167 145.469 47.2 144.469 46.7C143.502 46.2 142.352 45.95 141.019 45.95C138.552 45.95 136.602 46.75 135.169 48.35C133.769 49.95 133.069 52.1 133.069 54.8C133.069 57.8333 133.819 60.15 135.319 61.75C136.852 63.3167 139.069 64.1 141.969 64.1C145.402 64.1 147.852 62.55 149.319 59.45H139.469V52.4H157.769V61.9C157.002 63.7667 155.869 65.5167 154.369 67.15C152.902 68.7833 151.035 70.1333 148.769 71.2C146.502 72.2333 143.919 72.75 141.019 72.75C137.485 72.75 134.352 72 131.619 70.5C128.919 68.9667 126.819 66.85 125.319 64.15C123.852 61.4167 123.119 58.3 123.119 54.8C123.119 51.3333 123.852 48.25 125.319 45.55C126.819 42.8167 128.919 40.7 131.619 39.2C134.319 37.6667 137.435 36.9 140.969 36.9C145.402 36.9 149.069 37.9667 151.969 40.1C154.869 42.2333 156.669 45.15 157.369 48.85H146.819ZM184.46 66.75H171.96L170.06 72.5H159.76L172.61 37.25H183.91L196.71 72.5H186.36L184.46 66.75ZM182.01 59.25L178.21 47.85L174.46 59.25H182.01ZM241.054 37.25V72.5H231.254V53.05L224.604 72.5H216.404L209.704 52.9V72.5H199.904V37.25H211.754L220.604 60.15L229.254 37.25H241.054ZM256.433 45.1V50.85H267.683V58.3H256.433V64.65H269.183V72.5H246.633V37.25H269.183V45.1H256.433ZM310.146 37.25V45.05H300.746V72.5H290.946V45.05H281.646V37.25H310.146ZM323.572 37.25V72.5H313.772V37.25H323.572ZM355.703 37.25V45.05H346.303V72.5H336.503V45.05H327.203V37.25H355.703ZM369.128 65H380.078V72.5H359.328V37.25H369.128V65ZM393.689 45.1V50.85H404.939V58.3H393.689V64.65H406.439V72.5H383.889V37.25H406.439V45.1H393.689Z" fill="white"/>
<ellipse cx="12.8054" cy="4.26844" rx="12.8054" ry="4.26844" transform="matrix(0.839985 -0.542609 0.338382 0.941009 19.8875 30.3253)" fill="white"/>
<ellipse cx="12.8054" cy="4.26844" rx="12.8054" ry="4.26844" transform="matrix(0.839985 -0.542609 0.338382 0.941009 485.253 84.8966)" fill="#BD8EDF"/>
<ellipse cx="7.57991" cy="2.96618" rx="7.57991" ry="2.96618" transform="matrix(0.988925 -0.148418 -0.0753329 0.997158 469.79 90.25)" fill="#BD8EDF"/>
<ellipse cx="4.74796" cy="2.42002" rx="4.74796" ry="2.42002" transform="matrix(0.975014 -0.222144 0.125027 0.992153 45.6582 16.1095)" fill="white"/>
<path d="M17.8618 41.8477C18.9397 41.9859 19.9355 41.2927 20.0859 40.2992C20.2364 39.3058 19.4845 38.3885 18.4066 38.2503C17.3287 38.112 16.3329 38.8053 16.1824 39.7987C16.032 40.7921 16.7839 41.7095 17.8618 41.8477Z" fill="white"/>
<defs>
<linearGradient id="paint0_linear_2_1764" x1="265.497" y1="2.08438e-06" x2="265.497" y2="110" gradientUnits="userSpaceOnUse">
<stop stop-color="#A034ED"/>
<stop offset="1" stop-color="#580296"/>
</linearGradient>
<linearGradient id="paint1_linear_2_1764" x1="78.3372" y1="-55.6471" x2="583.621" y2="176.516" gradientUnits="userSpaceOnUse">
<stop stop-color="#FFE374"/>
<stop offset="1" stop-color="#E9AD00"/>
</linearGradient>
</defs>
</svg>
