<svg width="232" height="42" viewBox="0 0 232 42" fill="none" xmlns="http://www.w3.org/2000/svg">
<path d="M18.4588 13.026C18.0281 12.3167 17.4328 11.772 16.6728 11.392C15.9381 11.012 15.0641 10.822 14.0508 10.822C12.1761 10.822 10.6941 11.43 9.60479 12.646C8.54079 13.862 8.00879 15.496 8.00879 17.548C8.00879 19.8533 8.57879 21.614 9.71879 22.83C10.8841 24.0207 12.5688 24.616 14.7728 24.616C17.3821 24.616 19.2441 23.438 20.3588 21.082H12.8728V15.724H26.7808V22.944C26.1981 24.3627 25.3368 25.6927 24.1968 26.934C23.0821 28.1753 21.6635 29.2013 19.9408 30.012C18.2181 30.7973 16.2548 31.19 14.0508 31.19C11.3655 31.19 8.98412 30.62 6.90679 29.48C4.85479 28.3147 3.25879 26.706 2.11879 24.654C1.00412 22.5767 0.446789 20.208 0.446789 17.548C0.446789 14.9133 1.00412 12.57 2.11879 10.518C3.25879 8.44066 4.85479 6.832 6.90679 5.692C8.95879 4.52667 11.3275 3.944 14.0128 3.944C17.3821 3.944 20.1688 4.75467 22.3728 6.376C24.5768 7.99733 25.9448 10.214 26.4768 13.026H18.4588ZM28.9026 20.322C28.9026 18.118 29.2952 16.1927 30.0806 14.546C30.8912 12.8993 31.9806 11.6327 33.3486 10.746C34.7419 9.85933 36.2872 9.416 37.9846 9.416C39.4539 9.416 40.7206 9.70733 41.7846 10.29C42.8486 10.8727 43.6719 11.658 44.2546 12.646V9.682H51.7026V31H44.2546V28.036C43.6719 29.024 42.8359 29.8093 41.7466 30.392C40.6826 30.9747 39.4286 31.266 37.9846 31.266C36.2872 31.266 34.7419 30.8227 33.3486 29.936C31.9806 29.0493 30.8912 27.7827 30.0806 26.136C29.2952 24.464 28.9026 22.526 28.9026 20.322ZM44.2546 20.322C44.2546 18.954 43.8746 17.8773 43.1146 17.092C42.3799 16.3067 41.4679 15.914 40.3786 15.914C39.2639 15.914 38.3392 16.3067 37.6046 17.092C36.8699 17.852 36.5026 18.9287 36.5026 20.322C36.5026 21.69 36.8699 22.7793 37.6046 23.59C38.3392 24.3753 39.2639 24.768 40.3786 24.768C41.4679 24.768 42.3799 24.3753 43.1146 23.59C43.8746 22.8047 44.2546 21.7153 44.2546 20.322ZM83.8007 9.492C86.486 9.492 88.5887 10.3027 90.1087 11.924C91.654 13.5453 92.4267 15.762 92.4267 18.574V31H84.9787V19.562C84.9787 18.422 84.662 17.5353 84.0287 16.902C83.3953 16.2687 82.534 15.952 81.4447 15.952C80.3553 15.952 79.494 16.2687 78.8607 16.902C78.2273 17.5353 77.9107 18.422 77.9107 19.562V31H70.4627V19.562C70.4627 18.422 70.146 17.5353 69.5127 16.902C68.9047 16.2687 68.056 15.952 66.9667 15.952C65.852 15.952 64.978 16.2687 64.3447 16.902C63.7113 17.5353 63.3947 18.422 63.3947 19.562V31H55.9467V9.682H63.3947V12.494C64.0533 11.582 64.902 10.86 65.9407 10.328C67.0047 9.77067 68.2207 9.492 69.5887 9.492C71.1593 9.492 72.5527 9.834 73.7687 10.518C75.01 11.202 75.9853 12.1647 76.6947 13.406C77.4547 12.2407 78.4553 11.3033 79.6967 10.594C80.938 9.85933 82.306 9.492 83.8007 9.492ZM116.875 20.094C116.875 20.6767 116.837 21.2593 116.761 21.842H102.663C102.739 23.0073 103.056 23.8813 103.613 24.464C104.196 25.0213 104.931 25.3 105.817 25.3C107.059 25.3 107.945 24.7427 108.477 23.628H116.419C116.09 25.0973 115.444 26.4147 114.481 27.58C113.544 28.72 112.353 29.6193 110.909 30.278C109.465 30.9367 107.869 31.266 106.121 31.266C104.019 31.266 102.144 30.8227 100.497 29.936C98.8759 29.0493 97.5966 27.7827 96.6592 26.136C95.7472 24.4893 95.2912 22.5513 95.2912 20.322C95.2912 18.0927 95.7472 16.1673 96.6592 14.546C97.5712 12.8993 98.8379 11.6327 100.459 10.746C102.106 9.85933 103.993 9.416 106.121 9.416C108.224 9.416 110.086 9.84667 111.707 10.708C113.329 11.5693 114.595 12.8107 115.507 14.432C116.419 16.028 116.875 17.9153 116.875 20.094ZM109.275 18.232C109.275 17.32 108.971 16.6107 108.363 16.104C107.755 15.572 106.995 15.306 106.083 15.306C105.171 15.306 104.424 15.5593 103.841 16.066C103.259 16.5473 102.879 17.2693 102.701 18.232H109.275ZM147.375 4.21V10.138H140.231V31H132.783V10.138H125.715V4.21H147.375ZM160.048 31.266C157.92 31.266 156.008 30.8227 154.31 29.936C152.638 29.0493 151.321 27.7827 150.358 26.136C149.396 24.4893 148.914 22.5513 148.914 20.322C148.914 18.118 149.396 16.1927 150.358 14.546C151.346 12.8993 152.676 11.6327 154.348 10.746C156.046 9.85933 157.958 9.416 160.086 9.416C162.214 9.416 164.114 9.85933 165.786 10.746C167.484 11.6327 168.814 12.8993 169.776 14.546C170.764 16.1927 171.258 18.118 171.258 20.322C171.258 22.526 170.764 24.464 169.776 26.136C168.814 27.7827 167.484 29.0493 165.786 29.936C164.089 30.8227 162.176 31.266 160.048 31.266ZM160.048 24.806C161.087 24.806 161.948 24.426 162.632 23.666C163.342 22.8807 163.696 21.766 163.696 20.322C163.696 18.878 163.342 17.776 162.632 17.016C161.948 16.256 161.1 15.876 160.086 15.876C159.073 15.876 158.224 16.256 157.54 17.016C156.856 17.776 156.514 18.878 156.514 20.322C156.514 21.7913 156.844 22.906 157.502 23.666C158.161 24.426 159.01 24.806 160.048 24.806ZM181.736 12.646C182.319 11.658 183.142 10.8727 184.206 10.29C185.27 9.70733 186.524 9.416 187.968 9.416C189.666 9.416 191.198 9.85933 192.566 10.746C193.96 11.6327 195.049 12.8993 195.834 14.546C196.645 16.1927 197.05 18.118 197.05 20.322C197.05 22.526 196.645 24.464 195.834 26.136C195.049 27.7827 193.96 29.0493 192.566 29.936C191.198 30.8227 189.666 31.266 187.968 31.266C186.524 31.266 185.27 30.9747 184.206 30.392C183.168 29.8093 182.344 29.024 181.736 28.036V41.184H174.288V9.682H181.736V12.646ZM189.488 20.322C189.488 18.9287 189.108 17.852 188.348 17.092C187.614 16.3067 186.702 15.914 185.612 15.914C184.523 15.914 183.598 16.3067 182.838 17.092C182.104 17.8773 181.736 18.954 181.736 20.322C181.736 21.7153 182.104 22.8047 182.838 23.59C183.598 24.3753 184.523 24.768 185.612 24.768C186.702 24.768 187.614 24.3753 188.348 23.59C189.108 22.7793 189.488 21.69 189.488 20.322ZM203.879 7.706C202.561 7.706 201.497 7.35133 200.687 6.642C199.901 5.90733 199.509 4.99533 199.509 3.906C199.509 2.79133 199.901 1.86667 200.687 1.132C201.497 0.397332 202.561 0.0299978 203.879 0.0299978C205.171 0.0299978 206.209 0.397332 206.995 1.132C207.805 1.86667 208.211 2.79133 208.211 3.906C208.211 4.99533 207.805 5.90733 206.995 6.642C206.209 7.35133 205.171 7.706 203.879 7.706ZM207.565 9.682V31H200.117V9.682H207.565ZM210.59 20.322C210.59 18.118 211.046 16.1927 211.958 14.546C212.87 12.8993 214.137 11.6327 215.758 10.746C217.405 9.85933 219.279 9.416 221.382 9.416C224.093 9.416 226.373 10.1633 228.222 11.658C230.071 13.1273 231.262 15.192 231.794 17.852H223.89C223.434 16.4587 222.547 15.762 221.23 15.762C220.293 15.762 219.545 16.1547 218.988 16.94C218.456 17.7 218.19 18.8273 218.19 20.322C218.19 21.8167 218.456 22.9567 218.988 23.742C219.545 24.5273 220.293 24.92 221.23 24.92C222.573 24.92 223.459 24.2233 223.89 22.83H231.794C231.262 25.4647 230.071 27.5293 228.222 29.024C226.373 30.5187 224.093 31.266 221.382 31.266C219.279 31.266 217.405 30.8227 215.758 29.936C214.137 29.0493 212.87 27.7827 211.958 26.136C211.046 24.4893 210.59 22.5513 210.59 20.322Z" fill="white"/>
</svg>
