<svg width="365" height="434" viewBox="0 0 365 434" fill="none" xmlns="http://www.w3.org/2000/svg">
<rect width="365" height="434" rx="13" fill="url(#paint0_radial_2_3601)"/>
<path d="M223.062 162.573L215.266 160.248C214.727 158.368 213.986 156.552 213.055 154.831L216.872 147.694C217.015 147.424 217.068 147.116 217.022 146.814C216.975 146.513 216.833 146.234 216.616 146.02L211.054 140.44C210.839 140.223 210.561 140.081 210.259 140.035C209.957 139.989 209.648 140.041 209.379 140.184L202.281 143.974C200.541 142.999 198.699 142.219 196.788 141.649L194.461 133.954C194.363 133.67 194.177 133.425 193.93 133.254C193.683 133.082 193.389 132.994 193.088 133H185.222C184.92 133.002 184.626 133.099 184.383 133.279C184.141 133.459 183.962 133.712 183.872 134L181.545 141.672C179.618 142.239 177.761 143.019 176.007 143.997L169.025 140.231C168.755 140.088 168.447 140.035 168.145 140.081C167.843 140.127 167.564 140.27 167.349 140.487L161.694 145.997C161.477 146.211 161.335 146.49 161.289 146.791C161.243 147.093 161.295 147.401 161.438 147.67L165.208 154.645C164.231 156.39 163.451 158.238 162.881 160.155L155.178 162.48C154.889 162.569 154.637 162.748 154.457 162.991C154.277 163.233 154.179 163.527 154.177 163.829V171.687C154.179 171.989 154.277 172.282 154.457 172.525C154.637 172.767 154.889 172.946 155.178 173.035L162.928 175.36C163.503 177.245 164.284 179.062 165.255 180.777L161.438 188.077C161.295 188.347 161.243 188.655 161.289 188.957C161.335 189.258 161.477 189.537 161.694 189.751L167.256 195.308C167.471 195.525 167.75 195.667 168.052 195.713C168.354 195.759 168.662 195.707 168.932 195.564L176.123 191.727C177.824 192.644 179.618 193.377 181.475 193.913L183.803 201.748C183.892 202.036 184.071 202.289 184.314 202.469C184.556 202.648 184.85 202.746 185.152 202.748H193.018C193.321 202.746 193.614 202.648 193.857 202.469C194.1 202.289 194.279 202.036 194.368 201.748L196.695 193.89C198.537 193.351 200.315 192.618 202.001 191.704L209.239 195.564C209.509 195.707 209.817 195.759 210.119 195.713C210.421 195.667 210.7 195.525 210.914 195.308L216.476 189.751C216.694 189.537 216.836 189.258 216.882 188.957C216.928 188.655 216.876 188.347 216.732 188.077L212.869 180.87C213.794 179.179 214.535 177.394 215.08 175.546L222.923 173.221C223.212 173.132 223.464 172.953 223.644 172.711C223.824 172.468 223.922 172.175 223.923 171.873V163.945C223.937 163.656 223.862 163.369 223.708 163.124C223.554 162.879 223.329 162.687 223.062 162.573ZM189.155 180.661C186.624 180.661 184.149 179.911 182.044 178.506C179.939 177.101 178.299 175.104 177.33 172.767C176.361 170.431 176.108 167.86 176.602 165.379C177.095 162.899 178.314 160.62 180.105 158.832C181.895 157.044 184.175 155.826 186.658 155.333C189.141 154.839 191.715 155.092 194.053 156.06C196.392 157.028 198.391 158.667 199.798 160.77C201.204 162.873 201.955 165.345 201.955 167.874C201.955 171.265 200.606 174.518 198.206 176.916C195.805 179.314 192.55 180.661 189.155 180.661Z" fill="#380B70"/>
<circle cx="189.051" cy="167.874" r="9.86231" stroke="#380B70" stroke-width="6.58368"/>
<path d="M104.21 174.667V156.6H110.534C112.77 156.6 114.388 157.03 115.386 157.891C116.401 158.751 116.909 160.05 116.909 161.788C116.909 163.113 116.556 164.102 115.85 164.756C117.519 165.513 118.354 166.941 118.354 169.04C118.354 171.054 117.743 172.499 116.521 173.376C115.317 174.237 113.39 174.667 110.74 174.667H104.21ZM109.114 170.021H110.74C111.583 170.021 112.203 169.918 112.598 169.711C112.994 169.505 113.192 169.152 113.192 168.653C113.192 167.655 112.349 167.156 110.663 167.156H109.114V170.021ZM109.114 163.595H109.837C111.11 163.595 111.747 163.199 111.747 162.407C111.747 161.633 111.11 161.246 109.837 161.246H109.114V163.595ZM124.678 162.046V163.233C125.384 162.442 126.339 162.046 127.543 162.046H128.524L128.55 166.434H127.466C125.607 166.434 124.678 167.552 124.678 169.789V174.667H120.033V162.046H124.678ZM129.963 162.046H134.609V174.667H129.963V162.046ZM129.653 157.942C129.653 157.22 129.912 156.6 130.428 156.084C130.944 155.568 131.563 155.31 132.286 155.31C132.991 155.31 133.602 155.568 134.118 156.084C134.652 156.6 134.919 157.22 134.919 157.942C134.919 158.648 134.652 159.267 134.118 159.801C133.602 160.317 132.991 160.575 132.286 160.575C131.563 160.575 130.944 160.317 130.428 159.801C129.912 159.267 129.653 158.648 129.653 157.942ZM137.571 162.046V158.046H142.242V162.046H144.436V166.176H142.242V174.667H137.571V166.176H136.151V162.046H137.571ZM146.906 163.672C148.128 162.416 149.702 161.788 151.629 161.788C153.384 161.788 154.752 162.244 155.733 163.156C156.731 164.068 157.35 165.324 157.591 166.924V169.531H150.287C150.7 170.374 151.474 170.795 152.61 170.795C153.677 170.795 154.976 170.494 156.507 169.892V173.867C156.025 174.108 155.638 174.288 155.346 174.409C155.053 174.529 154.615 174.641 154.03 174.744C153.445 174.865 152.782 174.925 152.042 174.925C149.995 174.925 148.317 174.297 147.009 173.041C145.719 171.785 145.074 170.228 145.074 168.369C145.074 166.511 145.685 164.945 146.906 163.672ZM150.055 167.079H153.075C152.937 166.305 152.438 165.917 151.578 165.917C150.803 165.917 150.296 166.305 150.055 167.079ZM157.588 156.6H162.802L165.563 166.718L168.118 159.181H172.351L174.906 166.718L177.668 156.6H182.881L177.668 174.667H172.841L170.235 166.898L167.628 174.667H162.802L157.588 156.6ZM201.955 162.046V163.233C202.66 162.442 203.615 162.046 204.82 162.046H205.8L205.826 166.434H204.742C202.884 166.434 201.955 167.552 201.955 169.789V174.667H197.309V162.046H201.955ZM210.285 168.344L206.207 162.046H211.318L212.84 164.395L214.363 162.046H219.473L215.395 168.344L219.473 174.667H214.363L212.84 172.318L211.318 174.667H206.207L210.285 168.344ZM220.239 172.499C220.239 171.811 220.471 171.234 220.936 170.77C221.418 170.288 221.994 170.047 222.665 170.047C223.353 170.047 223.93 170.288 224.394 170.77C224.876 171.234 225.117 171.811 225.117 172.499C225.117 173.17 224.876 173.746 224.394 174.228C223.93 174.693 223.353 174.925 222.665 174.925C221.994 174.925 221.418 174.693 220.936 174.228C220.471 173.746 220.239 173.17 220.239 172.499ZM226.924 162.046H231.57V168.369C231.57 169.729 232.069 170.408 233.067 170.408C234.065 170.408 234.564 169.729 234.564 168.369V162.046H239.21V170.15C239.21 170.684 239.115 171.208 238.926 171.725C238.736 172.224 238.427 172.731 237.997 173.247C237.584 173.746 236.956 174.151 236.112 174.46C235.252 174.77 234.237 174.925 233.067 174.925C231.897 174.925 230.882 174.77 230.021 174.46C229.178 174.151 228.542 173.746 228.112 173.247C227.699 172.731 227.398 172.224 227.208 171.725C227.019 171.208 226.924 170.684 226.924 170.15V162.046ZM240.878 170.253H245.782C245.782 170.993 246.092 171.363 246.711 171.363C247.279 171.363 247.563 171.131 247.563 170.666C247.563 170.443 247.339 170.262 246.892 170.124C246.462 169.987 245.928 169.849 245.292 169.711C244.672 169.557 244.053 169.359 243.434 169.118C242.814 168.86 242.281 168.438 241.833 167.853C241.403 167.268 241.188 166.537 241.188 165.659C241.188 164.403 241.679 163.448 242.659 162.795C243.657 162.123 244.974 161.788 246.608 161.788C248.346 161.788 249.688 162.227 250.634 163.104C251.581 163.982 252.054 164.971 252.054 166.072H247.357C247.305 165.453 247.064 165.143 246.634 165.143C246.255 165.143 246.066 165.324 246.066 165.685C246.066 165.995 246.281 166.244 246.711 166.434C247.159 166.606 247.692 166.769 248.312 166.924C248.948 167.062 249.576 167.251 250.196 167.492C250.815 167.733 251.34 168.146 251.77 168.731C252.217 169.298 252.441 170.021 252.441 170.899C252.441 172.172 251.882 173.161 250.763 173.867C249.645 174.572 248.303 174.925 246.737 174.925C244.862 174.925 243.416 174.486 242.401 173.609C241.386 172.731 240.878 171.656 240.878 170.382C240.878 170.331 240.878 170.288 240.878 170.253Z" fill="white"/>
<path d="M281.982 210.699C283.062 210.48 283.871 209.976 283.789 209.574C283.708 209.172 282.767 209.024 281.687 209.243C280.607 209.462 279.798 209.965 279.88 210.368C279.962 210.77 280.903 210.918 281.982 210.699Z" fill="white"/>
<g filter="url(#filter0_d_2_3601)">
<path d="M31.464 203.751C31.464 196.728 36.4536 192.201 44.7696 192.201C56.874 192.201 61.956 189.798 70.8264 189.798C77.2944 189.798 83.4852 192.848 83.4852 200.517C83.4852 206.8 79.6968 209.48 76.5552 209.48C71.3808 209.48 71.3808 208.371 65.3748 208.371C61.2168 208.371 62.9724 215.116 63.2496 215.67C63.7116 216.779 65.7444 220.752 66.0216 221.399C69.4404 226.943 70.5492 233.134 70.5492 239.787C70.5492 248.565 64.3584 256.049 54.7488 256.049C44.9544 256.049 40.9812 249.304 40.9812 240.526C40.9812 227.405 53.9172 206.615 48.4656 206.615C45.324 206.615 44.0304 210.866 38.394 210.866C34.698 210.866 31.464 209.295 31.464 203.751ZM84.0476 239.694C84.0476 226.389 89.9612 214.284 89.9612 203.289C89.5916 191.924 102.712 189.798 112.507 189.798C121.562 189.798 134.59 192.94 134.59 205.322C134.59 216.41 123.872 220.29 123.872 222.878C123.872 226.574 135.33 231.378 135.33 246.347C135.33 251.429 131.541 256.511 125.812 256.511C114.447 256.511 114.54 242.097 112.876 231.84C112.322 228.514 110.012 224.633 106.408 224.633C104.653 224.633 104.838 226.574 104.838 226.943C104.838 232.764 108.164 234.89 108.164 242.836C108.164 249.489 105.577 255.772 97.1684 255.772C85.3412 255.772 84.0476 246.717 84.0476 239.694ZM108.256 211.974C114.54 211.974 109.92 200.332 106.039 200.332C102.25 200.332 104.745 211.974 108.256 211.974ZM145.325 218.073C145.602 213.822 145.694 209.018 145.694 203.012C145.694 198.299 147.727 190.538 154.472 190.445C161.217 190.26 161.864 197.006 161.864 201.81C161.864 206.708 159.739 211.512 159 216.132C157.521 225.095 163.62 233.226 163.62 241.542C163.62 248.657 160.571 256.881 151.053 256.881C145.14 256.881 140.058 251.244 140.058 242.466C140.058 229.438 144.955 224.633 145.325 218.073ZM168.366 204.582C168.366 197.652 171.877 190.26 180.193 190.26C187.678 190.26 191.374 196.913 191.374 204.305C191.374 209.572 189.803 214.284 189.803 218.35C189.803 220.013 190.357 222.046 192.39 222.046C195.717 222.046 197.657 218.165 197.657 215.301C197.657 210.958 196.271 207.539 196.271 203.196C196.271 195.804 202.831 191.739 209.392 191.739C215.49 191.739 220.572 194.88 220.387 201.718C220.11 210.126 216.507 213.453 212.995 219.366C207.544 228.699 205.881 236.368 202.277 246.347C200.614 250.875 196.641 256.049 190.357 256.049C181.21 256.049 177.883 248.288 176.775 239.972C174.003 220.66 168.366 211.697 168.366 204.582ZM228.741 218.073C229.018 213.822 229.111 209.018 229.111 203.012C229.111 198.299 231.143 190.538 237.889 190.445C244.634 190.26 245.281 197.006 245.281 201.81C245.281 206.708 243.155 211.512 242.416 216.132C240.938 225.095 247.036 233.226 247.036 241.542C247.036 248.657 243.987 256.881 234.47 256.881C228.556 256.881 223.474 251.244 223.474 242.466C223.474 229.438 228.371 224.633 228.741 218.073ZM251.69 242.559C251.69 233.411 258.158 226.481 263.887 216.502C268.876 207.816 265.273 190.722 282.921 190.722C291.976 190.722 297.336 198.484 297.336 207.354C297.336 222.878 303.619 230.177 303.619 239.694C303.619 248.103 300.847 256.049 290.775 256.049C285.508 256.049 282.182 251.891 282.182 246.07C282.182 239.694 284.954 236.183 280.057 236.183C276.823 236.183 273.774 240.526 273.774 245.331C273.774 253.277 266.751 255.587 263.148 255.587C256.402 255.587 251.69 251.522 251.69 242.559ZM281.905 217.98C286.802 217.98 287.726 203.381 284.03 203.381C279.78 203.381 277.562 217.98 281.905 217.98ZM305.098 206.246C305.098 198.207 308.517 190.076 317.202 190.076C324.964 190.076 329.584 196.913 329.584 203.566C329.584 209.11 326.997 214.284 325.796 219.551C324.594 225.003 324.964 235.906 317.849 235.906C312.12 235.906 311.843 228.514 310.457 224.726C307.778 217.334 305.098 211.605 305.098 206.246ZM316.001 239.602C328.106 239.602 327.644 255.864 317.018 255.864C303.712 255.864 307.593 239.602 316.001 239.602Z" fill="#BA020C"/>
<path d="M31.464 201.44C31.464 194.418 36.4536 189.89 44.7696 189.89C56.874 189.89 61.956 187.488 70.8264 187.488C77.2944 187.488 83.4852 190.537 83.4852 198.206C83.4852 204.49 79.6968 207.169 76.5552 207.169C71.3808 207.169 71.3808 206.06 65.3748 206.06C61.2168 206.06 62.9724 212.806 63.2496 213.36C63.7116 214.469 65.7444 218.442 66.0216 219.089C69.4404 224.633 70.5492 230.824 70.5492 237.476C70.5492 246.254 64.3584 253.739 54.7488 253.739C44.9544 253.739 40.9812 246.994 40.9812 238.216C40.9812 225.095 53.9172 204.305 48.4656 204.305C45.324 204.305 44.0304 208.555 38.394 208.555C34.698 208.555 31.464 206.984 31.464 201.44ZM84.0476 237.384C84.0476 224.078 89.9612 211.974 89.9612 200.978C89.5916 189.613 102.712 187.488 112.507 187.488C121.562 187.488 134.59 190.63 134.59 203.011C134.59 214.099 123.872 217.98 123.872 220.567C123.872 224.263 135.33 229.068 135.33 244.037C135.33 249.119 131.541 254.201 125.812 254.201C114.447 254.201 114.54 239.786 112.876 229.53C112.322 226.204 110.012 222.323 106.408 222.323C104.653 222.323 104.838 224.263 104.838 224.633C104.838 230.454 108.164 232.579 108.164 240.526C108.164 247.178 105.577 253.462 97.1684 253.462C85.3412 253.462 84.0476 244.406 84.0476 237.384ZM108.256 209.664C114.54 209.664 109.92 198.022 106.039 198.022C102.25 198.022 104.745 209.664 108.256 209.664ZM145.325 215.762C145.602 211.512 145.694 206.707 145.694 200.701C145.694 195.989 147.727 188.227 154.472 188.135C161.217 187.95 161.864 194.695 161.864 199.5C161.864 204.397 159.739 209.202 159 213.822C157.521 222.785 163.62 230.916 163.62 239.232C163.62 246.347 160.571 254.57 151.053 254.57C145.14 254.57 140.058 248.934 140.058 240.156C140.058 227.128 144.955 222.323 145.325 215.762ZM168.366 202.272C168.366 195.342 171.877 187.95 180.193 187.95C187.678 187.95 191.374 194.603 191.374 201.995C191.374 207.262 189.803 211.974 189.803 216.04C189.803 217.703 190.357 219.736 192.39 219.736C195.717 219.736 197.657 215.855 197.657 212.99C197.657 208.648 196.271 205.229 196.271 200.886C196.271 193.494 202.831 189.428 209.392 189.428C215.49 189.428 220.572 192.57 220.387 199.408C220.11 207.816 216.507 211.142 212.995 217.056C207.544 226.388 205.881 234.058 202.277 244.037C200.614 248.564 196.641 253.739 190.357 253.739C181.21 253.739 177.883 245.977 176.775 237.661C174.003 218.35 168.366 209.387 168.366 202.272ZM228.741 215.762C229.018 211.512 229.111 206.707 229.111 200.701C229.111 195.989 231.143 188.227 237.889 188.135C244.634 187.95 245.281 194.695 245.281 199.5C245.281 204.397 243.155 209.202 242.416 213.822C240.938 222.785 247.036 230.916 247.036 239.232C247.036 246.347 243.987 254.57 234.47 254.57C228.556 254.57 223.474 248.934 223.474 240.156C223.474 227.128 228.371 222.323 228.741 215.762ZM251.69 240.248C251.69 231.101 258.158 224.171 263.887 214.192C268.876 205.506 265.273 188.412 282.921 188.412C291.976 188.412 297.336 196.174 297.336 205.044C297.336 220.567 303.619 227.867 303.619 237.384C303.619 245.792 300.847 253.739 290.775 253.739C285.508 253.739 282.182 249.581 282.182 243.76C282.182 237.384 284.954 233.873 280.057 233.873C276.823 233.873 273.774 238.216 273.774 243.02C273.774 250.967 266.751 253.277 263.148 253.277C256.402 253.277 251.69 249.211 251.69 240.248ZM281.905 215.67C286.802 215.67 287.726 201.071 284.03 201.071C279.78 201.071 277.562 215.67 281.905 215.67ZM305.098 203.935C305.098 195.896 308.517 187.765 317.202 187.765C324.964 187.765 329.584 194.603 329.584 201.256C329.584 206.8 326.997 211.974 325.796 217.241C324.594 222.692 324.964 233.596 317.849 233.596C312.12 233.596 311.843 226.204 310.457 222.415C307.778 215.023 305.098 209.294 305.098 203.935ZM316.001 237.292C328.106 237.292 327.644 253.554 317.018 253.554C303.712 253.554 307.593 237.292 316.001 237.292Z" fill="#F31943"/>
<mask id="path-8-outside-1_2_3601" maskUnits="userSpaceOnUse" x="28" y="182.35" width="302" height="71" fill="black">
<rect fill="white" x="28" y="182.35" width="302" height="71"/>
<path d="M29.924 197.975C29.924 190.953 34.9136 186.425 43.2296 186.425C55.334 186.425 60.416 184.023 69.2864 184.023C75.7544 184.023 81.9452 187.072 81.9452 194.741C81.9452 201.024 78.1568 203.704 75.0152 203.704C69.8408 203.704 69.8408 202.595 63.8348 202.595C59.6768 202.595 61.4324 209.34 61.7096 209.895C62.1716 211.004 64.2044 214.977 64.4816 215.624C67.9004 221.168 69.0092 227.358 69.0092 234.011C69.0092 242.789 62.8184 250.274 53.2088 250.274C43.4144 250.274 39.4412 243.528 39.4412 234.75C39.4412 221.63 52.3772 200.84 46.9256 200.84C43.784 200.84 42.4904 205.09 36.854 205.09C33.158 205.09 29.924 203.519 29.924 197.975ZM82.5075 233.919C82.5075 220.613 88.4211 208.509 88.4211 197.513C88.0515 186.148 101.172 184.023 110.967 184.023C120.022 184.023 133.05 187.164 133.05 199.546C133.05 210.634 122.332 214.515 122.332 217.102C122.332 220.798 133.79 225.603 133.79 240.572C133.79 245.654 130.001 250.736 124.272 250.736C112.907 250.736 113 236.321 111.336 226.065C110.782 222.738 108.472 218.858 104.868 218.858C103.113 218.858 103.298 220.798 103.298 221.168C103.298 226.989 106.624 229.114 106.624 237.06C106.624 243.713 104.037 249.996 95.6283 249.996C83.8011 249.996 82.5075 240.941 82.5075 233.919ZM106.716 206.199C113 206.199 108.38 194.556 104.499 194.556C100.71 194.556 103.205 206.199 106.716 206.199ZM143.785 212.297C144.062 208.047 144.154 203.242 144.154 197.236C144.154 192.524 146.187 184.762 152.932 184.67C159.677 184.485 160.324 191.23 160.324 196.035C160.324 200.932 158.199 205.737 157.46 210.357C155.981 219.32 162.08 227.451 162.08 235.767C162.08 242.882 159.031 251.105 149.513 251.105C143.6 251.105 138.518 245.469 138.518 236.691C138.518 223.662 143.415 218.858 143.785 212.297ZM166.826 198.807C166.826 191.877 170.337 184.485 178.653 184.485C186.138 184.485 189.834 191.138 189.834 198.53C189.834 203.796 188.263 208.509 188.263 212.574C188.263 214.238 188.817 216.27 190.85 216.27C194.177 216.27 196.117 212.39 196.117 209.525C196.117 205.182 194.731 201.764 194.731 197.421C194.731 190.029 201.291 185.963 207.852 185.963C213.95 185.963 219.032 189.105 218.847 195.942C218.57 204.351 214.967 207.677 211.455 213.591C206.004 222.923 204.341 230.592 200.737 240.572C199.074 245.099 195.101 250.274 188.817 250.274C179.67 250.274 176.343 242.512 175.235 234.196C172.463 214.884 166.826 205.922 166.826 198.807ZM227.201 212.297C227.478 208.047 227.57 203.242 227.57 197.236C227.57 192.524 229.603 184.762 236.348 184.67C243.094 184.485 243.74 191.23 243.74 196.035C243.74 200.932 241.615 205.737 240.876 210.357C239.398 219.32 245.496 227.451 245.496 235.767C245.496 242.882 242.447 251.105 232.93 251.105C227.016 251.105 221.934 245.469 221.934 236.691C221.934 223.662 226.831 218.858 227.201 212.297ZM250.15 236.783C250.15 227.636 256.618 220.706 262.347 210.726C267.336 202.041 263.733 184.947 281.381 184.947C290.436 184.947 295.796 192.708 295.796 201.579C295.796 217.102 302.079 224.402 302.079 233.919C302.079 242.327 299.307 250.274 289.235 250.274C283.968 250.274 280.642 246.116 280.642 240.294C280.642 233.919 283.414 230.408 278.517 230.408C275.283 230.408 272.234 234.75 272.234 239.555C272.234 247.502 265.211 249.812 261.608 249.812C254.862 249.812 250.15 245.746 250.15 236.783ZM280.365 212.205C285.262 212.205 286.186 197.606 282.49 197.606C278.24 197.606 276.022 212.205 280.365 212.205ZM303.558 200.47C303.558 192.431 306.977 184.3 315.662 184.3C323.424 184.3 328.044 191.138 328.044 197.79C328.044 203.334 325.457 208.509 324.256 213.776C323.054 219.227 323.424 230.13 316.309 230.13C310.58 230.13 310.303 222.738 308.917 218.95C306.238 211.558 303.558 205.829 303.558 200.47ZM314.461 233.826C326.566 233.826 326.104 250.089 315.478 250.089C302.172 250.089 306.053 233.826 314.461 233.826Z"/>
</mask>
<path d="M29.924 197.975C29.924 190.953 34.9136 186.425 43.2296 186.425C55.334 186.425 60.416 184.023 69.2864 184.023C75.7544 184.023 81.9452 187.072 81.9452 194.741C81.9452 201.024 78.1568 203.704 75.0152 203.704C69.8408 203.704 69.8408 202.595 63.8348 202.595C59.6768 202.595 61.4324 209.34 61.7096 209.895C62.1716 211.004 64.2044 214.977 64.4816 215.624C67.9004 221.168 69.0092 227.358 69.0092 234.011C69.0092 242.789 62.8184 250.274 53.2088 250.274C43.4144 250.274 39.4412 243.528 39.4412 234.75C39.4412 221.63 52.3772 200.84 46.9256 200.84C43.784 200.84 42.4904 205.09 36.854 205.09C33.158 205.09 29.924 203.519 29.924 197.975ZM82.5075 233.919C82.5075 220.613 88.4211 208.509 88.4211 197.513C88.0515 186.148 101.172 184.023 110.967 184.023C120.022 184.023 133.05 187.164 133.05 199.546C133.05 210.634 122.332 214.515 122.332 217.102C122.332 220.798 133.79 225.603 133.79 240.572C133.79 245.654 130.001 250.736 124.272 250.736C112.907 250.736 113 236.321 111.336 226.065C110.782 222.738 108.472 218.858 104.868 218.858C103.113 218.858 103.298 220.798 103.298 221.168C103.298 226.989 106.624 229.114 106.624 237.06C106.624 243.713 104.037 249.996 95.6283 249.996C83.8011 249.996 82.5075 240.941 82.5075 233.919ZM106.716 206.199C113 206.199 108.38 194.556 104.499 194.556C100.71 194.556 103.205 206.199 106.716 206.199ZM143.785 212.297C144.062 208.047 144.154 203.242 144.154 197.236C144.154 192.524 146.187 184.762 152.932 184.67C159.677 184.485 160.324 191.23 160.324 196.035C160.324 200.932 158.199 205.737 157.46 210.357C155.981 219.32 162.08 227.451 162.08 235.767C162.08 242.882 159.031 251.105 149.513 251.105C143.6 251.105 138.518 245.469 138.518 236.691C138.518 223.662 143.415 218.858 143.785 212.297ZM166.826 198.807C166.826 191.877 170.337 184.485 178.653 184.485C186.138 184.485 189.834 191.138 189.834 198.53C189.834 203.796 188.263 208.509 188.263 212.574C188.263 214.238 188.817 216.27 190.85 216.27C194.177 216.27 196.117 212.39 196.117 209.525C196.117 205.182 194.731 201.764 194.731 197.421C194.731 190.029 201.291 185.963 207.852 185.963C213.95 185.963 219.032 189.105 218.847 195.942C218.57 204.351 214.967 207.677 211.455 213.591C206.004 222.923 204.341 230.592 200.737 240.572C199.074 245.099 195.101 250.274 188.817 250.274C179.67 250.274 176.343 242.512 175.235 234.196C172.463 214.884 166.826 205.922 166.826 198.807ZM227.201 212.297C227.478 208.047 227.57 203.242 227.57 197.236C227.57 192.524 229.603 184.762 236.348 184.67C243.094 184.485 243.74 191.23 243.74 196.035C243.74 200.932 241.615 205.737 240.876 210.357C239.398 219.32 245.496 227.451 245.496 235.767C245.496 242.882 242.447 251.105 232.93 251.105C227.016 251.105 221.934 245.469 221.934 236.691C221.934 223.662 226.831 218.858 227.201 212.297ZM250.15 236.783C250.15 227.636 256.618 220.706 262.347 210.726C267.336 202.041 263.733 184.947 281.381 184.947C290.436 184.947 295.796 192.708 295.796 201.579C295.796 217.102 302.079 224.402 302.079 233.919C302.079 242.327 299.307 250.274 289.235 250.274C283.968 250.274 280.642 246.116 280.642 240.294C280.642 233.919 283.414 230.408 278.517 230.408C275.283 230.408 272.234 234.75 272.234 239.555C272.234 247.502 265.211 249.812 261.608 249.812C254.862 249.812 250.15 245.746 250.15 236.783ZM280.365 212.205C285.262 212.205 286.186 197.606 282.49 197.606C278.24 197.606 276.022 212.205 280.365 212.205ZM303.558 200.47C303.558 192.431 306.977 184.3 315.662 184.3C323.424 184.3 328.044 191.138 328.044 197.79C328.044 203.334 325.457 208.509 324.256 213.776C323.054 219.227 323.424 230.13 316.309 230.13C310.58 230.13 310.303 222.738 308.917 218.95C306.238 211.558 303.558 205.829 303.558 200.47ZM314.461 233.826C326.566 233.826 326.104 250.089 315.478 250.089C302.172 250.089 306.053 233.826 314.461 233.826Z" fill="url(#paint1_linear_2_3601)"/>
<path d="M61.7096 209.895L63.1311 209.303L63.1107 209.254L63.087 209.206L61.7096 209.895ZM64.4816 215.624L63.0661 216.23L63.111 216.335L63.1708 216.432L64.4816 215.624ZM31.464 197.975C31.464 194.85 32.561 192.406 34.4749 190.724C36.4109 189.022 39.3409 187.965 43.2296 187.965V184.885C38.8023 184.885 35.0795 186.092 32.4417 188.41C29.7818 190.748 28.384 194.078 28.384 197.975H31.464ZM43.2296 187.965C49.3968 187.965 53.7824 187.351 57.7056 186.746C61.6249 186.141 64.9913 185.563 69.2864 185.563V182.483C64.7111 182.483 61.1013 183.106 57.2359 183.702C53.3744 184.298 49.1668 184.885 43.2296 184.885V187.965ZM69.2864 185.563C72.309 185.563 75.1203 186.28 77.133 187.75C79.0797 189.172 80.4052 191.383 80.4052 194.741H83.4852C83.4852 190.431 81.7153 187.283 78.9496 185.263C76.2499 183.291 72.7318 182.483 69.2864 182.483V185.563ZM80.4052 194.741C80.4052 200.296 77.1889 202.164 75.0152 202.164V205.244C79.1247 205.244 83.4852 201.753 83.4852 194.741H80.4052ZM75.0152 202.164C72.5781 202.164 71.4 201.91 70.0365 201.639C68.5705 201.348 66.9651 201.055 63.8348 201.055V204.135C66.7105 204.135 68.1081 204.397 69.4372 204.66C70.8688 204.944 72.2779 205.244 75.0152 205.244V202.164ZM63.8348 201.055C62.2961 201.055 61.1294 201.722 60.4176 202.82C59.7765 203.808 59.5957 205.002 59.5695 205.997C59.5425 207.023 59.6765 208.036 59.8285 208.815C59.9054 209.209 59.9898 209.558 60.0677 209.837C60.1326 210.069 60.2238 210.367 60.3322 210.584L63.087 209.206C63.1261 209.284 63.1018 209.25 63.0339 209.007C62.979 208.811 62.9132 208.542 62.8515 208.225C62.7263 207.584 62.6293 206.807 62.6485 206.078C62.6685 205.316 62.8111 204.79 63.0016 204.496C63.1214 204.311 63.2946 204.135 63.8348 204.135V201.055ZM60.2881 210.487C60.5435 211.1 61.1967 212.428 61.7849 213.616C62.4066 214.871 62.9497 215.959 63.0661 216.23L65.8971 215.017C65.7363 214.642 65.1244 213.419 64.5449 212.249C63.9319 211.011 63.3377 209.798 63.1311 209.303L60.2881 210.487ZM63.1708 216.432C66.3879 221.649 67.4692 227.526 67.4692 234.011H70.5492C70.5492 227.191 69.4129 220.686 65.7924 214.815L63.1708 216.432ZM67.4692 234.011C67.4692 242.052 61.8586 248.734 53.2088 248.734V251.814C63.7782 251.814 70.5492 243.526 70.5492 234.011H67.4692ZM53.2088 248.734C48.6985 248.734 45.7345 247.201 43.8566 244.844C41.9327 242.429 40.9812 238.937 40.9812 234.75H37.9012C37.9012 239.341 38.9363 243.611 41.4476 246.763C44.0049 249.973 47.9247 251.814 53.2088 251.814V248.734ZM40.9812 234.75C40.9812 231.693 41.7402 228.101 42.8535 224.355C43.963 220.622 45.3889 216.846 46.6705 213.413C47.9307 210.038 49.0885 206.902 49.5641 204.605C49.794 203.495 49.9272 202.316 49.6511 201.34C49.5011 200.809 49.2072 200.257 48.6713 199.85C48.1349 199.443 47.5126 199.3 46.9256 199.3V202.38C47.0201 202.38 46.9356 202.399 46.8085 202.303C46.6822 202.207 46.6693 202.114 46.6873 202.178C46.7473 202.39 46.7643 202.937 46.5481 203.981C46.1314 205.993 45.0774 208.874 43.785 212.336C42.514 215.741 41.0467 219.623 39.9011 223.478C38.7592 227.32 37.9012 231.248 37.9012 234.75H40.9812ZM46.9256 199.3C45.7619 199.3 44.8125 199.702 44.0153 200.19C43.2835 200.638 42.5135 201.275 41.903 201.732C40.612 202.697 39.2021 203.55 36.854 203.55V206.63C40.1423 206.63 42.1974 205.358 43.7477 204.198C44.5579 203.592 45.0525 203.166 45.623 202.817C46.1281 202.508 46.5185 202.38 46.9256 202.38V199.3ZM36.854 203.55C35.1878 203.55 33.8809 203.191 33.0035 202.441C32.1724 201.731 31.464 200.443 31.464 197.975H28.384C28.384 201.052 29.2926 203.321 31.0025 204.782C32.6661 206.204 34.8242 206.63 36.854 206.63V203.55ZM88.4211 197.513H89.9611V197.488L89.9603 197.463L88.4211 197.513ZM111.336 226.065L112.856 225.818L112.855 225.812L111.336 226.065ZM84.0475 233.919C84.0475 227.475 85.4794 221.289 86.9605 215.215C88.4238 209.213 89.9611 203.236 89.9611 197.513H86.8811C86.8811 202.786 85.4617 208.359 83.9682 214.485C82.4924 220.538 80.9675 227.058 80.9675 233.919H84.0475ZM89.9603 197.463C89.8784 194.942 90.5389 193.025 91.6482 191.527C92.7743 190.007 94.437 188.82 96.5001 187.917C100.662 186.095 106.132 185.563 110.967 185.563V182.483C106.008 182.483 100.02 183.013 95.2648 185.095C92.8695 186.144 90.7092 187.62 89.173 189.694C87.6201 191.791 86.7791 194.402 86.882 197.563L89.9603 197.463ZM110.967 185.563C115.362 185.563 120.601 186.332 124.681 188.501C128.675 190.624 131.51 194.037 131.51 199.546H134.59C134.59 192.674 130.911 188.325 126.127 185.782C121.43 183.285 115.627 182.483 110.967 182.483V185.563ZM131.51 199.546C131.51 204.521 129.131 207.894 126.602 210.423C125.298 211.728 124.069 212.702 122.979 213.68C122.466 214.14 121.961 214.623 121.579 215.112C121.217 215.575 120.792 216.259 120.792 217.102H123.872C123.872 217.298 123.782 217.295 124.006 217.007C124.21 216.746 124.542 216.415 125.035 215.973C125.954 215.149 127.405 213.976 128.78 212.601C131.61 209.771 134.59 205.66 134.59 199.546H131.51ZM120.792 217.102C120.792 217.962 121.123 218.725 121.509 219.359C121.897 219.996 122.421 220.63 122.973 221.249C124.14 222.557 125.453 223.838 126.864 225.579C129.579 228.929 132.25 233.54 132.25 240.572H135.33C135.33 232.634 132.271 227.359 129.257 223.64C127.804 221.847 126.253 220.298 125.271 219.198C124.749 218.613 124.378 218.148 124.139 217.757C123.899 217.362 123.872 217.167 123.872 217.102H120.792ZM132.25 240.572C132.25 245.007 128.96 249.196 124.272 249.196V252.276C131.042 252.276 135.33 246.301 135.33 240.572H132.25ZM124.272 249.196C121.794 249.196 120.053 248.425 118.742 247.199C117.39 245.934 116.391 244.083 115.629 241.766C114.87 239.454 114.385 236.799 113.985 234.027C113.596 231.33 113.272 228.378 112.856 225.818L109.816 226.311C110.233 228.88 110.52 231.576 110.937 234.466C111.343 237.282 111.857 240.153 112.703 242.727C113.547 245.296 114.759 247.689 116.638 249.448C118.559 251.245 121.068 252.276 124.272 252.276V249.196ZM112.855 225.812C112.542 223.931 111.735 221.877 110.453 220.258C109.164 218.629 107.281 217.318 104.868 217.318V220.398C106.059 220.398 107.133 221.027 108.038 222.17C108.951 223.322 109.576 224.872 109.817 226.318L112.855 225.812ZM104.868 217.318C104.128 217.318 103.451 217.53 102.907 217.974C102.384 218.403 102.108 218.945 101.96 219.397C101.814 219.845 101.771 220.275 101.758 220.584C101.746 220.846 101.758 221.211 101.758 221.168H104.838C104.838 221.12 104.836 221.07 104.835 221.04C104.834 221.002 104.833 220.97 104.833 220.934C104.831 220.864 104.831 220.792 104.835 220.717C104.842 220.558 104.862 220.434 104.889 220.351C104.915 220.272 104.922 220.306 104.857 220.359C104.772 220.428 104.731 220.398 104.868 220.398V217.318ZM101.758 221.168C101.758 224.4 102.702 226.647 103.516 228.851C104.318 231.022 105.084 233.345 105.084 237.06H108.164C108.164 232.829 107.267 230.117 106.405 227.784C105.556 225.483 104.838 223.756 104.838 221.168H101.758ZM105.084 237.06C105.084 240.228 104.461 243.098 103.022 245.134C101.645 247.082 99.392 248.456 95.6283 248.456V251.536C100.273 251.536 103.518 249.769 105.537 246.912C107.493 244.144 108.164 240.545 108.164 237.06H105.084ZM95.6283 248.456C92.8674 248.456 90.8314 247.929 89.3174 247.115C87.813 246.307 86.742 245.173 85.9686 243.825C84.3831 241.06 84.0475 237.399 84.0475 233.919H80.9675C80.9675 237.461 81.2788 241.839 83.2969 245.357C84.3252 247.15 85.7953 248.719 87.8598 249.828C89.9148 250.932 92.4757 251.536 95.6283 251.536V248.456ZM106.716 207.739C107.741 207.739 108.676 207.499 109.451 206.971C110.23 206.441 110.731 205.698 111.017 204.898C111.564 203.364 111.364 201.536 110.897 199.944C110.417 198.312 109.583 196.671 108.565 195.409C107.61 194.226 106.197 193.016 104.499 193.016V196.096C104.741 196.096 105.361 196.343 106.168 197.343C106.91 198.263 107.566 199.533 107.941 200.812C108.329 202.13 108.348 203.213 108.116 203.862C108.012 204.153 107.873 204.32 107.717 204.426C107.557 204.535 107.262 204.659 106.716 204.659V207.739ZM104.499 193.016C103.577 193.016 102.79 193.393 102.219 194.025C101.69 194.611 101.405 195.347 101.25 196.04C100.941 197.422 101.043 199.115 101.361 200.683C101.681 202.267 102.258 203.902 103.043 205.184C103.759 206.353 104.972 207.739 106.716 207.739V204.659C106.705 204.659 106.29 204.589 105.669 203.575C105.117 202.674 104.648 201.399 104.38 200.072C104.108 198.73 104.077 197.512 104.256 196.712C104.345 196.313 104.46 196.14 104.505 196.089C104.509 196.084 104.474 196.096 104.499 196.096V193.016ZM143.785 212.297L142.248 212.197L142.247 212.211L143.785 212.297ZM152.932 184.67L152.953 186.21L152.964 186.209L152.974 186.209L152.932 184.67ZM157.46 210.357L158.979 210.608L158.98 210.6L157.46 210.357ZM145.321 212.397C145.602 208.097 145.694 203.254 145.694 197.236H142.614C142.614 203.23 142.522 207.996 142.248 212.197L145.321 212.397ZM145.694 197.236C145.694 195.053 146.173 192.201 147.373 189.943C148.547 187.736 150.305 186.246 152.953 186.21L152.911 183.13C148.814 183.186 146.183 185.623 144.654 188.497C143.152 191.321 142.614 194.707 142.614 197.236H145.694ZM152.974 186.209C154.392 186.17 155.369 186.494 156.071 186.968C156.783 187.449 157.333 188.166 157.75 189.106C158.611 191.046 158.784 193.642 158.784 196.035H161.864C161.864 193.623 161.714 190.444 160.565 187.856C159.978 186.532 159.101 185.298 157.795 184.416C156.478 183.527 154.845 183.077 152.89 183.13L152.974 186.209ZM158.784 196.035C158.784 198.276 158.297 200.542 157.679 202.911C157.077 205.218 156.324 207.706 155.939 210.114L158.98 210.6C159.334 208.388 160.014 206.164 160.659 203.689C161.289 201.276 161.864 198.691 161.864 196.035H158.784ZM155.94 210.106C155.135 214.986 156.407 219.575 157.749 223.773C159.128 228.089 160.54 231.912 160.54 235.767H163.62C163.62 231.306 161.983 226.905 160.682 222.836C159.344 218.648 158.306 214.69 158.979 210.607L155.94 210.106ZM160.54 235.767C160.54 239.143 159.81 242.645 158.082 245.253C156.409 247.778 153.745 249.565 149.513 249.565V252.645C154.8 252.645 158.418 250.321 160.649 246.955C162.825 243.672 163.62 239.506 163.62 235.767H160.54ZM149.513 249.565C144.75 249.565 140.058 244.953 140.058 236.691H136.978C136.978 245.985 142.449 252.645 149.513 252.645V249.565ZM140.058 236.691C140.058 230.397 141.235 226.115 142.467 222.575C143.671 219.117 145.121 215.948 145.322 212.384L142.247 212.211C142.078 215.207 140.895 217.721 139.558 221.562C138.249 225.322 136.978 229.956 136.978 236.691H140.058ZM218.847 195.942L220.387 195.993L220.387 195.984L218.847 195.942ZM211.455 213.591L210.131 212.805L210.126 212.814L211.455 213.591ZM200.737 240.572L202.183 241.103L202.185 241.095L200.737 240.572ZM175.235 234.196L176.761 233.993L176.76 233.985L176.759 233.977L175.235 234.196ZM168.366 198.807C168.366 195.571 169.191 192.326 170.879 189.936C172.525 187.605 175.025 186.025 178.653 186.025V182.945C173.965 182.945 170.552 185.061 168.363 188.159C166.217 191.197 165.286 195.112 165.286 198.807H168.366ZM178.653 186.025C181.872 186.025 184.213 187.426 185.8 189.634C187.424 191.894 188.294 195.065 188.294 198.53H191.374C191.374 194.602 190.396 190.751 188.301 187.836C186.169 184.87 182.919 182.945 178.653 182.945V186.025ZM188.294 198.53C188.294 201.021 187.922 203.402 187.53 205.748C187.145 208.043 186.723 210.384 186.723 212.574H189.803C189.803 210.699 190.166 208.652 190.567 206.257C190.96 203.913 191.374 201.305 191.374 198.53H188.294ZM186.723 212.574C186.723 213.533 186.876 214.751 187.444 215.787C188.065 216.919 189.189 217.81 190.85 217.81V214.73C190.611 214.73 190.489 214.675 190.419 214.63C190.341 214.58 190.244 214.487 190.145 214.306C189.927 213.909 189.803 213.279 189.803 212.574H186.723ZM190.85 217.81C193.184 217.81 194.921 216.435 196.005 214.836C197.082 213.25 197.657 211.262 197.657 209.525H194.577C194.577 210.653 194.182 212.038 193.456 213.108C192.739 214.165 191.843 214.73 190.85 214.73V217.81ZM197.657 209.525C197.657 207.198 197.284 205.13 196.94 203.202C196.591 201.249 196.271 199.437 196.271 197.421H193.191C193.191 199.748 193.564 201.816 193.908 203.744C194.257 205.697 194.577 207.51 194.577 209.525H197.657ZM196.271 197.421C196.271 194.233 197.665 191.801 199.785 190.129C201.938 188.431 204.869 187.503 207.852 187.503V184.423C204.274 184.423 200.645 185.528 197.878 187.711C195.077 189.92 193.191 193.217 193.191 197.421H196.271ZM207.852 187.503C210.661 187.503 213.075 188.229 214.732 189.582C216.338 190.892 217.389 192.913 217.308 195.901L220.387 195.984C220.491 192.134 219.093 189.165 216.679 187.196C214.317 185.268 211.141 184.423 207.852 184.423V187.503ZM217.308 195.892C217.048 203.785 213.806 206.615 210.131 212.805L212.78 214.377C216.127 208.739 220.092 204.917 220.387 195.993L217.308 195.892ZM210.126 212.814C204.579 222.308 202.824 230.259 199.288 240.049L202.185 241.095C205.857 230.926 207.428 223.538 212.785 214.368L210.126 212.814ZM199.291 240.041C197.715 244.331 194.135 248.734 188.817 248.734V251.814C196.067 251.814 200.432 245.867 202.183 241.103L199.291 240.041ZM188.817 248.734C184.768 248.734 182.107 247.056 180.268 244.462C178.366 241.781 177.302 238.052 176.761 233.993L173.708 234.4C174.276 238.656 175.43 242.965 177.755 246.244C180.143 249.61 183.719 251.814 188.817 251.814V248.734ZM176.759 233.977C175.356 224.201 173.226 217.041 171.459 211.463C169.66 205.783 168.366 202.061 168.366 198.807H165.286C165.286 202.667 166.81 206.984 168.523 212.393C170.267 217.902 172.341 224.879 173.71 234.415L176.759 233.977ZM227.201 212.297L225.664 212.197L225.663 212.211L227.201 212.297ZM236.348 184.67L236.37 186.21L236.38 186.209L236.391 186.209L236.348 184.67ZM240.876 210.357L242.396 210.608L242.397 210.6L240.876 210.357ZM228.738 212.397C229.018 208.097 229.11 203.254 229.11 197.236H226.03C226.03 203.23 225.938 207.996 225.664 212.197L228.738 212.397ZM229.11 197.236C229.11 195.053 229.589 192.201 230.79 189.943C231.964 187.736 233.721 186.246 236.37 186.21L236.327 183.13C232.23 183.186 229.599 185.623 228.07 188.497C226.568 191.321 226.03 194.707 226.03 197.236H229.11ZM236.391 186.209C237.808 186.17 238.785 186.494 239.487 186.968C240.199 187.449 240.749 188.166 241.166 189.106C242.027 191.046 242.201 193.642 242.201 196.035H245.281C245.281 193.623 245.13 190.444 243.982 187.856C243.394 186.532 242.517 185.298 241.211 184.416C239.895 183.527 238.261 183.077 236.306 183.13L236.391 186.209ZM242.201 196.035C242.201 198.276 241.713 200.542 241.095 202.911C240.494 205.218 239.741 207.706 239.355 210.114L242.397 210.6C242.751 208.388 243.43 206.164 244.076 203.689C244.705 201.276 245.281 198.691 245.281 196.035H242.201ZM239.357 210.106C238.552 214.986 239.823 219.575 241.165 223.773C242.544 228.089 243.956 231.912 243.956 235.767H247.036C247.036 231.306 245.399 226.905 244.099 222.836C242.76 218.648 241.722 214.69 242.396 210.607L239.357 210.106ZM243.956 235.767C243.956 239.143 243.227 242.645 241.498 245.253C239.825 247.778 237.161 249.565 232.93 249.565V252.645C238.216 252.645 241.834 250.321 244.066 246.955C246.241 243.672 247.036 239.506 247.036 235.767H243.956ZM232.93 249.565C228.167 249.565 223.474 244.953 223.474 236.691H220.394C220.394 245.985 225.866 252.645 232.93 252.645V249.565ZM223.474 236.691C223.474 230.397 224.651 226.115 225.883 222.575C227.087 219.117 228.538 215.948 228.738 212.384L225.663 212.211C225.495 215.207 224.312 217.721 222.974 221.562C221.666 225.322 220.394 229.956 220.394 236.691H223.474ZM262.347 210.726L261.011 209.959L261.011 209.96L262.347 210.726ZM251.69 236.783C251.69 232.594 253.164 228.849 255.44 224.825C256.581 222.809 257.902 220.76 259.32 218.554C260.73 216.361 262.228 214.026 263.682 211.493L261.011 209.96C259.601 212.416 258.143 214.69 256.729 216.889C255.323 219.075 253.952 221.201 252.76 223.308C250.37 227.531 248.61 231.825 248.61 236.783H251.69ZM263.682 211.494C265.058 209.098 265.808 206.191 266.446 203.374C267.102 200.477 267.643 197.665 268.566 195.101C269.478 192.568 270.705 190.458 272.612 188.966C274.502 187.488 277.226 186.487 281.381 186.487V183.407C276.712 183.407 273.269 184.542 270.714 186.541C268.177 188.525 266.685 191.232 265.668 194.058C264.662 196.854 264.065 199.943 263.442 202.694C262.801 205.525 262.13 208.012 261.011 209.959L263.682 211.494ZM281.381 186.487C289.3 186.487 294.256 193.241 294.256 201.579H297.336C297.336 192.176 291.573 183.407 281.381 183.407V186.487ZM294.256 201.579C294.256 209.57 295.879 215.449 297.469 220.466C299.076 225.536 300.539 229.459 300.539 233.919H303.619C303.619 228.861 301.94 224.377 300.405 219.536C298.854 214.643 297.336 209.111 297.336 201.579H294.256ZM300.539 233.919C300.539 238.002 299.857 241.742 298.138 244.417C296.492 246.979 293.79 248.734 289.235 248.734V251.814C294.752 251.814 298.472 249.596 300.729 246.082C302.914 242.682 303.619 238.244 303.619 233.919H300.539ZM289.235 248.734C287.041 248.734 285.329 247.883 284.141 246.474C282.932 245.041 282.182 242.922 282.182 240.294H279.102C279.102 243.488 280.015 246.359 281.786 248.46C283.578 250.585 286.163 251.814 289.235 251.814V248.734ZM282.182 240.294C282.182 238.811 282.343 237.482 282.522 236.288C282.691 235.156 282.909 233.975 282.954 233.034C282.999 232.102 282.917 230.88 282.004 229.967C281.122 229.085 279.835 228.868 278.517 228.868V231.948C279.647 231.948 279.85 232.169 279.826 232.145C279.77 232.089 279.913 232.144 279.878 232.886C279.842 233.621 279.673 234.512 279.476 235.832C279.288 237.089 279.102 238.59 279.102 240.294H282.182ZM278.517 228.868C276.196 228.868 274.215 230.397 272.896 232.304C271.55 234.25 270.694 236.843 270.694 239.555H273.774C273.774 237.463 274.442 235.482 275.429 234.056C276.443 232.59 277.604 231.948 278.517 231.948V228.868ZM270.694 239.555C270.694 242.994 269.209 245.106 267.379 246.409C265.475 247.764 263.145 248.272 261.608 248.272V251.352C263.674 251.352 266.656 250.704 269.165 248.918C271.747 247.08 273.774 244.063 273.774 239.555H270.694ZM261.608 248.272C258.545 248.272 256.129 247.356 254.468 245.6C252.798 243.834 251.69 241.006 251.69 236.783H248.61C248.61 241.523 249.858 245.209 252.231 247.717C254.612 250.235 257.925 251.352 261.608 251.352V248.272ZM280.365 213.745C282.463 213.745 283.841 212.176 284.647 210.639C285.484 209.042 285.978 207.01 286.182 205.065C286.385 203.12 286.313 201.099 285.896 199.499C285.689 198.705 285.37 197.905 284.864 197.272C284.332 196.606 283.534 196.066 282.49 196.066V199.146C282.37 199.146 282.351 199.061 282.457 199.194C282.589 199.359 282.766 199.7 282.916 200.275C283.212 201.412 283.296 203.041 283.118 204.745C282.94 206.45 282.517 208.068 281.919 209.209C281.29 210.409 280.715 210.665 280.365 210.665V213.745ZM282.49 196.066C280.501 196.066 279.174 197.717 278.398 199.156C277.553 200.724 276.971 202.732 276.682 204.679C276.394 206.615 276.37 208.658 276.772 210.291C276.972 211.106 277.306 211.935 277.872 212.587C278.478 213.284 279.327 213.745 280.365 213.745V210.665C280.317 210.665 280.286 210.669 280.198 210.568C280.071 210.422 279.899 210.111 279.763 209.556C279.491 208.452 279.473 206.845 279.728 205.132C279.982 203.429 280.479 201.787 281.11 200.618C281.809 199.32 282.353 199.146 282.49 199.146V196.066ZM324.256 213.776L322.754 213.433L322.752 213.444L324.256 213.776ZM308.917 218.95L307.469 219.475L307.471 219.479L308.917 218.95ZM305.098 200.47C305.098 196.634 305.919 192.911 307.651 190.2C309.336 187.562 311.894 185.84 315.662 185.84V182.76C310.745 182.76 307.251 185.104 305.055 188.541C302.906 191.906 302.018 196.267 302.018 200.47H305.098ZM315.662 185.84C322.327 185.84 326.504 191.719 326.504 197.79H329.584C329.584 190.556 324.521 182.76 315.662 182.76V185.84ZM326.504 197.79C326.504 200.332 325.91 202.838 325.126 205.443C324.363 207.973 323.37 210.735 322.754 213.433L325.757 214.118C326.343 211.55 327.243 209.091 328.075 206.331C328.884 203.646 329.584 200.792 329.584 197.79H326.504ZM322.752 213.444C322.434 214.887 322.22 216.686 321.982 218.422C321.737 220.207 321.459 221.99 321.016 223.585C320.569 225.194 319.99 226.466 319.233 227.318C318.528 228.111 317.63 228.59 316.309 228.59V231.67C318.546 231.67 320.27 230.787 321.534 229.365C322.746 228.002 323.484 226.208 323.984 224.41C324.488 222.597 324.787 220.633 325.033 218.84C325.286 216.999 325.477 215.391 325.759 214.107L322.752 213.444ZM316.309 228.59C315.247 228.59 314.519 228.262 313.951 227.761C313.344 227.227 312.842 226.424 312.408 225.373C311.975 224.325 311.654 223.143 311.344 221.917C311.047 220.742 310.745 219.463 310.363 218.421L307.471 219.479C307.782 220.331 308.035 221.397 308.358 222.673C308.669 223.899 309.035 225.275 309.561 226.549C310.086 227.819 310.814 229.102 311.914 230.071C313.052 231.075 314.507 231.67 316.309 231.67V228.59ZM310.365 218.425C308.991 214.636 307.695 211.476 306.694 208.462C305.708 205.491 305.098 202.904 305.098 200.47H302.018C302.018 203.395 302.748 206.352 303.771 209.433C304.78 212.472 306.163 215.872 307.469 219.475L310.365 218.425ZM314.461 235.366C317.122 235.366 318.95 236.25 320.12 237.445C321.309 238.659 321.925 240.302 321.953 241.984C321.982 243.671 321.419 245.319 320.35 246.528C319.305 247.71 317.709 248.549 315.478 248.549V251.629C318.559 251.629 321.006 250.435 322.657 248.568C324.285 246.727 325.074 244.31 325.033 241.931C324.992 239.548 324.118 237.125 322.321 235.29C320.506 233.436 317.852 232.286 314.461 232.286V235.366ZM315.478 248.549C312.469 248.549 310.68 247.639 309.666 246.516C308.638 245.377 308.21 243.799 308.361 242.093C308.512 240.38 309.241 238.657 310.359 237.383C311.468 236.12 312.889 235.366 314.461 235.366V232.286C311.829 232.286 309.612 233.565 308.044 235.352C306.485 237.127 305.5 239.47 305.293 241.823C305.085 244.182 305.656 246.67 307.38 248.58C309.118 250.506 311.833 251.629 315.478 251.629V248.549Z" fill="#FFFF7F" mask="url(#path-8-outside-1_2_3601)"/>
<path d="M93.0616 189.877C94.7019 188.336 97.2373 187.376 98.7256 187.732C100.214 188.089 100.093 189.624 98.4569 191.164C96.8212 192.704 94.2812 193.665 92.7929 193.309C91.3046 192.952 91.4259 191.417 93.0616 189.877Z" fill="white"/>
<path d="M104.419 189.174C106.209 189.04 107.62 188.39 107.57 187.723C107.52 187.056 106.028 186.624 104.237 186.758C102.446 186.893 101.036 187.543 101.086 188.21C101.136 188.877 102.628 189.309 104.419 189.174Z" fill="white"/>
<path d="M33.584 198.022C34.202 198.143 34.8046 197.783 34.9299 197.218C35.0552 196.652 34.6557 196.096 34.0377 195.974C33.4197 195.853 32.8171 196.213 32.6918 196.779C32.5665 197.344 32.966 197.901 33.584 198.022Z" fill="white"/>
<path d="M37.5112 191.145C39.8549 189.461 43.3614 188.304 45.3446 188.56C47.3277 188.816 47.038 190.385 44.7006 192.068C42.3631 193.751 38.8503 194.909 36.8672 194.653C34.8841 194.397 35.1737 192.828 37.5112 191.145Z" fill="white"/>
<path d="M52.4438 190.33C54.2345 190.195 55.6454 189.546 55.5953 188.878C55.5452 188.211 54.053 187.78 52.2623 187.914C50.4716 188.049 49.0606 188.699 49.1108 189.366C49.1609 190.033 50.6531 190.464 52.4438 190.33Z" fill="white"/>
<path d="M62.4531 245.137C63.882 244.232 64.767 243.066 64.4299 242.534C64.0928 242.002 62.6611 242.304 61.2322 243.209C59.8034 244.114 58.9183 245.279 59.2555 245.811C59.5926 246.344 61.0242 246.041 62.4531 245.137Z" fill="#FFBD9C"/>
<path d="M57.1384 247.362C57.8068 247.158 58.2673 246.726 58.1669 246.398C58.0666 246.071 57.4435 245.971 56.7751 246.176C56.1068 246.38 55.6463 246.812 55.7466 247.139C55.8469 247.467 56.47 247.567 57.1384 247.362Z" fill="#FFBD9C"/>
<path d="M147.186 192.293C147.607 192.375 148.017 192.13 148.102 191.746C148.187 191.361 147.915 190.982 147.495 190.9C147.074 190.817 146.665 191.062 146.579 191.447C146.494 191.832 146.766 192.21 147.186 192.293Z" fill="white"/>
<path d="M170.671 192.677C171.092 192.76 171.502 192.515 171.587 192.13C171.672 191.745 171.4 191.367 170.98 191.284C170.56 191.202 170.15 191.447 170.064 191.831C169.979 192.216 170.251 192.595 170.671 192.677Z" fill="white"/>
<path d="M230.731 192.293C231.152 192.375 231.562 192.13 231.647 191.746C231.732 191.361 231.46 190.982 231.04 190.9C230.619 190.817 230.209 191.062 230.124 191.447C230.039 191.832 230.311 192.21 230.731 192.293Z" fill="white"/>
<path d="M307.731 192.293C308.152 192.375 308.562 192.13 308.647 191.746C308.732 191.361 308.46 190.982 308.04 190.9C307.619 190.817 307.209 191.062 307.124 191.447C307.039 191.832 307.311 192.21 307.731 192.293Z" fill="white"/>
<path d="M148.909 187.86C149.982 186.852 151.625 186.21 152.581 186.425C153.536 186.64 153.442 187.629 152.372 188.636C151.302 189.644 149.656 190.287 148.7 190.072C147.745 189.856 147.839 188.867 148.909 187.86Z" fill="white"/>
<path d="M172.394 188.245C173.467 187.237 175.11 186.595 176.066 186.81C177.021 187.025 176.927 188.014 175.857 189.022C174.787 190.029 173.141 190.672 172.185 190.457C171.23 190.242 171.324 189.252 172.394 188.245Z" fill="white"/>
<path d="M232.454 187.86C233.527 186.852 235.17 186.21 236.126 186.425C237.081 186.64 236.987 187.629 235.917 188.636C234.847 189.644 233.201 190.287 232.246 190.072C231.29 189.856 231.384 188.867 232.454 187.86Z" fill="white"/>
<path d="M309.454 187.86C310.527 186.852 312.17 186.21 313.126 186.425C314.081 186.64 313.987 187.629 312.917 188.636C311.847 189.644 310.201 190.287 309.246 190.072C308.29 189.856 308.384 188.867 309.454 187.86Z" fill="white"/>
<path d="M270.323 194.495C270.708 194.521 271.048 194.256 271.081 193.902C271.114 193.548 270.828 193.24 270.442 193.214C270.057 193.187 269.718 193.453 269.685 193.806C269.652 194.16 269.938 194.468 270.323 194.495Z" fill="white"/>
<path d="M272.186 190.009C273.484 188.804 275.529 187.831 276.756 187.835C277.983 187.839 277.927 188.816 276.633 190.02C275.339 191.223 273.29 192.197 272.063 192.193C270.837 192.189 270.893 191.212 272.186 190.009Z" fill="white"/>
<path d="M297.285 245.384C298.22 244.4 298.681 243.32 298.315 242.971C297.948 242.623 296.893 243.138 295.958 244.122C295.023 245.106 294.562 246.186 294.929 246.535C295.295 246.883 296.35 246.368 297.285 245.384Z" fill="#FFBD9C"/>
<path d="M320.001 246.924C320.936 245.94 321.396 244.86 321.03 244.511C320.663 244.163 319.608 244.678 318.673 245.662C317.738 246.646 317.277 247.726 317.644 248.075C318.01 248.423 319.066 247.908 320.001 246.924Z" fill="#FFBD9C"/>
<path d="M293.411 247.57C293.806 247.449 294.047 247.091 293.949 246.77C293.851 246.45 293.451 246.288 293.055 246.409C292.66 246.53 292.419 246.888 292.518 247.209C292.616 247.529 293.016 247.691 293.411 247.57Z" fill="#FFBD9C"/>
</g>
<path d="M60.0772 271.112C62.2948 268.956 64.9641 267.878 68.0852 267.878C70.9393 267.878 73.0953 268.391 74.5532 269.418V275.855C73.8756 275.485 73.3314 275.198 72.9208 274.992C72.5101 274.787 71.8428 274.582 70.9188 274.376C69.9948 274.151 69.0092 274.038 67.962 274.038C66.4836 274.038 65.2618 274.5 64.2968 275.424C63.3522 276.348 62.88 277.528 62.88 278.966C62.88 280.382 63.3625 281.553 64.3276 282.477C65.2926 283.401 66.5041 283.863 67.962 283.863C69.0092 283.863 69.9948 283.76 70.9188 283.555C71.8428 283.35 72.4998 283.165 72.89 283C73.2801 282.816 73.8345 282.538 74.5532 282.169V288.514C73.1364 289.52 70.9804 290.023 68.0852 290.023C64.9641 290.023 62.2845 288.945 60.0464 286.789C57.8288 284.612 56.72 282.005 56.72 278.966C56.72 275.906 57.839 273.288 60.0772 271.112ZM86.8594 268.186H92.7114V276.563H98.8714V268.186H104.723V289.746H98.8714V281.799H92.7114V289.746H86.8594V268.186ZM123.864 268.186H130.917L138.217 289.746H131.811L130.979 287.097H123.803L122.971 289.746H116.565L123.864 268.186ZM129.347 281.861L127.406 275.516L125.435 281.861H129.347ZM150.08 268.186H155.932V284.202H162.523V289.746H150.08V268.186ZM174.667 268.186H180.519V284.202H187.11V289.746H174.667V268.186ZM199.254 268.186H210.866V273.73H205.106V275.27H209.326V280.814H205.106V284.202H211.79V289.746H199.254V268.186ZM223.962 289.746V268.186H230.152L236.158 279.058V268.186H242.01V289.746H235.758L229.814 278.996V289.746H223.962ZM257.482 271.142C259.699 268.966 262.379 267.878 265.52 267.878C268.374 267.878 270.53 268.391 271.988 269.418V275.855C271.311 275.485 270.767 275.198 270.356 274.992C269.945 274.787 269.278 274.582 268.354 274.376C267.43 274.151 266.444 274.038 265.397 274.038C264.001 274.038 262.8 274.52 261.794 275.485C260.808 276.45 260.315 277.61 260.315 278.966C260.315 280.403 260.787 281.584 261.732 282.508C262.697 283.411 264.145 283.863 266.075 283.863C266.424 283.863 266.906 283.842 267.522 283.801V278.473H273.374V288.514C271.958 289.52 269.658 290.023 266.475 290.023C262.738 290.023 259.75 288.965 257.512 286.85C255.274 284.736 254.155 282.107 254.155 278.966C254.155 275.927 255.264 273.319 257.482 271.142ZM286.31 268.186H297.921V273.73H292.162V275.27H296.381V280.814H292.162V284.202H298.845V289.746H286.31V268.186Z" fill="#9C9FAB"/>
<path d="M58.9221 269.957C61.1397 267.801 63.8091 266.723 66.9301 266.723C69.7843 266.723 71.9403 267.236 73.3981 268.263V274.7C72.7205 274.33 72.1764 274.043 71.7657 273.838C71.3551 273.632 70.6877 273.427 69.7637 273.222C68.8397 272.996 67.8541 272.883 66.8069 272.883C65.3285 272.883 64.1068 273.345 63.1417 274.269C62.1972 275.193 61.7249 276.374 61.7249 277.811C61.7249 279.228 62.2075 280.398 63.1725 281.322C64.1376 282.246 65.3491 282.708 66.8069 282.708C67.8541 282.708 68.8397 282.605 69.7637 282.4C70.6877 282.195 71.3448 282.01 71.7349 281.846C72.1251 281.661 72.6795 281.384 73.3981 281.014V287.359C71.9813 288.365 69.8253 288.868 66.9301 288.868C63.8091 288.868 61.1295 287.79 58.8913 285.634C56.6737 283.458 55.5649 280.85 55.5649 277.811C55.5649 274.751 56.684 272.133 58.9221 269.957ZM85.7044 267.031H91.5564V275.408H97.7164V267.031H103.568V288.591H97.7164V280.644H91.5564V288.591H85.7044V267.031ZM122.709 267.031H129.762L137.062 288.591H130.656L129.824 285.942H122.648L121.816 288.591H115.41L122.709 267.031ZM128.192 280.706L126.251 274.361L124.28 280.706H128.192ZM148.925 267.031H154.777V283.047H161.368V288.591H148.925V267.031ZM173.512 267.031H179.364V283.047H185.955V288.591H173.512V267.031ZM198.099 267.031H209.711V272.575H203.951V274.115H208.171V279.659H203.951V283.047H210.635V288.591H198.099V267.031ZM222.807 288.591V267.031H228.997L235.003 277.903V267.031H240.855V288.591H234.603L228.659 277.842V288.591H222.807ZM256.327 269.988C258.544 267.811 261.224 266.723 264.365 266.723C267.219 266.723 269.375 267.236 270.833 268.263V274.7C270.156 274.33 269.612 274.043 269.201 273.838C268.79 273.632 268.123 273.427 267.199 273.222C266.275 272.996 265.289 272.883 264.242 272.883C262.846 272.883 261.645 273.365 260.639 274.33C259.653 275.296 259.16 276.456 259.16 277.811C259.16 279.248 259.632 280.429 260.577 281.353C261.542 282.256 262.99 282.708 264.92 282.708C265.269 282.708 265.751 282.688 266.367 282.646V277.318H272.219V287.359C270.803 288.365 268.503 288.868 265.32 288.868C261.583 288.868 258.595 287.811 256.357 285.696C254.119 283.581 253 280.952 253 277.811C253 274.772 254.109 272.164 256.327 269.988ZM285.155 267.031H296.766V272.575H291.007V274.115H295.226V279.659H291.007V283.047H297.69V288.591H285.155V267.031Z" fill="url(#paint2_linear_2_3601)"/>
<g filter="url(#filter1_df_2_3601)">
<path d="M76.7401 213.466C77.0744 215.725 77.8323 216.729 80.9751 217.701C78.1214 218.197 77.1289 219.277 76.7401 221.936C76.0564 219.306 75.4406 218.068 72.5051 217.701C75.2453 216.673 76.1554 215.739 76.7401 213.466Z" fill="#FFFFA1"/>
</g>
<g filter="url(#filter2_df_2_3601)">
<path d="M171.065 238.876C171.399 241.135 172.157 242.139 175.3 243.111C172.446 243.607 171.454 244.687 171.065 247.346C170.381 244.715 169.765 243.478 166.83 243.111C169.57 242.083 170.48 241.149 171.065 238.876Z" fill="white"/>
</g>
<g filter="url(#filter3_df_2_3601)">
<path d="M254.995 202.685C255.329 204.944 256.087 205.949 259.23 206.92C256.376 207.416 255.384 208.497 254.995 211.155C254.311 208.525 253.695 207.287 250.76 206.92C253.5 205.893 254.41 204.958 254.995 202.685Z" fill="white"/>
</g>
<g filter="url(#filter4_df_2_3601)">
<path d="M37.0849 251.581C37.3584 253.429 37.9785 254.251 40.5499 255.046C38.215 255.451 37.403 256.336 37.0849 258.511C36.5255 256.359 36.0216 255.346 33.6199 255.046C35.8618 254.205 36.6064 253.44 37.0849 251.581Z" fill="white"/>
</g>
<g filter="url(#filter5_df_2_3601)">
<path d="M332.765 229.636C333.099 231.895 333.857 232.899 337 233.871C334.146 234.367 333.154 235.447 332.765 238.106C332.081 235.476 331.465 234.238 328.53 233.871C331.27 232.843 332.18 231.909 332.765 229.636Z" fill="#FFFFA1"/>
</g>
<defs>
<filter id="filter0_d_2_3601" x="22.2241" y="176.323" width="315.06" height="88.2579" filterUnits="userSpaceOnUse" color-interpolation-filters="sRGB">
<feFlood flood-opacity="0" result="BackgroundImageFix"/>
<feColorMatrix in="SourceAlpha" type="matrix" values="0 0 0 0 0 0 0 0 0 0 0 0 0 0 0 0 0 0 127 0" result="hardAlpha"/>
<feOffset/>
<feGaussianBlur stdDeviation="3.85"/>
<feComposite in2="hardAlpha" operator="out"/>
<feColorMatrix type="matrix" values="0 0 0 0 1 0 0 0 0 1 0 0 0 0 0 0 0 0 0.8 0"/>
<feBlend mode="normal" in2="BackgroundImageFix" result="effect1_dropShadow_2_3601"/>
<feBlend mode="normal" in="SourceGraphic" in2="effect1_dropShadow_2_3601" result="shape"/>
</filter>
<filter id="filter1_df_2_3601" x="66.7301" y="207.691" width="20.02" height="20.02" filterUnits="userSpaceOnUse" color-interpolation-filters="sRGB">
<feFlood flood-opacity="0" result="BackgroundImageFix"/>
<feColorMatrix in="SourceAlpha" type="matrix" values="0 0 0 0 0 0 0 0 0 0 0 0 0 0 0 0 0 0 127 0" result="hardAlpha"/>
<feOffset/>
<feGaussianBlur stdDeviation="2.8875"/>
<feComposite in2="hardAlpha" operator="out"/>
<feColorMatrix type="matrix" values="0 0 0 0 0.952941 0 0 0 0 0.0980392 0 0 0 0 0.262745 0 0 0 1 0"/>
<feBlend mode="normal" in2="BackgroundImageFix" result="effect1_dropShadow_2_3601"/>
<feBlend mode="normal" in="SourceGraphic" in2="effect1_dropShadow_2_3601" result="shape"/>
<feGaussianBlur stdDeviation="0.3465" result="effect2_foregroundBlur_2_3601"/>
</filter>
<filter id="filter2_df_2_3601" x="161.055" y="233.101" width="20.02" height="20.02" filterUnits="userSpaceOnUse" color-interpolation-filters="sRGB">
<feFlood flood-opacity="0" result="BackgroundImageFix"/>
<feColorMatrix in="SourceAlpha" type="matrix" values="0 0 0 0 0 0 0 0 0 0 0 0 0 0 0 0 0 0 127 0" result="hardAlpha"/>
<feOffset/>
<feGaussianBlur stdDeviation="2.8875"/>
<feComposite in2="hardAlpha" operator="out"/>
<feColorMatrix type="matrix" values="0 0 0 0 1 0 0 0 0 1 0 0 0 0 0.498039 0 0 0 1 0"/>
<feBlend mode="normal" in2="BackgroundImageFix" result="effect1_dropShadow_2_3601"/>
<feBlend mode="normal" in="SourceGraphic" in2="effect1_dropShadow_2_3601" result="shape"/>
<feGaussianBlur stdDeviation="0.3465" result="effect2_foregroundBlur_2_3601"/>
</filter>
<filter id="filter3_df_2_3601" x="244.985" y="196.91" width="20.02" height="20.02" filterUnits="userSpaceOnUse" color-interpolation-filters="sRGB">
<feFlood flood-opacity="0" result="BackgroundImageFix"/>
<feColorMatrix in="SourceAlpha" type="matrix" values="0 0 0 0 0 0 0 0 0 0 0 0 0 0 0 0 0 0 127 0" result="hardAlpha"/>
<feOffset/>
<feGaussianBlur stdDeviation="2.8875"/>
<feComposite in2="hardAlpha" operator="out"/>
<feColorMatrix type="matrix" values="0 0 0 0 1 0 0 0 0 1 0 0 0 0 0.498039 0 0 0 1 0"/>
<feBlend mode="normal" in2="BackgroundImageFix" result="effect1_dropShadow_2_3601"/>
<feBlend mode="normal" in="SourceGraphic" in2="effect1_dropShadow_2_3601" result="shape"/>
<feGaussianBlur stdDeviation="0.3465" result="effect2_foregroundBlur_2_3601"/>
</filter>
<filter id="filter4_df_2_3601" x="27.8449" y="245.806" width="18.4799" height="18.48" filterUnits="userSpaceOnUse" color-interpolation-filters="sRGB">
<feFlood flood-opacity="0" result="BackgroundImageFix"/>
<feColorMatrix in="SourceAlpha" type="matrix" values="0 0 0 0 0 0 0 0 0 0 0 0 0 0 0 0 0 0 127 0" result="hardAlpha"/>
<feOffset/>
<feGaussianBlur stdDeviation="2.8875"/>
<feComposite in2="hardAlpha" operator="out"/>
<feColorMatrix type="matrix" values="0 0 0 0 1 0 0 0 0 1 0 0 0 0 0.498039 0 0 0 1 0"/>
<feBlend mode="normal" in2="BackgroundImageFix" result="effect1_dropShadow_2_3601"/>
<feBlend mode="normal" in="SourceGraphic" in2="effect1_dropShadow_2_3601" result="shape"/>
<feGaussianBlur stdDeviation="0.3465" result="effect2_foregroundBlur_2_3601"/>
</filter>
<filter id="filter5_df_2_3601" x="322.755" y="223.861" width="20.02" height="20.02" filterUnits="userSpaceOnUse" color-interpolation-filters="sRGB">
<feFlood flood-opacity="0" result="BackgroundImageFix"/>
<feColorMatrix in="SourceAlpha" type="matrix" values="0 0 0 0 0 0 0 0 0 0 0 0 0 0 0 0 0 0 127 0" result="hardAlpha"/>
<feOffset/>
<feGaussianBlur stdDeviation="2.8875"/>
<feComposite in2="hardAlpha" operator="out"/>
<feColorMatrix type="matrix" values="0 0 0 0 0.952941 0 0 0 0 0.0980392 0 0 0 0 0.262745 0 0 0 1 0"/>
<feBlend mode="normal" in2="BackgroundImageFix" result="effect1_dropShadow_2_3601"/>
<feBlend mode="normal" in="SourceGraphic" in2="effect1_dropShadow_2_3601" result="shape"/>
<feGaussianBlur stdDeviation="0.3465" result="effect2_foregroundBlur_2_3601"/>
</filter>
<radialGradient id="paint0_radial_2_3601" cx="0" cy="0" r="1" gradientUnits="userSpaceOnUse" gradientTransform="translate(182.5 217) rotate(90.0965) scale(297 249.781)">
<stop offset="0.165" stop-color="#F073FE"/>
<stop offset="0.29" stop-color="#C282F2"/>
<stop offset="1" stop-color="#2F0066"/>
</radialGradient>
<linearGradient id="paint1_linear_2_3601" x1="177.307" y1="175.35" x2="177.307" y2="249.531" gradientUnits="userSpaceOnUse">
<stop stop-color="#FFF7DD"/>
<stop offset="0.155" stop-color="#FFFF9E"/>
<stop offset="0.48" stop-color="#FFD41E"/>
<stop offset="0.84" stop-color="#FF9B10"/>
<stop offset="0.98" stop-color="#FF5601"/>
</linearGradient>
<linearGradient id="paint2_linear_2_3601" x1="188.317" y1="270.691" x2="188.018" y2="300.59" gradientUnits="userSpaceOnUse">
<stop stop-color="white"/>
<stop offset="0.345" stop-color="#DEDEDE"/>
<stop offset="0.46" stop-color="#FDFDFD"/>
<stop offset="0.565" stop-color="#C3C3C3"/>
<stop offset="0.675" stop-color="#E7E7E7"/>
<stop offset="0.79" stop-color="#C8C8C8"/>
<stop offset="0.9" stop-color="#D9D9D9"/>
<stop offset="1" stop-color="#999999"/>
</linearGradient>
</defs>
</svg>
