<svg width="366" height="92" viewBox="0 0 366 92" fill="none" xmlns="http://www.w3.org/2000/svg">
<rect x="1" y="0.539062" width="365" height="90" rx="13" fill="#F9E2A6"/>
<path d="M131.917 58.8051C129.409 58.8051 127.104 58.2224 125.001 57.0571C122.924 55.8917 121.265 54.2704 120.023 52.1931C118.807 50.0904 118.199 47.7344 118.199 45.1251C118.199 42.5157 118.807 40.1724 120.023 38.0951C121.265 36.0177 122.924 34.3964 125.001 33.2311C127.104 32.0657 129.409 31.4831 131.917 31.4831C134.425 31.4831 136.718 32.0657 138.795 33.2311C140.898 34.3964 142.545 36.0177 143.735 38.0951C144.951 40.1724 145.559 42.5157 145.559 45.1251C145.559 47.7344 144.951 50.0904 143.735 52.1931C142.519 54.2704 140.873 55.8917 138.795 57.0571C136.718 58.2224 134.425 58.8051 131.917 58.8051ZM131.917 52.8771C134.045 52.8771 135.743 52.1677 137.009 50.7491C138.301 49.3304 138.947 47.4557 138.947 45.1251C138.947 42.7691 138.301 40.8944 137.009 39.5011C135.743 38.0824 134.045 37.3731 131.917 37.3731C129.764 37.3731 128.041 38.0697 126.749 39.4631C125.483 40.8564 124.849 42.7437 124.849 45.1251C124.849 47.4811 125.483 49.3684 126.749 50.7871C128.041 52.1804 129.764 52.8771 131.917 52.8771ZM155.672 40.3371C156.306 39.3491 157.18 38.5511 158.294 37.9431C159.409 37.3351 160.714 37.0311 162.208 37.0311C163.956 37.0311 165.54 37.4744 166.958 38.3611C168.377 39.2477 169.492 40.5144 170.302 42.1611C171.138 43.8077 171.556 45.7204 171.556 47.8991C171.556 50.0777 171.138 52.0031 170.302 53.6751C169.492 55.3217 168.377 56.6011 166.958 57.5131C165.54 58.3997 163.956 58.8431 162.208 58.8431C160.739 58.8431 159.434 58.5391 158.294 57.9311C157.18 57.3231 156.306 56.5377 155.672 55.5751V68.6471H149.174V37.3351H155.672V40.3371ZM164.944 47.8991C164.944 46.2777 164.488 45.0111 163.576 44.0991C162.69 43.1617 161.588 42.6931 160.27 42.6931C158.978 42.6931 157.876 43.1617 156.964 44.0991C156.078 45.0364 155.634 46.3157 155.634 47.9371C155.634 49.5584 156.078 50.8377 156.964 51.7751C157.876 52.7124 158.978 53.1811 160.27 53.1811C161.562 53.1811 162.664 52.7124 163.576 51.7751C164.488 50.8124 164.944 49.5204 164.944 47.8991ZM186.783 53.0291V58.5391H183.477C181.121 58.5391 179.285 57.9691 177.967 56.8291C176.65 55.6637 175.991 53.7764 175.991 51.1671V42.7311H173.407V37.3351H175.991V32.1671H182.489V37.3351H186.745V42.7311H182.489V51.2431C182.489 51.8764 182.641 52.3324 182.945 52.6111C183.249 52.8897 183.756 53.0291 184.465 53.0291H186.783ZM193.671 35.1311C192.531 35.1311 191.594 34.8017 190.859 34.1431C190.15 33.4591 189.795 32.6231 189.795 31.6351C189.795 30.6217 190.15 29.7857 190.859 29.1271C191.594 28.4431 192.531 28.1011 193.671 28.1011C194.786 28.1011 195.698 28.4431 196.407 29.1271C197.142 29.7857 197.509 30.6217 197.509 31.6351C197.509 32.6231 197.142 33.4591 196.407 34.1431C195.698 34.8017 194.786 35.1311 193.671 35.1311ZM196.901 37.3351V58.5391H190.403V37.3351H196.901ZM211.262 58.8431C209.185 58.8431 207.31 58.3997 205.638 57.5131C203.991 56.6264 202.687 55.3597 201.724 53.7131C200.787 52.0664 200.318 50.1411 200.318 47.9371C200.318 45.7584 200.799 43.8457 201.762 42.1991C202.725 40.5271 204.042 39.2477 205.714 38.3611C207.386 37.4744 209.261 37.0311 211.338 37.0311C213.415 37.0311 215.29 37.4744 216.962 38.3611C218.634 39.2477 219.951 40.5271 220.914 42.1991C221.877 43.8457 222.358 45.7584 222.358 47.9371C222.358 50.1157 221.864 52.0411 220.876 53.7131C219.913 55.3597 218.583 56.6264 216.886 57.5131C215.214 58.3997 213.339 58.8431 211.262 58.8431ZM211.262 53.2191C212.503 53.2191 213.555 52.7631 214.416 51.8511C215.303 50.9391 215.746 49.6344 215.746 47.9371C215.746 46.2397 215.315 44.9351 214.454 44.0231C213.618 43.1111 212.579 42.6551 211.338 42.6551C210.071 42.6551 209.02 43.1111 208.184 44.0231C207.348 44.9097 206.93 46.2144 206.93 47.9371C206.93 49.6344 207.335 50.9391 208.146 51.8511C208.982 52.7631 210.021 53.2191 211.262 53.2191ZM238.725 37.1071C241.208 37.1071 243.184 37.9177 244.653 39.5391C246.148 41.1351 246.895 43.3391 246.895 46.1511V58.5391H240.435V47.0251C240.435 45.6064 240.068 44.5044 239.333 43.7191C238.599 42.9337 237.611 42.5411 236.369 42.5411C235.128 42.5411 234.14 42.9337 233.405 43.7191C232.671 44.5044 232.303 45.6064 232.303 47.0251V58.5391H225.805V37.3351H232.303V40.1471C232.962 39.2097 233.849 38.4751 234.963 37.9431C236.078 37.3857 237.332 37.1071 238.725 37.1071Z" fill="#622C34"/>
<path d="M37.8855 43.86L37.0455 47.79H40.6455V52.41H36.0555L35.0655 57H30.2655L31.2555 52.41H26.2755L25.2855 57H20.4855L21.4755 52.41H17.0355V47.79H22.4655L23.3055 43.86H18.9555V39.24H24.2655L25.2255 34.8H30.0255L29.0655 39.24H34.0455L35.0055 34.8H39.8055L38.8455 39.24H42.5655V43.86H37.8855ZM33.0855 43.86H28.1055L27.2655 47.79H32.2455L33.0855 43.86Z" fill="#622C34"/>
</svg>
