<svg width="475" height="92" viewBox="0 0 475 92" fill="none" xmlns="http://www.w3.org/2000/svg">
<rect x="4.17139" y="2.63354" width="467.022" height="85.99" rx="15.5" fill="url(#paint0_linear_2_2324)" stroke="#0264A6" stroke-width="5"/>
<path d="M10.9501 21.5849C11.9801 21.6855 12.9316 21.1807 13.0753 20.4574C13.2191 19.7341 12.5006 19.0662 11.4706 18.9655C10.4407 18.8649 9.48918 19.3697 9.34544 20.093C9.20169 20.8163 9.92013 21.4842 10.9501 21.5849Z" fill="white"/>
<path d="M45.4239 10.5935C49.0077 10.5935 51.913 9.77865 51.913 8.77349C51.913 7.76833 49.0077 6.95349 45.4239 6.95349C41.8401 6.95349 38.9348 7.76833 38.9348 8.77349C38.9348 9.77865 41.8401 10.5935 45.4239 10.5935Z" fill="white"/>
<path d="M17.2779 11.6136C22.0447 9.1383 29.064 7.6313 32.9586 8.24678C36.8532 8.86227 36.1518 11.363 31.3974 13.8369C26.643 16.3108 19.6113 17.8192 15.7167 17.2037C11.8221 16.5882 12.5235 14.0875 17.2779 11.6136Z" fill="white"/>
<path d="M72.1466 42.3912C73.692 42.7205 74.9333 43.4932 75.8706 44.7092C76.808 45.8998 77.2766 47.2678 77.2766 48.8132C77.2766 51.0425 76.4913 52.8158 74.9206 54.1332C73.3753 55.4252 71.2093 56.0712 68.4226 56.0712H55.9966V29.3952H68.0046C70.7153 29.3952 72.8306 30.0158 74.3506 31.2572C75.896 32.4985 76.6686 34.1832 76.6686 36.3112C76.6686 37.8818 76.2506 39.1865 75.4146 40.2252C74.604 41.2638 73.5146 41.9858 72.1466 42.3912ZM62.4946 40.1872H66.7506C67.8146 40.1872 68.6253 39.9592 69.1826 39.5032C69.7653 39.0218 70.0566 38.3252 70.0566 37.4132C70.0566 36.5012 69.7653 35.8045 69.1826 35.3232C68.6253 34.8418 67.8146 34.6012 66.7506 34.6012H62.4946V40.1872ZM67.2826 50.8272C68.372 50.8272 69.208 50.5865 69.7906 50.1052C70.3986 49.5985 70.7026 48.8765 70.7026 47.9392C70.7026 47.0018 70.386 46.2672 69.7526 45.7352C69.1446 45.2032 68.296 44.9372 67.2066 44.9372H62.4946V50.8272H67.2826ZM79.7535 45.4312C79.7535 43.2525 80.1588 41.3398 80.9695 39.6932C81.8055 38.0465 82.9328 36.7798 84.3515 35.8932C85.7701 35.0065 87.3535 34.5632 89.1015 34.5632C90.5961 34.5632 91.9008 34.8672 93.0155 35.4752C94.1555 36.0832 95.0295 36.8812 95.6375 37.8692V34.8672H102.135V56.0712H95.6375V53.0692C95.0041 54.0572 94.1175 54.8552 92.9775 55.4632C91.8628 56.0712 90.5581 56.3752 89.0635 56.3752C87.3408 56.3752 85.7701 55.9318 84.3515 55.0452C82.9328 54.1332 81.8055 52.8538 80.9695 51.2072C80.1588 49.5352 79.7535 47.6098 79.7535 45.4312ZM95.6375 45.4692C95.6375 43.8478 95.1815 42.5685 94.2695 41.6312C93.3828 40.6938 92.2935 40.2252 91.0015 40.2252C89.7095 40.2252 88.6075 40.6938 87.6955 41.6312C86.8088 42.5432 86.3655 43.8098 86.3655 45.4312C86.3655 47.0525 86.8088 48.3445 87.6955 49.3072C88.6075 50.2445 89.7095 50.7132 91.0015 50.7132C92.2935 50.7132 93.3828 50.2445 94.2695 49.3072C95.1815 48.3698 95.6375 47.0905 95.6375 45.4692ZM105.544 45.4692C105.544 43.2652 105.988 41.3398 106.874 39.6932C107.786 38.0465 109.04 36.7798 110.636 35.8932C112.258 35.0065 114.107 34.5632 116.184 34.5632C118.844 34.5632 121.061 35.2598 122.834 36.6532C124.633 38.0465 125.811 40.0098 126.368 42.5432H119.452C118.87 40.9218 117.742 40.1112 116.07 40.1112C114.88 40.1112 113.93 40.5798 113.22 41.5172C112.511 42.4292 112.156 43.7465 112.156 45.4692C112.156 47.1918 112.511 48.5218 113.22 49.4592C113.93 50.3712 114.88 50.8272 116.07 50.8272C117.742 50.8272 118.87 50.0165 119.452 48.3952H126.368C125.811 50.8778 124.633 52.8285 122.834 54.2472C121.036 55.6658 118.819 56.3752 116.184 56.3752C114.107 56.3752 112.258 55.9318 110.636 55.0452C109.04 54.1585 107.786 52.8918 106.874 51.2452C105.988 49.5985 105.544 47.6732 105.544 45.4692ZM142.802 56.0712L136.342 47.1792V56.0712H129.844V27.9512H136.342V43.4932L142.764 34.8672H150.782L141.966 45.5072L150.858 56.0712H142.802ZM173.205 50.5612V56.0712H169.899C167.543 56.0712 165.707 55.5012 164.389 54.3612C163.072 53.1958 162.413 51.3085 162.413 48.6992V40.2632H159.829V34.8672H162.413V29.6992H168.911V34.8672H173.167V40.2632H168.911V48.7752C168.911 49.4085 169.063 49.8645 169.367 50.1432C169.671 50.4218 170.178 50.5612 170.887 50.5612H173.205ZM186.477 56.3752C184.399 56.3752 182.525 55.9318 180.853 55.0452C179.206 54.1585 177.901 52.8918 176.939 51.2452C176.001 49.5985 175.533 47.6732 175.533 45.4692C175.533 43.2905 176.014 41.3778 176.977 39.7312C177.939 38.0592 179.257 36.7798 180.929 35.8932C182.601 35.0065 184.475 34.5632 186.553 34.5632C188.63 34.5632 190.505 35.0065 192.177 35.8932C193.849 36.7798 195.166 38.0592 196.129 39.7312C197.091 41.3778 197.573 43.2905 197.573 45.4692C197.573 47.6478 197.079 49.5732 196.091 51.2452C195.128 52.8918 193.798 54.1585 192.101 55.0452C190.429 55.9318 188.554 56.3752 186.477 56.3752ZM186.477 50.7512C187.718 50.7512 188.769 50.2952 189.631 49.3832C190.517 48.4712 190.961 47.1665 190.961 45.4692C190.961 43.7718 190.53 42.4672 189.669 41.5552C188.833 40.6432 187.794 40.1872 186.553 40.1872C185.286 40.1872 184.235 40.6432 183.399 41.5552C182.563 42.4418 182.145 43.7465 182.145 45.4692C182.145 47.1665 182.55 48.4712 183.361 49.3832C184.197 50.2952 185.235 50.7512 186.477 50.7512ZM207.971 42.6952C207.971 40.0605 208.541 37.7172 209.681 35.6652C210.821 33.5878 212.404 31.9792 214.431 30.8392C216.483 29.6738 218.801 29.0912 221.385 29.0912C224.551 29.0912 227.262 29.9272 229.517 31.5992C231.771 33.2712 233.279 35.5512 234.039 38.4392H226.895C226.363 37.3245 225.603 36.4758 224.615 35.8932C223.652 35.3105 222.55 35.0192 221.309 35.0192C219.307 35.0192 217.686 35.7158 216.445 37.1092C215.203 38.5025 214.583 40.3645 214.583 42.6952C214.583 45.0258 215.203 46.8878 216.445 48.2812C217.686 49.6745 219.307 50.3712 221.309 50.3712C222.55 50.3712 223.652 50.0798 224.615 49.4972C225.603 48.9145 226.363 48.0658 226.895 46.9512H234.039C233.279 49.8392 231.771 52.1192 229.517 53.7912C227.262 55.4378 224.551 56.2612 221.385 56.2612C218.801 56.2612 216.483 55.6912 214.431 54.5512C212.404 53.3858 210.821 51.7772 209.681 49.7252C208.541 47.6732 207.971 45.3298 207.971 42.6952ZM236.726 45.4312C236.726 43.2525 237.131 41.3398 237.942 39.6932C238.778 38.0465 239.905 36.7798 241.324 35.8932C242.743 35.0065 244.326 34.5632 246.074 34.5632C247.569 34.5632 248.873 34.8672 249.988 35.4752C251.128 36.0832 252.002 36.8812 252.61 37.8692V34.8672H259.108V56.0712H252.61V53.0692C251.977 54.0572 251.09 54.8552 249.95 55.4632C248.835 56.0712 247.531 56.3752 246.036 56.3752C244.313 56.3752 242.743 55.9318 241.324 55.0452C239.905 54.1332 238.778 52.8538 237.942 51.2072C237.131 49.5352 236.726 47.6098 236.726 45.4312ZM252.61 45.4692C252.61 43.8478 252.154 42.5685 251.242 41.6312C250.355 40.6938 249.266 40.2252 247.974 40.2252C246.682 40.2252 245.58 40.6938 244.668 41.6312C243.781 42.5432 243.338 43.8098 243.338 45.4312C243.338 47.0525 243.781 48.3445 244.668 49.3072C245.58 50.2445 246.682 50.7132 247.974 50.7132C249.266 50.7132 250.355 50.2445 251.242 49.3072C252.154 48.3698 252.61 47.0905 252.61 45.4692ZM275.627 50.5612V56.0712H272.321C269.965 56.0712 268.128 55.5012 266.811 54.3612C265.494 53.1958 264.835 51.3085 264.835 48.6992V40.2632H262.251V34.8672H264.835V29.6992H271.333V34.8672H275.589V40.2632H271.333V48.7752C271.333 49.4085 271.485 49.8645 271.789 50.1432C272.093 50.4218 272.6 50.5612 273.309 50.5612H275.627ZM299.235 45.1272C299.235 45.7352 299.197 46.3685 299.121 47.0272H284.415C284.516 48.3445 284.934 49.3578 285.669 50.0672C286.429 50.7512 287.353 51.0932 288.443 51.0932C290.064 51.0932 291.191 50.4092 291.825 49.0412H298.741C298.386 50.4345 297.74 51.6885 296.803 52.8032C295.891 53.9178 294.738 54.7918 293.345 55.4252C291.951 56.0585 290.393 56.3752 288.671 56.3752C286.593 56.3752 284.744 55.9318 283.123 55.0452C281.501 54.1585 280.235 52.8918 279.323 51.2452C278.411 49.5985 277.955 47.6732 277.955 45.4692C277.955 43.2652 278.398 41.3398 279.285 39.6932C280.197 38.0465 281.463 36.7798 283.085 35.8932C284.706 35.0065 286.568 34.5632 288.671 34.5632C290.723 34.5632 292.547 34.9938 294.143 35.8552C295.739 36.7165 296.98 37.9452 297.867 39.5412C298.779 41.1372 299.235 42.9992 299.235 45.1272ZM292.585 43.4172C292.585 42.3025 292.205 41.4158 291.445 40.7572C290.685 40.0985 289.735 39.7692 288.595 39.7692C287.505 39.7692 286.581 40.0858 285.821 40.7192C285.086 41.3525 284.63 42.2518 284.453 43.4172H292.585ZM310.719 34.5632C312.213 34.5632 313.518 34.8672 314.633 35.4752C315.773 36.0832 316.647 36.8812 317.255 37.8692V34.8672H323.753V56.0332C323.753 57.9838 323.36 59.7445 322.575 61.3152C321.815 62.9112 320.637 64.1778 319.041 65.1152C317.47 66.0525 315.507 66.5212 313.151 66.5212C310.009 66.5212 307.463 65.7738 305.513 64.2792C303.562 62.8098 302.447 60.8085 302.169 58.2752H308.591C308.793 59.0858 309.275 59.7192 310.035 60.1752C310.795 60.6565 311.732 60.8972 312.847 60.8972C314.189 60.8972 315.253 60.5045 316.039 59.7192C316.849 58.9592 317.255 57.7305 317.255 56.0332V53.0312C316.621 54.0192 315.747 54.8298 314.633 55.4632C313.518 56.0712 312.213 56.3752 310.719 56.3752C308.971 56.3752 307.387 55.9318 305.969 55.0452C304.55 54.1332 303.423 52.8538 302.587 51.2072C301.776 49.5352 301.371 47.6098 301.371 45.4312C301.371 43.2525 301.776 41.3398 302.587 39.6932C303.423 38.0465 304.55 36.7798 305.969 35.8932C307.387 35.0065 308.971 34.5632 310.719 34.5632ZM317.255 45.4692C317.255 43.8478 316.799 42.5685 315.887 41.6312C315 40.6938 313.911 40.2252 312.619 40.2252C311.327 40.2252 310.225 40.6938 309.313 41.6312C308.426 42.5432 307.983 43.8098 307.983 45.4312C307.983 47.0525 308.426 48.3445 309.313 49.3072C310.225 50.2445 311.327 50.7132 312.619 50.7132C313.911 50.7132 315 50.2445 315.887 49.3072C316.799 48.3698 317.255 47.0905 317.255 45.4692ZM338.106 56.3752C336.028 56.3752 334.154 55.9318 332.482 55.0452C330.835 54.1585 329.53 52.8918 328.568 51.2452C327.63 49.5985 327.162 47.6732 327.162 45.4692C327.162 43.2905 327.643 41.3778 328.606 39.7312C329.568 38.0592 330.886 36.7798 332.558 35.8932C334.23 35.0065 336.104 34.5632 338.182 34.5632C340.259 34.5632 342.134 35.0065 343.806 35.8932C345.478 36.7798 346.795 38.0592 347.758 39.7312C348.72 41.3778 349.202 43.2905 349.202 45.4692C349.202 47.6478 348.708 49.5732 347.72 51.2452C346.757 52.8918 345.427 54.1585 343.73 55.0452C342.058 55.9318 340.183 56.3752 338.106 56.3752ZM338.106 50.7512C339.347 50.7512 340.398 50.2952 341.26 49.3832C342.146 48.4712 342.59 47.1665 342.59 45.4692C342.59 43.7718 342.159 42.4672 341.298 41.5552C340.462 40.6432 339.423 40.1872 338.182 40.1872C336.915 40.1872 335.864 40.6432 335.028 41.5552C334.192 42.4418 333.774 43.7465 333.774 45.4692C333.774 47.1665 334.179 48.4712 334.99 49.3832C335.826 50.2952 336.864 50.7512 338.106 50.7512ZM359.147 38.4012C359.907 37.2358 360.857 36.3238 361.997 35.6652C363.137 34.9812 364.404 34.6392 365.797 34.6392V41.5172H364.011C362.39 41.5172 361.174 41.8718 360.363 42.5812C359.552 43.2652 359.147 44.4812 359.147 46.2292V56.0712H352.649V34.8672H359.147V38.4012ZM372.171 32.6632C371.031 32.6632 370.094 32.3338 369.359 31.6752C368.65 30.9912 368.295 30.1552 368.295 29.1672C368.295 28.1538 368.65 27.3178 369.359 26.6592C370.094 25.9752 371.031 25.6332 372.171 25.6332C373.286 25.6332 374.198 25.9752 374.907 26.6592C375.642 27.3178 376.009 28.1538 376.009 29.1672C376.009 30.1552 375.642 30.9912 374.907 31.6752C374.198 32.3338 373.286 32.6632 372.171 32.6632ZM375.401 34.8672V56.0712H368.903V34.8672H375.401ZM400.098 45.1272C400.098 45.7352 400.06 46.3685 399.984 47.0272H385.278C385.379 48.3445 385.797 49.3578 386.532 50.0672C387.292 50.7512 388.217 51.0932 389.306 51.0932C390.927 51.0932 392.055 50.4092 392.688 49.0412H399.604C399.249 50.4345 398.603 51.6885 397.666 52.8032C396.754 53.9178 395.601 54.7918 394.208 55.4252C392.815 56.0585 391.257 56.3752 389.534 56.3752C387.457 56.3752 385.607 55.9318 383.986 55.0452C382.365 54.1585 381.098 52.8918 380.186 51.2452C379.274 49.5985 378.818 47.6732 378.818 45.4692C378.818 43.2652 379.261 41.3398 380.148 39.6932C381.06 38.0465 382.327 36.7798 383.948 35.8932C385.569 35.0065 387.431 34.5632 389.534 34.5632C391.586 34.5632 393.41 34.9938 395.006 35.8552C396.602 36.7165 397.843 37.9452 398.73 39.5412C399.642 41.1372 400.098 42.9992 400.098 45.1272ZM393.448 43.4172C393.448 42.3025 393.068 41.4158 392.308 40.7572C391.548 40.0985 390.598 39.7692 389.458 39.7692C388.369 39.7692 387.444 40.0858 386.684 40.7192C385.949 41.3525 385.493 42.2518 385.316 43.4172H393.448ZM412.152 56.3752C410.303 56.3752 408.656 56.0585 407.212 55.4252C405.768 54.7918 404.628 53.9305 403.792 52.8412C402.956 51.7265 402.487 50.4852 402.386 49.1172H408.808C408.884 49.8518 409.226 50.4472 409.834 50.9032C410.442 51.3592 411.189 51.5872 412.076 51.5872C412.887 51.5872 413.507 51.4352 413.938 51.1312C414.394 50.8018 414.622 50.3838 414.622 49.8772C414.622 49.2692 414.305 48.8258 413.672 48.5472C413.039 48.2432 412.013 47.9138 410.594 47.5592C409.074 47.2045 407.807 46.8372 406.794 46.4572C405.781 46.0518 404.907 45.4312 404.172 44.5952C403.437 43.7338 403.07 42.5812 403.07 41.1372C403.07 39.9212 403.399 38.8192 404.058 37.8312C404.742 36.8178 405.73 36.0198 407.022 35.4372C408.339 34.8545 409.897 34.5632 411.696 34.5632C414.356 34.5632 416.446 35.2218 417.966 36.5392C419.511 37.8565 420.398 39.6045 420.626 41.7832H414.622C414.521 41.0485 414.191 40.4658 413.634 40.0352C413.102 39.6045 412.393 39.3892 411.506 39.3892C410.746 39.3892 410.163 39.5412 409.758 39.8452C409.353 40.1238 409.15 40.5165 409.15 41.0232C409.15 41.6312 409.467 42.0872 410.1 42.3912C410.759 42.6952 411.772 42.9992 413.14 43.3032C414.711 43.7085 415.99 44.1138 416.978 44.5192C417.966 44.8992 418.827 45.5325 419.562 46.4192C420.322 47.2805 420.715 48.4458 420.74 49.9152C420.74 51.1565 420.385 52.2712 419.676 53.2592C418.992 54.2218 417.991 54.9818 416.674 55.5392C415.382 56.0965 413.875 56.3752 412.152 56.3752Z" fill="white"/>
<path d="M428.118 82.6959C431.702 82.6959 434.607 81.8811 434.607 80.8759C434.607 79.8708 431.702 79.0559 428.118 79.0559C424.534 79.0559 421.629 79.8708 421.629 80.8759C421.629 81.8811 424.534 82.6959 428.118 82.6959Z" fill="#9CD7FF"/>
<path d="M444.316 74.9219C449.083 72.4467 456.102 70.9397 459.997 71.5551C463.891 72.1706 463.19 74.6714 458.435 77.1453C453.681 79.6191 446.649 81.1276 442.755 80.5121C438.86 79.8966 439.562 77.3958 444.316 74.9219Z" fill="#9CD7FF"/>
<defs>
<linearGradient id="paint0_linear_2_2324" x1="237.682" y1="5.13355" x2="237.682" y2="86.1236" gradientUnits="userSpaceOnUse">
<stop stop-color="#76C2F6"/>
<stop offset="0.445" stop-color="#0E8CE0"/>
</linearGradient>
</defs>
</svg>
