<svg width="500" height="111" viewBox="0 0 500 111" fill="none" xmlns="http://www.w3.org/2000/svg">
<rect x="3.94662" y="3.12948" width="492.49" height="104.052" rx="19.0702" fill="url(#paint0_linear_2_3245)" stroke="url(#paint1_linear_2_3245)" stroke-width="6.15169"/>
<path d="M11.526 26.0918C12.6102 26.2135 13.6117 25.6033 13.763 24.729C13.9144 23.8546 13.1581 23.0472 12.0739 22.9256C10.9897 22.8039 9.98818 23.4141 9.83687 24.2884C9.68556 25.1628 10.4418 25.9702 11.526 26.0918Z" fill="white"/>
<path d="M47.8145 12.8056C51.5869 12.8056 54.6451 11.8207 54.6451 10.6056C54.6451 9.39061 51.5869 8.40564 47.8145 8.40564C44.042 8.40564 40.9839 9.39061 40.9839 10.6056C40.9839 11.8207 44.042 12.8056 47.8145 12.8056Z" fill="white"/>
<path d="M18.1872 14.0383C23.2049 11.0462 30.5936 9.22456 34.6932 9.96855C38.7928 10.7125 38.0544 13.7354 33.0498 16.7258C28.0452 19.7163 20.6434 21.5396 16.5438 20.7956C12.4442 20.0516 13.1826 17.0287 18.1872 14.0383Z" fill="white"/>
<path d="M450.651 99.962C454.423 99.962 457.482 98.977 457.482 97.762C457.482 96.547 454.423 95.562 450.651 95.562C446.878 95.562 443.82 96.547 443.82 97.762C443.82 98.977 446.878 99.962 450.651 99.962Z" fill="#C086EA"/>
<path d="M467.7 90.5649C472.718 87.5728 480.107 85.7512 484.206 86.4952C488.306 87.2392 487.568 90.262 482.563 93.2525C477.558 96.2429 470.157 98.0662 466.057 97.3222C461.957 96.5782 462.696 93.5553 467.7 90.5649Z" fill="#C086EA"/>
<defs>
<linearGradient id="paint0_linear_2_3245" x1="250.192" y1="6.20533" x2="250.192" y2="104.105" gradientUnits="userSpaceOnUse">
<stop stop-color="#962DE1"/>
<stop offset="0.445" stop-color="#670CA8"/>
</linearGradient>
<linearGradient id="paint1_linear_2_3245" x1="7.02246" y1="55.1553" x2="493.361" y2="55.1553" gradientUnits="userSpaceOnUse">
<stop stop-color="#F3CD84"/>
<stop offset="1" stop-color="#F0BB1E"/>
</linearGradient>
</defs>
</svg>
