<svg width="682" height="612" viewBox="0 0 682 612" fill="none" xmlns="http://www.w3.org/2000/svg">
<path d="M92.4362 11.0468C276.455 -0.228128 405.256 -0.457466 589.453 11.0122C605.309 11.9996 617.012 12.7314 626.231 14.2727C635.396 15.8049 641.875 18.1048 647.342 22.093C650.903 24.6914 654.283 27.9846 656.974 31.4769C661.105 36.8398 663.57 43.2251 665.334 52.2751C667.109 61.3809 668.137 72.9558 669.526 88.6439C683.41 245.467 682.412 359.72 668.94 522.287C667.621 538.207 666.644 549.956 664.905 559.187C663.176 568.365 660.73 574.821 656.61 580.214C653.914 583.741 650.561 587.031 646.983 589.659C641.514 593.676 635.004 595.998 625.778 597.554C616.499 599.118 604.708 599.873 588.734 600.891C403.951 612.671 275.295 612.113 92.5439 600.74C76.4649 599.739 64.596 598.998 55.2599 597.437C45.9767 595.886 39.4342 593.558 33.9476 589.525C30.3573 586.886 26.9975 583.584 24.297 580.039C20.1692 574.621 17.7313 568.139 16.0241 558.928C14.3069 549.662 13.366 537.871 12.0955 521.894C-0.50769 363.414 -0.852953 249.549 11.9923 89.7089C13.2733 73.7693 14.2218 62.0059 15.9454 52.7599C17.6588 43.5682 20.1015 37.0964 24.235 31.681C26.9357 28.1427 30.306 24.8359 33.8949 22.2029C39.386 18.1743 45.9258 15.8529 55.199 14.3109C64.5254 12.7601 76.3783 12.0307 92.4362 11.0468Z" fill="url(#paint0_linear_2_2054)" stroke="url(#paint1_linear_2_2054)" stroke-width="5"/>
<ellipse cx="26.3025" cy="5.00333" rx="26.3025" ry="5.00333" transform="matrix(0.0815198 -0.996672 0.995443 0.0953574 20 106.185)" fill="#FDFAFF"/>
<ellipse cx="18.2475" cy="5.38837" rx="18.2475" ry="5.38837" transform="matrix(0.966213 -0.257746 0.22208 0.975028 469 473.321)" fill="#B165E8"/>
<ellipse cx="6.92492" cy="3.002" rx="6.92492" ry="3.002" transform="matrix(0.0815198 -0.996672 0.995443 0.0953574 20.5527 126.435)" fill="#FDFAFF"/>
<ellipse cx="10.5032" cy="3.78677" rx="10.5032" ry="3.78677" transform="matrix(0.997923 -0.0644238 0.0550382 0.998484 443 477.172)" fill="#B165E8"/>
<defs>
<linearGradient id="paint0_linear_2_2054" x1="232.924" y1="-73.3932" x2="471.067" y2="736.368" gradientUnits="userSpaceOnUse">
<stop stop-color="#9F33EC"/>
<stop offset="1" stop-color="#670CA8"/>
</linearGradient>
<linearGradient id="paint1_linear_2_2054" x1="129.279" y1="-2.75135" x2="697.26" y2="281.758" gradientUnits="userSpaceOnUse">
<stop stop-color="#FFE375"/>
<stop offset="1" stop-color="#EDB715"/>
</linearGradient>
</defs>
</svg>
