<svg width="475" height="92" viewBox="0 0 475 92" fill="none" xmlns="http://www.w3.org/2000/svg">
<rect x="4.17139" y="2.63354" width="467.022" height="85.99" rx="15.5" fill="url(#paint0_linear_2_2323)" stroke="#0264A6" stroke-width="5"/>
<path d="M10.9501 21.5849C11.9801 21.6855 12.9316 21.1807 13.0753 20.4574C13.2191 19.7341 12.5006 19.0662 11.4706 18.9655C10.4407 18.8649 9.48918 19.3697 9.34544 20.093C9.20169 20.8163 9.92013 21.4842 10.9501 21.5849Z" fill="white"/>
<path d="M45.4239 10.5935C49.0077 10.5935 51.913 9.77865 51.913 8.77349C51.913 7.76833 49.0077 6.95349 45.4239 6.95349C41.8401 6.95349 38.9348 7.76833 38.9348 8.77349C38.9348 9.77865 41.8401 10.5935 45.4239 10.5935Z" fill="white"/>
<path d="M17.2779 11.6136C22.0447 9.1383 29.064 7.6313 32.9586 8.24678C36.8532 8.86227 36.1518 11.363 31.3974 13.8369C26.643 16.3108 19.6113 17.8192 15.7167 17.2037C11.8221 16.5882 12.5235 14.0875 17.2779 11.6136Z" fill="white"/>
<path d="M158.551 56.0712H152.053L141.185 39.6172V56.0712H134.687V29.3952H141.185L152.053 45.9252V29.3952H158.551V56.0712ZM183.249 45.1272C183.249 45.7352 183.211 46.3685 183.135 47.0272H168.429C168.531 48.3445 168.949 49.3578 169.683 50.0672C170.443 50.7512 171.368 51.0932 172.457 51.0932C174.079 51.0932 175.206 50.4092 175.839 49.0412H182.755C182.401 50.4345 181.755 51.6885 180.817 52.8032C179.905 53.9178 178.753 54.7918 177.359 55.4252C175.966 56.0585 174.408 56.3752 172.685 56.3752C170.608 56.3752 168.759 55.9318 167.137 55.0452C165.516 54.1585 164.249 52.8918 163.337 51.2452C162.425 49.5985 161.969 47.6732 161.969 45.4692C161.969 43.2652 162.413 41.3398 163.299 39.6932C164.211 38.0465 165.478 36.7798 167.099 35.8932C168.721 35.0065 170.583 34.5632 172.685 34.5632C174.737 34.5632 176.561 34.9938 178.157 35.8552C179.753 36.7165 180.995 37.9452 181.881 39.5412C182.793 41.1372 183.249 42.9992 183.249 45.1272ZM176.599 43.4172C176.599 42.3025 176.219 41.4158 175.459 40.7572C174.699 40.0985 173.749 39.7692 172.609 39.7692C171.52 39.7692 170.595 40.0858 169.835 40.7192C169.101 41.3525 168.645 42.2518 168.467 43.4172H176.599ZM217.115 34.8672L211.377 56.0712H204.195L200.851 42.3152L197.393 56.0712H190.249L184.473 34.8672H190.971L193.973 50.0292L197.545 34.8672H204.423L208.033 49.9532L210.997 34.8672H217.115ZM245.354 37.8312C244.873 36.9445 244.176 36.2732 243.264 35.8172C242.377 35.3358 241.326 35.0952 240.11 35.0952C238.007 35.0952 236.323 35.7918 235.056 37.1852C233.789 38.5532 233.156 40.3898 233.156 42.6952C233.156 45.1525 233.815 47.0778 235.132 48.4712C236.475 49.8392 238.311 50.5232 240.642 50.5232C242.238 50.5232 243.581 50.1178 244.67 49.3072C245.785 48.4965 246.595 47.3312 247.102 45.8112H238.856V41.0232H252.992V47.0652C252.511 48.6865 251.687 50.1938 250.522 51.5872C249.382 52.9805 247.925 54.1078 246.152 54.9692C244.379 55.8305 242.377 56.2612 240.148 56.2612C237.513 56.2612 235.157 55.6912 233.08 54.5512C231.028 53.3858 229.419 51.7772 228.254 49.7252C227.114 47.6732 226.544 45.3298 226.544 42.6952C226.544 40.0605 227.114 37.7172 228.254 35.6652C229.419 33.5878 231.028 31.9792 233.08 30.8392C235.132 29.6738 237.475 29.0912 240.11 29.0912C243.302 29.0912 245.987 29.8638 248.166 31.4092C250.37 32.9545 251.827 35.0952 252.536 37.8312H245.354ZM255.299 45.4312C255.299 43.2525 255.705 41.3398 256.515 39.6932C257.351 38.0465 258.479 36.7798 259.897 35.8932C261.316 35.0065 262.899 34.5632 264.647 34.5632C266.142 34.5632 267.447 34.8672 268.561 35.4752C269.701 36.0832 270.575 36.8812 271.183 37.8692V34.8672H277.681V56.0712H271.183V53.0692C270.55 54.0572 269.663 54.8552 268.523 55.4632C267.409 56.0712 266.104 56.3752 264.609 56.3752C262.887 56.3752 261.316 55.9318 259.897 55.0452C258.479 54.1332 257.351 52.8538 256.515 51.2072C255.705 49.5352 255.299 47.6098 255.299 45.4312ZM271.183 45.4692C271.183 43.8478 270.727 42.5685 269.815 41.6312C268.929 40.6938 267.839 40.2252 266.547 40.2252C265.255 40.2252 264.153 40.6938 263.241 41.6312C262.355 42.5432 261.911 43.8098 261.911 45.4312C261.911 47.0525 262.355 48.3445 263.241 49.3072C264.153 50.2445 265.255 50.7132 266.547 50.7132C267.839 50.7132 268.929 50.2445 269.815 49.3072C270.727 48.3698 271.183 47.0905 271.183 45.4692ZM309.438 34.6392C312.073 34.6392 314.163 35.4372 315.708 37.0332C317.279 38.6292 318.064 40.8458 318.064 43.6832V56.0712H311.604V44.5572C311.604 43.1892 311.237 42.1378 310.502 41.4032C309.793 40.6432 308.805 40.2632 307.538 40.2632C306.272 40.2632 305.271 40.6432 304.536 41.4032C303.827 42.1378 303.472 43.1892 303.472 44.5572V56.0712H297.012V44.5572C297.012 43.1892 296.645 42.1378 295.91 41.4032C295.201 40.6432 294.213 40.2632 292.946 40.2632C291.68 40.2632 290.679 40.6432 289.944 41.4032C289.235 42.1378 288.88 43.1892 288.88 44.5572V56.0712H282.382V34.8672H288.88V37.5272C289.539 36.6405 290.4 35.9438 291.464 35.4372C292.528 34.9052 293.732 34.6392 295.074 34.6392C296.67 34.6392 298.089 34.9812 299.33 35.6652C300.597 36.3492 301.585 37.3245 302.294 38.5912C303.029 37.4258 304.03 36.4758 305.296 35.7412C306.563 35.0065 307.944 34.6392 309.438 34.6392ZM342.597 45.1272C342.597 45.7352 342.559 46.3685 342.483 47.0272H327.777C327.878 48.3445 328.296 49.3578 329.031 50.0672C329.791 50.7512 330.716 51.0932 331.805 51.0932C333.426 51.0932 334.554 50.4092 335.187 49.0412H342.103C341.748 50.4345 341.102 51.6885 340.165 52.8032C339.253 53.9178 338.1 54.7918 336.707 55.4252C335.314 56.0585 333.756 56.3752 332.033 56.3752C329.956 56.3752 328.106 55.9318 326.485 55.0452C324.864 54.1585 323.597 52.8918 322.685 51.2452C321.773 49.5985 321.317 47.6732 321.317 45.4692C321.317 43.2652 321.76 41.3398 322.647 39.6932C323.559 38.0465 324.826 36.7798 326.447 35.8932C328.068 35.0065 329.93 34.5632 332.033 34.5632C334.085 34.5632 335.909 34.9938 337.505 35.8552C339.101 36.7165 340.342 37.9452 341.229 39.5412C342.141 41.1372 342.597 42.9992 342.597 45.1272ZM335.947 43.4172C335.947 42.3025 335.567 41.4158 334.807 40.7572C334.047 40.0985 333.097 39.7692 331.957 39.7692C330.868 39.7692 329.943 40.0858 329.183 40.7192C328.448 41.3525 327.992 42.2518 327.815 43.4172H335.947Z" fill="white"/>
<path d="M428.118 82.6959C431.702 82.6959 434.607 81.8811 434.607 80.8759C434.607 79.8708 431.702 79.0559 428.118 79.0559C424.534 79.0559 421.629 79.8708 421.629 80.8759C421.629 81.8811 424.534 82.6959 428.118 82.6959Z" fill="#9CD7FF"/>
<path d="M444.316 74.9219C449.083 72.4467 456.102 70.9397 459.997 71.5551C463.891 72.1706 463.19 74.6714 458.435 77.1453C453.681 79.6191 446.649 81.1276 442.755 80.5121C438.86 79.8966 439.562 77.3958 444.316 74.9219Z" fill="#9CD7FF"/>
<defs>
<linearGradient id="paint0_linear_2_2323" x1="237.682" y1="5.13355" x2="237.682" y2="86.1236" gradientUnits="userSpaceOnUse">
<stop stop-color="#76C2F6"/>
<stop offset="0.445" stop-color="#0E8CE0"/>
</linearGradient>
</defs>
</svg>
