<svg width="72" height="92" viewBox="0 0 72 92" fill="none" xmlns="http://www.w3.org/2000/svg">
<rect x="1.5" y="1.5" width="69" height="69" rx="11.5" fill="url(#paint0_linear_2_1829)" stroke="#0264A6" stroke-width="3"/>
<g filter="url(#filter0_d_2_1829)">
<path d="M23.4762 17.0012L23.4762 53.0022C23.4773 53.3667 23.5764 53.724 23.7628 54.0356C23.9493 54.3472 24.2159 54.6014 24.5342 54.7707C24.8524 54.94 25.2101 55.0181 25.5688 54.9965C25.9275 54.9749 26.2736 54.8545 26.5699 54.6483L52.2029 36.6478C53.2657 35.9017 53.2657 34.1057 52.2029 33.3577L26.5699 15.3572C26.2742 15.1488 25.928 15.0266 25.5686 15.0039C25.2093 14.9811 24.8508 15.0587 24.5319 15.2282C24.213 15.3976 23.946 15.6525 23.7598 15.9651C23.5737 16.2777 23.4756 16.636 23.4762 17.0012Z" fill="white"/>
</g>
<path d="M8.25779 8.17962C10.3246 6.67463 11.4369 4.68126 10.7422 3.7273C10.0476 2.77335 7.80897 3.22005 5.74221 4.72504C3.67544 6.23004 2.56313 8.22341 3.25779 9.17736C3.95245 10.1313 6.19103 9.68461 8.25779 8.17962Z" fill="white"/>
<path d="M65.6054 67.5479C67.1265 66.4403 67.9451 64.9733 67.4339 64.2712C66.9226 63.5691 65.2751 63.8979 63.7541 65.0055C62.233 66.1131 61.4144 67.5801 61.9257 68.2822C62.4369 68.9843 64.0844 68.6555 65.6054 67.5479Z" fill="#9CD7FF"/>
<path d="M3.02502 13.001C3.5911 13.0729 4.11405 12.7124 4.19305 12.1957C4.27206 11.6791 3.8772 11.202 3.31112 11.1302C2.74503 11.0583 2.22209 11.4188 2.14308 11.9354C2.06408 12.4521 2.45894 12.9291 3.02502 13.001Z" fill="white"/>
<path d="M13.025 4.00103C13.5911 4.07291 14.1141 3.71237 14.1931 3.19574C14.2721 2.67911 13.8772 2.20203 13.3111 2.13015C12.745 2.05827 12.2221 2.41881 12.1431 2.93544C12.0641 3.45207 12.4589 3.92915 13.025 4.00103Z" fill="white"/>
<path d="M59.025 70.001C59.5911 70.0729 60.1141 69.7124 60.1931 69.1957C60.2721 68.6791 59.8772 68.202 59.3111 68.1302C58.745 68.0583 58.2221 68.4188 58.1431 68.9354C58.0641 69.4521 58.4589 69.9291 59.025 70.001Z" fill="#9CD7FF"/>
<path d="M27.421 87H24.3903L21.1822 82.14V87H18.1515V77.3346H21.1822L24.3903 82.2765V77.3346H27.421V87ZM31.8209 79.751V80.9387H34.8242V83.2185H31.8209V84.5837H35.2338V87H28.7902V77.3346H35.2338V79.751H31.8209ZM42.5329 87L40.7581 84.4881L39.2838 87H35.8299L39.0107 82.0171L35.6934 77.3346H39.2838L40.9902 79.751L42.41 77.3346H45.8639L42.7376 82.2219L46.1233 87H42.5329ZM54.3917 77.3346V79.7373H51.8252V87H48.7945V79.7373H46.2553V77.3346H54.3917Z" fill="white"/>
<defs>
<filter id="filter0_d_2_1829" x="21.4762" y="15" width="33.5238" height="44" filterUnits="userSpaceOnUse" color-interpolation-filters="sRGB">
<feFlood flood-opacity="0" result="BackgroundImageFix"/>
<feColorMatrix in="SourceAlpha" type="matrix" values="0 0 0 0 0 0 0 0 0 0 0 0 0 0 0 0 0 0 127 0" result="hardAlpha"/>
<feOffset dy="2"/>
<feGaussianBlur stdDeviation="1"/>
<feComposite in2="hardAlpha" operator="out"/>
<feColorMatrix type="matrix" values="0 0 0 0 0 0 0 0 0 0 0 0 0 0 0 0 0 0 0.5 0"/>
<feBlend mode="normal" in2="BackgroundImageFix" result="effect1_dropShadow_2_1829"/>
<feBlend mode="normal" in="SourceGraphic" in2="effect1_dropShadow_2_1829" result="shape"/>
</filter>
<linearGradient id="paint0_linear_2_1829" x1="36" y1="0" x2="36" y2="72" gradientUnits="userSpaceOnUse">
<stop stop-color="#76C2F6"/>
<stop offset="0.46" stop-color="#0E8CE0"/>
</linearGradient>
</defs>
</svg>
