<svg width="500" height="110" viewBox="0 0 500 110" fill="none" xmlns="http://www.w3.org/2000/svg">
<rect x="3.75472" y="3.07308" width="492.49" height="103.162" rx="19.0702" fill="url(#paint0_linear_2_3818)" stroke="#AD3323" stroke-width="6.15169"/>
<path d="M11.5265 25.8545C12.6107 25.975 13.6122 25.3704 13.7635 24.504C13.9148 23.6376 13.1586 22.8376 12.0744 22.717C10.9902 22.5965 9.98867 23.2011 9.83736 24.0675C9.68604 24.9339 10.4423 25.7339 11.5265 25.8545Z" fill="white"/>
<path d="M47.8145 12.6891C51.5869 12.6891 54.6451 11.7131 54.6451 10.5091C54.6451 9.30512 51.5869 8.3291 47.8145 8.3291C44.0421 8.3291 40.9839 9.30512 40.9839 10.5091C40.9839 11.7131 44.0421 12.6891 47.8145 12.6891Z" fill="white"/>
<path d="M18.1872 13.9107C23.2049 10.9458 30.5936 9.14075 34.6932 9.87798C38.7928 10.6152 38.0544 13.6106 33.0498 16.5738C28.0452 19.5371 20.6434 21.3438 16.5438 20.6066C12.4442 19.8694 13.1826 16.874 18.1872 13.9107Z" fill="white"/>
<path d="M250.548 64H243.1L233.182 49.028V64H225.734V37.21H233.182L243.1 52.372V37.21H250.548V64ZM264.709 64.266C262.581 64.266 260.668 63.8227 258.971 62.936C257.299 62.0493 255.981 60.7827 255.019 59.136C254.056 57.4893 253.575 55.5513 253.575 53.322C253.575 51.118 254.056 49.1927 255.019 47.546C256.007 45.8993 257.337 44.6327 259.009 43.746C260.706 42.8593 262.619 42.416 264.747 42.416C266.875 42.416 268.775 42.8593 270.447 43.746C272.144 44.6327 273.474 45.8993 274.437 47.546C275.425 49.1927 275.919 51.118 275.919 53.322C275.919 55.526 275.425 57.464 274.437 59.136C273.474 60.7827 272.144 62.0493 270.447 62.936C268.749 63.8227 266.837 64.266 264.709 64.266ZM264.709 57.806C265.747 57.806 266.609 57.426 267.293 56.666C268.002 55.8807 268.357 54.766 268.357 53.322C268.357 51.878 268.002 50.776 267.293 50.016C266.609 49.256 265.76 48.876 264.747 48.876C263.733 48.876 262.885 49.256 262.201 50.016C261.517 50.776 261.175 51.878 261.175 53.322C261.175 54.7913 261.504 55.906 262.163 56.666C262.821 57.426 263.67 57.806 264.709 57.806Z" fill="white"/>
<path d="M450.651 99.0529C454.423 99.0529 457.482 98.0769 457.482 96.8729C457.482 95.6689 454.423 94.6929 450.651 94.6929C446.878 94.6929 443.82 95.6689 443.82 96.8729C443.82 98.0769 446.878 99.0529 450.651 99.0529Z" fill="#FE9788"/>
<path d="M467.701 89.7418C472.719 86.7769 480.107 84.9718 484.207 85.709C488.306 86.4463 487.568 89.4417 482.563 92.4049C477.559 95.3681 470.157 97.1749 466.057 96.4377C461.958 95.7004 462.696 92.705 467.701 89.7418Z" fill="#FE9788"/>
<defs>
<linearGradient id="paint0_linear_2_3818" x1="250" y1="6.14893" x2="250" y2="103.159" gradientUnits="userSpaceOnUse">
<stop stop-color="#FFA299"/>
<stop offset="0.445" stop-color="#FB3A29"/>
</linearGradient>
</defs>
</svg>
