<svg width="366" height="91" viewBox="0 0 366 91" fill="none" xmlns="http://www.w3.org/2000/svg">
<rect x="2.62646" y="2.60754" width="360.027" height="85.5806" rx="15.5" fill="url(#paint0_linear_3_993)" stroke="#0264A6" stroke-width="5"/>
<path d="M8.41428 21.4758C9.20574 21.5759 9.93688 21.0737 10.0473 20.354C10.1578 19.6344 9.60574 18.9698 8.81428 18.8697C8.02283 18.7696 7.29168 19.2718 7.18123 19.9914C7.07077 20.7111 7.62283 21.3756 8.41428 21.4758Z" fill="white"/>
<path d="M34.9047 10.54C37.6586 10.54 39.891 9.72924 39.891 8.72917C39.891 7.72909 37.6586 6.91837 34.9047 6.91837C32.1508 6.91837 29.9183 7.72909 29.9183 8.72917C29.9183 9.72924 32.1508 10.54 34.9047 10.54Z" fill="white"/>
<path d="M13.2767 11.5549C16.9397 9.0921 22.3334 7.59272 25.3261 8.20509C28.3188 8.81746 27.7798 11.3056 24.1264 13.767C20.4731 16.2283 15.0698 17.7291 12.0771 17.1168C9.08434 16.5044 9.62337 14.0163 13.2767 11.5549Z" fill="white"/>
<path d="M63.7346 56.266C61.7839 56.266 60.0359 55.9493 58.4906 55.316C56.9452 54.6827 55.7039 53.7453 54.7666 52.504C53.8546 51.2627 53.3732 49.768 53.3226 48.02H60.2386C60.3399 49.008 60.6819 49.768 61.2646 50.3C61.8472 50.8067 62.6072 51.06 63.5446 51.06C64.5072 51.06 65.2672 50.8447 65.8246 50.414C66.3819 49.958 66.6606 49.3373 66.6606 48.552C66.6606 47.8933 66.4326 47.3487 65.9766 46.918C65.5459 46.4873 65.0012 46.1327 64.3426 45.854C63.7092 45.5753 62.7972 45.2587 61.6066 44.904C59.8839 44.372 58.4779 43.84 57.3886 43.308C56.2992 42.776 55.3619 41.9907 54.5766 40.952C53.7912 39.9133 53.3986 38.558 53.3986 36.886C53.3986 34.4033 54.2979 32.4653 56.0966 31.072C57.8952 29.6533 60.2386 28.944 63.1266 28.944C66.0652 28.944 68.4339 29.6533 70.2326 31.072C72.0312 32.4653 72.9939 34.416 73.1206 36.924H66.0906C66.0399 36.0627 65.7232 35.3913 65.1406 34.91C64.5579 34.4033 63.8106 34.15 62.8986 34.15C62.1132 34.15 61.4799 34.3653 60.9986 34.796C60.5172 35.2013 60.2766 35.7967 60.2766 36.582C60.2766 37.4433 60.6819 38.1147 61.4926 38.596C62.3032 39.0773 63.5699 39.5967 65.2926 40.154C67.0152 40.7367 68.4086 41.294 69.4726 41.826C70.5619 42.358 71.4992 43.1307 72.2846 44.144C73.0699 45.1573 73.4626 46.462 73.4626 48.058C73.4626 49.578 73.0699 50.9587 72.2846 52.2C71.5246 53.4413 70.4099 54.4293 68.9406 55.164C67.4712 55.8987 65.7359 56.266 63.7346 56.266ZM90.4955 34.568C92.9275 34.568 94.8781 35.3787 96.3475 37C97.8168 38.596 98.5515 40.8 98.5515 43.612V56H92.0915V44.486C92.0915 43.0673 91.7241 41.9653 90.9895 41.18C90.2548 40.3947 89.2668 40.002 88.0255 40.002C86.7841 40.002 85.7961 40.3947 85.0615 41.18C84.3268 41.9653 83.9595 43.0673 83.9595 44.486V56H77.4615V27.88H83.9595V37.646C84.6181 36.7087 85.5175 35.9613 86.6575 35.404C87.7975 34.8467 89.0768 34.568 90.4955 34.568ZM112.719 56.304C110.642 56.304 108.767 55.8607 107.095 54.974C105.448 54.0873 104.144 52.8207 103.181 51.174C102.244 49.5273 101.775 47.602 101.775 45.398C101.775 43.2193 102.256 41.3067 103.219 39.66C104.182 37.988 105.499 36.7087 107.171 35.822C108.843 34.9353 110.718 34.492 112.795 34.492C114.872 34.492 116.747 34.9353 118.419 35.822C120.091 36.7087 121.408 37.988 122.371 39.66C123.334 41.3067 123.815 43.2193 123.815 45.398C123.815 47.5767 123.321 49.502 122.333 51.174C121.37 52.8207 120.04 54.0873 118.343 54.974C116.671 55.8607 114.796 56.304 112.719 56.304ZM112.719 50.68C113.96 50.68 115.012 50.224 115.873 49.312C116.76 48.4 117.203 47.0953 117.203 45.398C117.203 43.7007 116.772 42.396 115.911 41.484C115.075 40.572 114.036 40.116 112.795 40.116C111.528 40.116 110.477 40.572 109.641 41.484C108.805 42.3707 108.387 43.6753 108.387 45.398C108.387 47.0953 108.792 48.4 109.603 49.312C110.439 50.224 111.478 50.68 112.719 50.68ZM157.7 34.796L151.962 56H144.78L141.436 42.244L137.978 56H130.834L125.058 34.796H131.556L134.558 49.958L138.13 34.796H145.008L148.618 49.882L151.582 34.796H157.7ZM184.837 51.288H174.881L173.285 56H166.483L176.135 29.324H183.659L193.311 56H186.433L184.837 51.288ZM183.165 46.272L179.859 36.506L176.591 46.272H183.165ZM209.169 34.568C211.651 34.568 213.627 35.3787 215.097 37C216.591 38.596 217.339 40.8 217.339 43.612V56H210.879V44.486C210.879 43.0673 210.511 41.9653 209.777 41.18C209.042 40.3947 208.054 40.002 206.813 40.002C205.571 40.002 204.583 40.3947 203.849 41.18C203.114 41.9653 202.747 43.0673 202.747 44.486V56H196.249V34.796H202.747V37.608C203.405 36.6707 204.292 35.936 205.407 35.404C206.521 34.8467 207.775 34.568 209.169 34.568ZM230.48 56.304C228.631 56.304 226.984 55.9873 225.54 55.354C224.096 54.7207 222.956 53.8593 222.12 52.77C221.284 51.6553 220.815 50.414 220.714 49.046H227.136C227.212 49.7807 227.554 50.376 228.162 50.832C228.77 51.288 229.517 51.516 230.404 51.516C231.215 51.516 231.835 51.364 232.266 51.06C232.722 50.7307 232.95 50.3127 232.95 49.806C232.95 49.198 232.633 48.7547 232 48.476C231.367 48.172 230.341 47.8427 228.922 47.488C227.402 47.1333 226.135 46.766 225.122 46.386C224.109 45.9807 223.235 45.36 222.5 44.524C221.765 43.6627 221.398 42.51 221.398 41.066C221.398 39.85 221.727 38.748 222.386 37.76C223.07 36.7467 224.058 35.9487 225.35 35.366C226.667 34.7833 228.225 34.492 230.024 34.492C232.684 34.492 234.774 35.1507 236.294 36.468C237.839 37.7853 238.726 39.5333 238.954 41.712H232.95C232.849 40.9773 232.519 40.3947 231.962 39.964C231.43 39.5333 230.721 39.318 229.834 39.318C229.074 39.318 228.491 39.47 228.086 39.774C227.681 40.0527 227.478 40.4453 227.478 40.952C227.478 41.56 227.795 42.016 228.428 42.32C229.087 42.624 230.1 42.928 231.468 43.232C233.039 43.6373 234.318 44.0427 235.306 44.448C236.294 44.828 237.155 45.4613 237.89 46.348C238.65 47.2093 239.043 48.3747 239.068 49.844C239.068 51.0853 238.713 52.2 238.004 53.188C237.32 54.1507 236.319 54.9107 235.002 55.468C233.71 56.0253 232.203 56.304 230.48 56.304ZM273.482 34.796L267.744 56H260.562L257.218 42.244L253.76 56H246.616L240.84 34.796H247.338L250.34 49.958L253.912 34.796H260.79L264.4 49.882L267.364 34.796H273.482ZM295.948 45.056C295.948 45.664 295.91 46.2973 295.834 46.956H281.128C281.229 48.2733 281.647 49.2867 282.382 49.996C283.142 50.68 284.066 51.022 285.156 51.022C286.777 51.022 287.904 50.338 288.538 48.97H295.454C295.099 50.3633 294.453 51.6173 293.516 52.732C292.604 53.8467 291.451 54.7207 290.058 55.354C288.664 55.9873 287.106 56.304 285.384 56.304C283.306 56.304 281.457 55.8607 279.836 54.974C278.214 54.0873 276.948 52.8207 276.036 51.174C275.124 49.5273 274.668 47.602 274.668 45.398C274.668 43.194 275.111 41.2687 275.998 39.622C276.91 37.9753 278.176 36.7087 279.798 35.822C281.419 34.9353 283.281 34.492 285.384 34.492C287.436 34.492 289.26 34.9227 290.856 35.784C292.452 36.6453 293.693 37.874 294.58 39.47C295.492 41.066 295.948 42.928 295.948 45.056ZM289.298 43.346C289.298 42.2313 288.918 41.3447 288.158 40.686C287.398 40.0273 286.448 39.698 285.308 39.698C284.218 39.698 283.294 40.0147 282.534 40.648C281.799 41.2813 281.343 42.1807 281.166 43.346H289.298ZM305.874 38.33C306.634 37.1647 307.584 36.2527 308.724 35.594C309.864 34.91 311.13 34.568 312.524 34.568V41.446H310.738C309.116 41.446 307.9 41.8007 307.09 42.51C306.279 43.194 305.874 44.41 305.874 46.158V56H299.376V34.796H305.874V38.33Z" fill="white"/>
<path d="M328.975 82.2775C331.729 82.2775 333.961 81.4668 333.961 80.4667C333.961 79.4666 331.729 78.6559 328.975 78.6559C326.221 78.6559 323.989 79.4666 323.989 80.4667C323.989 81.4668 326.221 82.2775 328.975 82.2775Z" fill="#9CD7FF"/>
<path d="M341.422 74.5434C345.085 72.0807 350.478 70.5813 353.471 71.1936C356.464 71.806 355.925 74.2941 352.271 76.7555C348.618 79.2169 343.215 80.7177 340.222 80.1053C337.229 79.4929 337.768 77.0048 341.422 74.5434Z" fill="#9CD7FF"/>
<defs>
<linearGradient id="paint0_linear_3_993" x1="182.64" y1="5.10755" x2="182.64" y2="85.6882" gradientUnits="userSpaceOnUse">
<stop stop-color="#76C2F6"/>
<stop offset="0.445" stop-color="#0E8CE0"/>
</linearGradient>
</defs>
</svg>
