<svg width="1272" height="739" viewBox="0 0 1272 739" fill="none" xmlns="http://www.w3.org/2000/svg">
<rect width="1272" height="739" fill="url(#paint0_radial_2_2359)"/>
<path d="M740.059 227.813L719.809 221.775C718.409 216.891 716.484 212.174 714.067 207.704L723.98 189.166C724.352 188.466 724.488 187.665 724.368 186.882C724.248 186.098 723.879 185.375 723.315 184.818L708.868 170.325C708.311 169.761 707.586 169.392 706.802 169.273C706.018 169.153 705.217 169.289 704.516 169.661L686.08 179.504C681.562 176.971 676.778 174.946 671.814 173.465L665.77 153.477C665.514 152.74 665.031 152.104 664.39 151.659C663.749 151.214 662.984 150.983 662.203 151.001H641.773C640.988 151.005 640.224 151.258 639.594 151.725C638.963 152.192 638.498 152.848 638.267 153.598L632.222 173.525C627.217 174.999 622.392 177.024 617.836 179.564L599.702 169.781C599.001 169.41 598.2 169.274 597.416 169.393C596.632 169.513 595.907 169.882 595.35 170.446L580.661 184.757C580.097 185.314 579.728 186.038 579.608 186.821C579.488 187.605 579.624 188.405 579.996 189.105L589.789 207.221C587.25 211.754 585.223 216.554 583.744 221.533L563.736 227.572C562.986 227.803 562.33 228.268 561.862 228.898C561.395 229.528 561.14 230.29 561.137 231.074V251.485C561.14 252.269 561.395 253.032 561.862 253.662C562.33 254.292 562.986 254.756 563.736 254.988L583.865 261.026C585.36 265.923 587.387 270.641 589.909 275.097L579.996 294.058C579.624 294.758 579.488 295.559 579.608 296.342C579.728 297.125 580.097 297.849 580.661 298.406L595.108 312.839C595.665 313.402 596.39 313.771 597.174 313.891C597.958 314.011 598.759 313.874 599.46 313.503L618.138 303.539C622.556 305.921 627.217 307.824 632.041 309.215L638.085 329.566C638.317 330.315 638.782 330.971 639.412 331.438C640.043 331.905 640.806 332.159 641.591 332.162H662.022C662.807 332.159 663.57 331.905 664.201 331.438C664.832 330.971 665.296 330.315 665.528 329.566L671.573 309.155C676.355 307.756 680.975 305.853 685.355 303.479L704.153 313.503C704.854 313.874 705.656 314.011 706.44 313.891C707.224 313.771 707.948 313.402 708.506 312.839L722.952 298.406C723.516 297.849 723.886 297.125 724.006 296.342C724.125 295.559 723.989 294.758 723.617 294.058L713.583 275.338C715.985 270.946 717.91 266.31 719.325 261.509L739.696 255.471C740.446 255.239 741.102 254.775 741.57 254.145C742.037 253.515 742.292 252.752 742.295 251.968V231.376C742.331 230.625 742.136 229.882 741.736 229.245C741.336 228.608 740.751 228.108 740.059 227.813ZM651.988 274.795C645.413 274.795 638.985 272.847 633.518 269.197C628.051 265.548 623.789 260.361 621.273 254.292C618.757 248.223 618.098 241.545 619.381 235.102C620.664 228.66 623.83 222.742 628.48 218.097C633.129 213.452 639.053 210.288 645.502 209.007C651.951 207.725 658.636 208.383 664.711 210.897C670.785 213.411 675.978 217.668 679.631 223.13C683.284 228.591 685.234 235.013 685.234 241.582C685.234 250.39 681.731 258.838 675.496 265.067C669.261 271.295 660.805 274.795 651.988 274.795Z" fill="#380B70"/>
<circle cx="651.718" cy="241.582" r="25.6164" stroke="#380B70" stroke-width="17.1005"/>
<path d="M431.352 258.485V211.559H447.776C453.586 211.559 457.787 212.676 460.379 214.911C463.015 217.146 464.334 220.52 464.334 225.034C464.334 228.475 463.418 231.045 461.585 232.743C465.92 234.709 468.088 238.419 468.088 243.871C468.088 249.1 466.501 252.854 463.328 255.133C460.2 257.368 455.194 258.485 448.312 258.485H431.352ZM444.089 246.418H448.312C450.502 246.418 452.111 246.15 453.139 245.614C454.167 245.078 454.68 244.162 454.68 242.865C454.68 240.273 452.491 238.977 448.111 238.977H444.089V246.418ZM444.089 229.726H445.966C449.273 229.726 450.926 228.698 450.926 226.643C450.926 224.631 449.273 223.626 445.966 223.626H444.089V229.726ZM484.515 225.704V228.788C486.347 226.732 488.828 225.704 491.956 225.704H494.504L494.571 237.1H491.755C486.928 237.1 484.515 240.005 484.515 245.815V258.485H472.448V225.704H484.515ZM498.242 225.704H510.309V258.485H498.242V225.704ZM497.438 215.045C497.438 213.168 498.108 211.559 499.449 210.218C500.789 208.878 502.398 208.207 504.275 208.207C506.108 208.207 507.694 208.878 509.035 210.218C510.42 211.559 511.113 213.168 511.113 215.045C511.113 216.877 510.42 218.486 509.035 219.872C507.694 221.213 506.108 221.883 504.275 221.883C502.398 221.883 500.789 221.213 499.449 219.872C498.108 218.486 497.438 216.877 497.438 215.045ZM518.002 225.704V215.313H530.136V225.704H535.834V236.43H530.136V258.485H518.002V236.43H514.315V225.704H518.002ZM542.25 229.927C545.423 226.665 549.512 225.034 554.517 225.034C559.076 225.034 562.629 226.218 565.176 228.587C567.768 230.955 569.377 234.218 570.003 238.374V245.145H551.032C552.104 247.335 554.115 248.43 557.065 248.43C559.836 248.43 563.21 247.647 567.187 246.083V256.407C565.936 257.033 564.931 257.502 564.171 257.815C563.411 258.128 562.271 258.418 560.752 258.686C559.232 258.999 557.512 259.155 555.59 259.155C550.272 259.155 545.914 257.524 542.518 254.262C539.166 250.999 537.49 246.955 537.49 242.128C537.49 237.301 539.077 233.234 542.25 229.927ZM550.428 238.776H558.272C557.914 236.765 556.618 235.76 554.383 235.76C552.372 235.76 551.054 236.765 550.428 238.776ZM569.995 211.559H583.537L590.71 237.838L597.346 218.263H608.34L614.977 237.838L622.15 211.559H635.691L622.15 258.485H609.614L602.843 238.307L596.073 258.485H583.537L569.995 211.559ZM685.233 225.704V228.788C687.066 226.732 689.546 225.704 692.675 225.704H695.222L695.289 237.1H692.473C687.647 237.1 685.233 240.005 685.233 245.815V258.485H673.167V225.704H685.233ZM706.871 242.061L696.279 225.704H709.552L713.507 231.804L717.463 225.704H730.736L720.144 242.061L730.736 258.485H717.463L713.507 252.385L709.552 258.485H696.279L706.871 242.061ZM732.725 252.854C732.725 251.066 733.328 249.569 734.535 248.363C735.786 247.111 737.283 246.485 739.026 246.485C740.814 246.485 742.311 247.111 743.518 248.363C744.769 249.569 745.395 251.066 745.395 252.854C745.395 254.597 744.769 256.094 743.518 257.345C742.311 258.552 740.814 259.155 739.026 259.155C737.283 259.155 735.786 258.552 734.535 257.345C733.328 256.094 732.725 254.597 732.725 252.854ZM750.089 225.704H762.156V242.128C762.156 245.659 763.452 247.424 766.044 247.424C768.636 247.424 769.932 245.659 769.932 242.128V225.704H781.999V246.754C781.999 248.139 781.753 249.502 781.261 250.843C780.77 252.139 779.965 253.457 778.848 254.798C777.775 256.094 776.144 257.144 773.954 257.949C771.72 258.753 769.083 259.155 766.044 259.155C763.005 259.155 760.368 258.753 758.134 257.949C755.944 257.144 754.29 256.094 753.173 254.798C752.1 253.457 751.318 252.139 750.827 250.843C750.335 249.502 750.089 248.139 750.089 246.754V225.704ZM786.334 247.022H799.071C799.071 248.944 799.875 249.904 801.484 249.904C802.959 249.904 803.696 249.301 803.696 248.094C803.696 247.513 803.115 247.044 801.953 246.687C800.836 246.329 799.451 245.972 797.797 245.614C796.188 245.212 794.579 244.698 792.97 244.072C791.361 243.402 789.976 242.307 788.814 240.787C787.697 239.268 787.138 237.368 787.138 235.089C787.138 231.827 788.412 229.346 790.959 227.648C793.551 225.905 796.97 225.034 801.216 225.034C805.73 225.034 809.216 226.173 811.674 228.453C814.132 230.732 815.361 233.302 815.361 236.162H803.16C803.026 234.553 802.4 233.748 801.283 233.748C800.3 233.748 799.808 234.218 799.808 235.156C799.808 235.961 800.367 236.609 801.484 237.1C802.646 237.547 804.031 237.972 805.64 238.374C807.294 238.732 808.925 239.223 810.534 239.849C812.143 240.474 813.506 241.547 814.623 243.067C815.785 244.541 816.366 246.418 816.366 248.698C816.366 252.005 814.914 254.575 812.009 256.407C809.104 258.239 805.618 259.155 801.551 259.155C796.68 259.155 792.926 258.016 790.289 255.737C787.652 253.457 786.334 250.664 786.334 247.357C786.334 247.223 786.334 247.111 786.334 247.022Z" fill="white"/>
<path d="M893.097 352.813C895.901 352.244 898.003 350.936 897.791 349.891C897.579 348.847 895.134 348.461 892.33 349.03C889.526 349.599 887.424 350.907 887.636 351.952C887.848 352.997 890.293 353.382 893.097 352.813Z" fill="white"/>
<g filter="url(#filter0_d_2_2359)">
<path d="M242.4 334.56C242.4 316.32 255.36 304.56 276.96 304.56C308.4 304.56 321.6 298.32 344.64 298.32C361.44 298.32 377.52 306.24 377.52 326.16C377.52 342.48 367.68 349.44 359.52 349.44C346.08 349.44 346.08 346.56 330.48 346.56C319.68 346.56 324.24 364.08 324.96 365.52C326.16 368.4 331.44 378.72 332.16 380.4C341.04 394.8 343.92 410.88 343.92 428.16C343.92 450.96 327.84 470.4 302.88 470.4C277.44 470.4 267.12 452.88 267.12 430.08C267.12 396 300.72 342 286.56 342C278.4 342 275.04 353.04 260.4 353.04C250.8 353.04 242.4 348.96 242.4 334.56ZM378.981 427.92C378.981 393.36 394.341 361.92 394.341 333.36C393.381 303.84 427.461 298.32 452.901 298.32C476.421 298.32 510.261 306.48 510.261 338.64C510.261 367.44 482.421 377.52 482.421 384.24C482.421 393.84 512.181 406.32 512.181 445.2C512.181 458.4 502.341 471.6 487.461 471.6C457.941 471.6 458.181 434.16 453.861 407.52C452.421 398.88 446.421 388.8 437.061 388.8C432.501 388.8 432.981 393.84 432.981 394.8C432.981 409.92 441.621 415.44 441.621 436.08C441.621 453.36 434.901 469.68 413.061 469.68C382.341 469.68 378.981 446.16 378.981 427.92ZM441.861 355.92C458.181 355.92 446.181 325.68 436.101 325.68C426.261 325.68 432.741 355.92 441.861 355.92ZM538.142 371.76C538.862 360.72 539.102 348.24 539.102 332.64C539.102 320.4 544.382 300.24 561.902 300C579.422 299.52 581.102 317.04 581.102 329.52C581.102 342.24 575.582 354.72 573.662 366.72C569.822 390 585.662 411.12 585.662 432.72C585.662 451.2 577.742 472.56 553.022 472.56C537.662 472.56 524.462 457.92 524.462 435.12C524.462 401.28 537.182 388.8 538.142 371.76ZM597.99 336.72C597.99 318.72 607.11 299.52 628.71 299.52C648.15 299.52 657.75 316.8 657.75 336C657.75 349.68 653.67 361.92 653.67 372.48C653.67 376.8 655.11 382.08 660.39 382.08C669.03 382.08 674.07 372 674.07 364.56C674.07 353.28 670.47 344.4 670.47 333.12C670.47 313.92 687.51 303.36 704.55 303.36C720.39 303.36 733.59 311.52 733.11 329.28C732.39 351.12 723.03 359.76 713.91 375.12C699.75 399.36 695.43 419.28 686.07 445.2C681.75 456.96 671.43 470.4 655.11 470.4C631.35 470.4 622.71 450.24 619.83 428.64C612.63 378.48 597.99 355.2 597.99 336.72ZM754.807 371.76C755.527 360.72 755.767 348.24 755.767 332.64C755.767 320.4 761.047 300.24 778.567 300C796.087 299.52 797.767 317.04 797.767 329.52C797.767 342.24 792.247 354.72 790.327 366.72C786.487 390 802.327 411.12 802.327 432.72C802.327 451.2 794.407 472.56 769.687 472.56C754.327 472.56 741.127 457.92 741.127 435.12C741.127 401.28 753.847 388.8 754.807 371.76ZM814.416 435.36C814.416 411.6 831.216 393.6 846.096 367.68C859.056 345.12 849.696 300.72 895.536 300.72C919.056 300.72 932.976 320.88 932.976 343.92C932.976 384.24 949.296 403.2 949.296 427.92C949.296 449.76 942.096 470.4 915.936 470.4C902.256 470.4 893.616 459.6 893.616 444.48C893.616 427.92 900.816 418.8 888.096 418.8C879.696 418.8 871.776 430.08 871.776 442.56C871.776 463.2 853.536 469.2 844.176 469.2C826.656 469.2 814.416 458.64 814.416 435.36ZM892.896 371.52C905.616 371.52 908.016 333.6 898.416 333.6C887.376 333.6 881.616 371.52 892.896 371.52ZM953.138 341.04C953.138 320.16 962.018 299.04 984.578 299.04C1004.74 299.04 1016.74 316.8 1016.74 334.08C1016.74 348.48 1010.02 361.92 1006.9 375.6C1003.78 389.76 1004.74 418.08 986.258 418.08C971.378 418.08 970.658 398.88 967.058 389.04C960.098 369.84 953.138 354.96 953.138 341.04ZM981.458 427.68C1012.9 427.68 1011.7 469.92 984.098 469.92C949.538 469.92 959.618 427.68 981.458 427.68Z" fill="#BA020C"/>
<path d="M242.4 328.56C242.4 310.32 255.36 298.56 276.96 298.56C308.4 298.56 321.6 292.32 344.64 292.32C361.44 292.32 377.52 300.24 377.52 320.16C377.52 336.48 367.68 343.44 359.52 343.44C346.08 343.44 346.08 340.56 330.48 340.56C319.68 340.56 324.24 358.08 324.96 359.52C326.16 362.4 331.44 372.72 332.16 374.4C341.04 388.8 343.92 404.88 343.92 422.16C343.92 444.96 327.84 464.4 302.88 464.4C277.44 464.4 267.12 446.88 267.12 424.08C267.12 390 300.72 336 286.56 336C278.4 336 275.04 347.04 260.4 347.04C250.8 347.04 242.4 342.96 242.4 328.56ZM378.981 421.92C378.981 387.36 394.341 355.92 394.341 327.36C393.381 297.84 427.461 292.32 452.901 292.32C476.421 292.32 510.261 300.48 510.261 332.64C510.261 361.44 482.421 371.52 482.421 378.24C482.421 387.84 512.181 400.32 512.181 439.2C512.181 452.4 502.341 465.6 487.461 465.6C457.941 465.6 458.181 428.16 453.861 401.52C452.421 392.88 446.421 382.8 437.061 382.8C432.501 382.8 432.981 387.84 432.981 388.8C432.981 403.92 441.621 409.44 441.621 430.08C441.621 447.36 434.901 463.68 413.061 463.68C382.341 463.68 378.981 440.16 378.981 421.92ZM441.861 349.92C458.181 349.92 446.181 319.68 436.101 319.68C426.261 319.68 432.741 349.92 441.861 349.92ZM538.142 365.76C538.862 354.72 539.102 342.24 539.102 326.64C539.102 314.4 544.382 294.24 561.902 294C579.422 293.52 581.102 311.04 581.102 323.52C581.102 336.24 575.582 348.72 573.662 360.72C569.822 384 585.662 405.12 585.662 426.72C585.662 445.2 577.742 466.56 553.022 466.56C537.662 466.56 524.462 451.92 524.462 429.12C524.462 395.28 537.182 382.8 538.142 365.76ZM597.99 330.72C597.99 312.72 607.11 293.52 628.71 293.52C648.15 293.52 657.75 310.8 657.75 330C657.75 343.68 653.67 355.92 653.67 366.48C653.67 370.8 655.11 376.08 660.39 376.08C669.03 376.08 674.07 366 674.07 358.56C674.07 347.28 670.47 338.4 670.47 327.12C670.47 307.92 687.51 297.36 704.55 297.36C720.39 297.36 733.59 305.52 733.11 323.28C732.39 345.12 723.03 353.76 713.91 369.12C699.75 393.36 695.43 413.28 686.07 439.2C681.75 450.96 671.43 464.4 655.11 464.4C631.35 464.4 622.71 444.24 619.83 422.64C612.63 372.48 597.99 349.2 597.99 330.72ZM754.807 365.76C755.527 354.72 755.767 342.24 755.767 326.64C755.767 314.4 761.047 294.24 778.567 294C796.087 293.52 797.767 311.04 797.767 323.52C797.767 336.24 792.247 348.72 790.327 360.72C786.487 384 802.327 405.12 802.327 426.72C802.327 445.2 794.407 466.56 769.687 466.56C754.327 466.56 741.127 451.92 741.127 429.12C741.127 395.28 753.847 382.8 754.807 365.76ZM814.416 429.36C814.416 405.6 831.216 387.6 846.096 361.68C859.056 339.12 849.696 294.72 895.536 294.72C919.056 294.72 932.976 314.88 932.976 337.92C932.976 378.24 949.296 397.2 949.296 421.92C949.296 443.76 942.096 464.4 915.936 464.4C902.256 464.4 893.616 453.6 893.616 438.48C893.616 421.92 900.816 412.8 888.096 412.8C879.696 412.8 871.776 424.08 871.776 436.56C871.776 457.2 853.536 463.2 844.176 463.2C826.656 463.2 814.416 452.64 814.416 429.36ZM892.896 365.52C905.616 365.52 908.016 327.6 898.416 327.6C887.376 327.6 881.616 365.52 892.896 365.52ZM953.138 335.04C953.138 314.16 962.018 293.04 984.578 293.04C1004.74 293.04 1016.74 310.8 1016.74 328.08C1016.74 342.48 1010.02 355.92 1006.9 369.6C1003.78 383.76 1004.74 412.08 986.258 412.08C971.378 412.08 970.658 392.88 967.058 383.04C960.098 363.84 953.138 348.96 953.138 335.04ZM981.458 421.68C1012.9 421.68 1011.7 463.92 984.098 463.92C949.538 463.92 959.618 421.68 981.458 421.68Z" fill="#F31943"/>
<mask id="path-7-outside-1_2_2359" maskUnits="userSpaceOnUse" x="234" y="279" width="783" height="183" fill="black">
<rect fill="white" x="234" y="279" width="783" height="183"/>
<path d="M238.4 319.56C238.4 301.32 251.36 289.56 272.96 289.56C304.4 289.56 317.6 283.32 340.64 283.32C357.44 283.32 373.52 291.24 373.52 311.16C373.52 327.48 363.68 334.44 355.52 334.44C342.08 334.44 342.08 331.56 326.48 331.56C315.68 331.56 320.24 349.08 320.96 350.52C322.16 353.4 327.44 363.72 328.16 365.4C337.04 379.8 339.92 395.88 339.92 413.16C339.92 435.96 323.84 455.4 298.88 455.4C273.44 455.4 263.12 437.88 263.12 415.08C263.12 381 296.72 327 282.56 327C274.4 327 271.04 338.04 256.4 338.04C246.8 338.04 238.4 333.96 238.4 319.56ZM374.981 412.92C374.981 378.36 390.341 346.92 390.341 318.36C389.381 288.84 423.461 283.32 448.901 283.32C472.421 283.32 506.261 291.48 506.261 323.64C506.261 352.44 478.421 362.52 478.421 369.24C478.421 378.84 508.181 391.32 508.181 430.2C508.181 443.4 498.341 456.6 483.461 456.6C453.941 456.6 454.181 419.16 449.861 392.52C448.421 383.88 442.421 373.8 433.061 373.8C428.501 373.8 428.981 378.84 428.981 379.8C428.981 394.92 437.621 400.44 437.621 421.08C437.621 438.36 430.901 454.68 409.061 454.68C378.341 454.68 374.981 431.16 374.981 412.92ZM437.861 340.92C454.181 340.92 442.181 310.68 432.101 310.68C422.261 310.68 428.741 340.92 437.861 340.92ZM534.142 356.76C534.862 345.72 535.102 333.24 535.102 317.64C535.102 305.4 540.382 285.24 557.902 285C575.422 284.52 577.102 302.04 577.102 314.52C577.102 327.24 571.582 339.72 569.662 351.72C565.822 375 581.662 396.12 581.662 417.72C581.662 436.2 573.742 457.56 549.022 457.56C533.662 457.56 520.462 442.92 520.462 420.12C520.462 386.28 533.182 373.8 534.142 356.76ZM593.99 321.72C593.99 303.72 603.11 284.52 624.71 284.52C644.15 284.52 653.75 301.8 653.75 321C653.75 334.68 649.67 346.92 649.67 357.48C649.67 361.8 651.11 367.08 656.39 367.08C665.03 367.08 670.07 357 670.07 349.56C670.07 338.28 666.47 329.4 666.47 318.12C666.47 298.92 683.51 288.36 700.55 288.36C716.39 288.36 729.59 296.52 729.11 314.28C728.39 336.12 719.03 344.76 709.91 360.12C695.75 384.36 691.43 404.28 682.07 430.2C677.75 441.96 667.43 455.4 651.11 455.4C627.35 455.4 618.71 435.24 615.83 413.64C608.63 363.48 593.99 340.2 593.99 321.72ZM750.807 356.76C751.527 345.72 751.767 333.24 751.767 317.64C751.767 305.4 757.047 285.24 774.567 285C792.087 284.52 793.767 302.04 793.767 314.52C793.767 327.24 788.247 339.72 786.327 351.72C782.487 375 798.327 396.12 798.327 417.72C798.327 436.2 790.407 457.56 765.687 457.56C750.327 457.56 737.127 442.92 737.127 420.12C737.127 386.28 749.847 373.8 750.807 356.76ZM810.416 420.36C810.416 396.6 827.216 378.6 842.096 352.68C855.056 330.12 845.696 285.72 891.536 285.72C915.056 285.72 928.976 305.88 928.976 328.92C928.976 369.24 945.296 388.2 945.296 412.92C945.296 434.76 938.096 455.4 911.936 455.4C898.256 455.4 889.616 444.6 889.616 429.48C889.616 412.92 896.816 403.8 884.096 403.8C875.696 403.8 867.776 415.08 867.776 427.56C867.776 448.2 849.536 454.2 840.176 454.2C822.656 454.2 810.416 443.64 810.416 420.36ZM888.896 356.52C901.616 356.52 904.016 318.6 894.416 318.6C883.376 318.6 877.616 356.52 888.896 356.52ZM949.138 326.04C949.138 305.16 958.018 284.04 980.578 284.04C1000.74 284.04 1012.74 301.8 1012.74 319.08C1012.74 333.48 1006.02 346.92 1002.9 360.6C999.778 374.76 1000.74 403.08 982.258 403.08C967.378 403.08 966.658 383.88 963.058 374.04C956.098 354.84 949.138 339.96 949.138 326.04ZM977.458 412.68C1008.9 412.68 1007.7 454.92 980.098 454.92C945.538 454.92 955.618 412.68 977.458 412.68Z"/>
</mask>
<path d="M238.4 319.56C238.4 301.32 251.36 289.56 272.96 289.56C304.4 289.56 317.6 283.32 340.64 283.32C357.44 283.32 373.52 291.24 373.52 311.16C373.52 327.48 363.68 334.44 355.52 334.44C342.08 334.44 342.08 331.56 326.48 331.56C315.68 331.56 320.24 349.08 320.96 350.52C322.16 353.4 327.44 363.72 328.16 365.4C337.04 379.8 339.92 395.88 339.92 413.16C339.92 435.96 323.84 455.4 298.88 455.4C273.44 455.4 263.12 437.88 263.12 415.08C263.12 381 296.72 327 282.56 327C274.4 327 271.04 338.04 256.4 338.04C246.8 338.04 238.4 333.96 238.4 319.56ZM374.981 412.92C374.981 378.36 390.341 346.92 390.341 318.36C389.381 288.84 423.461 283.32 448.901 283.32C472.421 283.32 506.261 291.48 506.261 323.64C506.261 352.44 478.421 362.52 478.421 369.24C478.421 378.84 508.181 391.32 508.181 430.2C508.181 443.4 498.341 456.6 483.461 456.6C453.941 456.6 454.181 419.16 449.861 392.52C448.421 383.88 442.421 373.8 433.061 373.8C428.501 373.8 428.981 378.84 428.981 379.8C428.981 394.92 437.621 400.44 437.621 421.08C437.621 438.36 430.901 454.68 409.061 454.68C378.341 454.68 374.981 431.16 374.981 412.92ZM437.861 340.92C454.181 340.92 442.181 310.68 432.101 310.68C422.261 310.68 428.741 340.92 437.861 340.92ZM534.142 356.76C534.862 345.72 535.102 333.24 535.102 317.64C535.102 305.4 540.382 285.24 557.902 285C575.422 284.52 577.102 302.04 577.102 314.52C577.102 327.24 571.582 339.72 569.662 351.72C565.822 375 581.662 396.12 581.662 417.72C581.662 436.2 573.742 457.56 549.022 457.56C533.662 457.56 520.462 442.92 520.462 420.12C520.462 386.28 533.182 373.8 534.142 356.76ZM593.99 321.72C593.99 303.72 603.11 284.52 624.71 284.52C644.15 284.52 653.75 301.8 653.75 321C653.75 334.68 649.67 346.92 649.67 357.48C649.67 361.8 651.11 367.08 656.39 367.08C665.03 367.08 670.07 357 670.07 349.56C670.07 338.28 666.47 329.4 666.47 318.12C666.47 298.92 683.51 288.36 700.55 288.36C716.39 288.36 729.59 296.52 729.11 314.28C728.39 336.12 719.03 344.76 709.91 360.12C695.75 384.36 691.43 404.28 682.07 430.2C677.75 441.96 667.43 455.4 651.11 455.4C627.35 455.4 618.71 435.24 615.83 413.64C608.63 363.48 593.99 340.2 593.99 321.72ZM750.807 356.76C751.527 345.72 751.767 333.24 751.767 317.64C751.767 305.4 757.047 285.24 774.567 285C792.087 284.52 793.767 302.04 793.767 314.52C793.767 327.24 788.247 339.72 786.327 351.72C782.487 375 798.327 396.12 798.327 417.72C798.327 436.2 790.407 457.56 765.687 457.56C750.327 457.56 737.127 442.92 737.127 420.12C737.127 386.28 749.847 373.8 750.807 356.76ZM810.416 420.36C810.416 396.6 827.216 378.6 842.096 352.68C855.056 330.12 845.696 285.72 891.536 285.72C915.056 285.72 928.976 305.88 928.976 328.92C928.976 369.24 945.296 388.2 945.296 412.92C945.296 434.76 938.096 455.4 911.936 455.4C898.256 455.4 889.616 444.6 889.616 429.48C889.616 412.92 896.816 403.8 884.096 403.8C875.696 403.8 867.776 415.08 867.776 427.56C867.776 448.2 849.536 454.2 840.176 454.2C822.656 454.2 810.416 443.64 810.416 420.36ZM888.896 356.52C901.616 356.52 904.016 318.6 894.416 318.6C883.376 318.6 877.616 356.52 888.896 356.52ZM949.138 326.04C949.138 305.16 958.018 284.04 980.578 284.04C1000.74 284.04 1012.74 301.8 1012.74 319.08C1012.74 333.48 1006.02 346.92 1002.9 360.6C999.778 374.76 1000.74 403.08 982.258 403.08C967.378 403.08 966.658 383.88 963.058 374.04C956.098 354.84 949.138 339.96 949.138 326.04ZM977.458 412.68C1008.9 412.68 1007.7 454.92 980.098 454.92C945.538 454.92 955.618 412.68 977.458 412.68Z" fill="url(#paint1_linear_2_2359)"/>
<path d="M320.96 350.52L324.652 348.982L324.599 348.854L324.538 348.731L320.96 350.52ZM328.16 365.4L324.483 366.976L324.6 367.248L324.755 367.5L328.16 365.4ZM242.4 319.56C242.4 311.443 245.249 305.093 250.22 300.725C255.249 296.306 262.86 293.56 272.96 293.56V285.56C261.46 285.56 251.791 288.694 244.94 294.715C238.031 300.787 234.4 309.437 234.4 319.56H242.4ZM272.96 293.56C288.979 293.56 300.37 291.966 310.56 290.393C320.74 288.822 329.484 287.32 340.64 287.32V279.32C328.756 279.32 319.38 280.938 309.34 282.487C299.31 284.034 288.381 285.56 272.96 285.56V293.56ZM340.64 287.32C348.491 287.32 355.793 289.182 361.021 293C366.077 296.693 369.52 302.436 369.52 311.16H377.52C377.52 299.964 372.923 291.787 365.739 286.54C358.727 281.418 349.589 279.32 340.64 279.32V287.32ZM369.52 311.16C369.52 325.589 361.166 330.44 355.52 330.44V338.44C366.194 338.44 377.52 329.371 377.52 311.16H369.52ZM355.52 330.44C349.19 330.44 346.13 329.779 342.588 329.076C338.78 328.321 334.611 327.56 326.48 327.56V335.56C333.949 335.56 337.58 336.239 341.032 336.924C344.75 337.661 348.41 338.44 355.52 338.44V330.44ZM326.48 327.56C322.483 327.56 319.453 329.293 317.604 332.143C315.939 334.71 315.469 337.812 315.401 340.395C315.331 343.06 315.679 345.693 316.074 347.716C316.274 348.739 316.493 349.645 316.695 350.369C316.864 350.972 317.101 351.746 317.382 352.309L324.538 348.731C324.639 348.934 324.576 348.845 324.4 348.215C324.257 347.705 324.086 347.006 323.926 346.184C323.601 344.517 323.349 342.5 323.399 340.605C323.451 338.628 323.821 337.26 324.316 336.497C324.627 336.017 325.077 335.56 326.48 335.56V327.56ZM317.268 352.058C317.931 353.651 319.628 357.101 321.155 360.185C322.77 363.446 324.181 366.27 324.483 366.976L331.837 363.824C331.419 362.85 329.83 359.674 328.325 356.635C326.732 353.419 325.189 350.269 324.652 348.982L317.268 352.058ZM324.755 367.5C333.111 381.05 335.92 396.314 335.92 413.16H343.92C343.92 395.446 340.969 378.55 331.565 363.3L324.755 367.5ZM335.92 413.16C335.92 434.046 321.347 451.4 298.88 451.4V459.4C326.333 459.4 343.92 437.874 343.92 413.16H335.92ZM298.88 451.4C287.165 451.4 279.466 447.42 274.589 441.298C269.591 435.025 267.12 425.955 267.12 415.08H259.12C259.12 427.005 261.809 438.095 268.331 446.282C274.974 454.62 285.155 459.4 298.88 459.4V451.4ZM267.12 415.08C267.12 407.137 269.091 397.809 271.983 388.079C274.865 378.382 278.569 368.576 281.897 359.659C285.171 350.891 288.178 342.746 289.413 336.781C290.01 333.898 290.356 330.834 289.639 328.298C289.25 326.92 288.486 325.486 287.094 324.429C285.701 323.371 284.085 323 282.56 323V331C282.805 331 282.586 331.051 282.256 330.8C281.928 330.551 281.894 330.31 281.941 330.475C282.097 331.026 282.141 332.447 281.579 335.159C280.497 340.384 277.759 347.869 274.403 356.861C271.101 365.704 267.29 375.788 264.314 385.801C261.349 395.781 259.12 405.983 259.12 415.08H267.12ZM282.56 323C279.537 323 277.071 324.046 275.001 325.313C273.1 326.476 271.1 328.131 269.514 329.317C266.161 331.825 262.499 334.04 256.4 334.04V342.04C264.941 342.04 270.279 338.735 274.306 335.723C276.41 334.149 277.695 333.044 279.177 332.137C280.489 331.334 281.503 331 282.56 331V323ZM256.4 334.04C252.072 334.04 248.678 333.107 246.399 331.159C244.24 329.315 242.4 325.969 242.4 319.56H234.4C234.4 327.551 236.76 333.445 241.201 337.241C245.522 340.933 251.128 342.04 256.4 342.04V334.04ZM390.341 318.36H394.341V318.295L394.339 318.23L390.341 318.36ZM449.861 392.52L453.809 391.88L453.808 391.871L453.806 391.862L449.861 392.52ZM378.981 412.92C378.981 396.181 382.7 380.116 386.547 364.337C390.347 348.749 394.341 333.226 394.341 318.36H386.341C386.341 332.054 382.654 346.531 378.774 362.443C374.941 378.164 370.981 395.099 370.981 412.92H378.981ZM394.339 318.23C394.126 311.682 395.841 306.702 398.723 302.812C401.648 298.862 405.966 295.78 411.325 293.434C422.134 288.702 436.342 287.32 448.901 287.32V279.32C436.02 279.32 420.467 280.698 408.116 286.106C401.895 288.83 396.284 292.663 392.294 298.051C388.26 303.497 386.076 310.278 386.343 318.49L394.339 318.23ZM448.901 287.32C460.316 287.32 473.924 289.318 484.523 294.952C494.896 300.466 502.261 309.331 502.261 323.64H510.261C510.261 305.789 500.705 294.494 488.278 287.888C476.077 281.402 461.006 279.32 448.901 279.32V287.32ZM502.261 323.64C502.261 336.561 496.081 345.322 489.512 351.892C486.123 355.28 482.933 357.812 480.1 360.352C478.769 361.545 477.457 362.8 476.464 364.071C475.524 365.275 474.421 367.051 474.421 369.24H482.421C482.421 369.749 482.187 369.74 482.77 368.994C483.3 368.315 484.162 367.455 485.441 366.308C487.828 364.168 491.598 361.12 495.169 357.548C502.52 350.198 510.261 339.519 510.261 323.64H502.261ZM474.421 369.24C474.421 371.472 475.28 373.455 476.283 375.102C477.292 376.758 478.652 378.404 480.086 380.01C483.117 383.408 486.528 386.737 490.193 391.259C497.244 399.959 504.181 411.937 504.181 430.2H512.181C512.181 409.583 504.237 395.881 496.408 386.221C492.633 381.563 488.605 377.542 486.056 374.685C484.699 373.164 483.734 371.956 483.116 370.94C482.491 369.915 482.421 369.408 482.421 369.24H474.421ZM504.181 430.2C504.181 441.72 495.637 452.6 483.461 452.6V460.6C501.044 460.6 512.181 445.08 512.181 430.2H504.181ZM483.461 452.6C477.023 452.6 472.501 450.598 469.097 447.413C465.586 444.127 462.989 439.32 461.011 433.301C459.038 427.298 457.779 420.401 456.741 413.2C455.731 406.196 454.887 398.528 453.809 391.88L445.912 393.16C446.994 399.832 447.74 406.834 448.823 414.342C449.877 421.654 451.213 429.112 453.411 435.799C455.603 442.47 458.751 448.688 463.631 453.255C468.62 457.922 475.138 460.6 483.461 460.6V452.6ZM453.806 391.862C452.992 386.978 450.896 381.643 447.567 377.437C444.217 373.206 439.327 369.8 433.061 369.8V377.8C436.154 377.8 438.944 379.434 441.294 382.403C443.665 385.397 445.289 389.422 445.915 393.178L453.806 391.862ZM433.061 369.8C431.138 369.8 429.38 370.351 427.967 371.506C426.607 372.618 425.89 374.026 425.508 375.2C425.128 376.365 425.015 377.482 424.981 378.285C424.951 378.966 424.981 379.913 424.981 379.8H432.981C432.981 379.677 432.977 379.545 432.975 379.467C432.972 379.37 432.97 379.287 432.968 379.193C432.965 379.011 432.965 378.823 432.973 378.63C432.991 378.218 433.044 377.895 433.114 377.68C433.181 377.474 433.199 377.562 433.031 377.699C432.812 377.879 432.703 377.8 433.061 377.8V369.8ZM424.981 379.8C424.981 388.196 427.435 394.032 429.548 399.755C431.631 405.395 433.621 411.43 433.621 421.08H441.621C441.621 410.09 439.291 403.045 437.053 396.984C434.846 391.008 432.981 386.524 432.981 379.8H424.981ZM433.621 421.08C433.621 429.308 432.003 436.761 428.264 442.051C424.689 447.11 418.836 450.68 409.061 450.68V458.68C421.125 458.68 429.553 454.09 434.797 446.669C439.878 439.479 441.621 430.132 441.621 421.08H433.621ZM409.061 450.68C401.889 450.68 396.601 449.309 392.669 447.196C388.761 445.097 385.979 442.153 383.97 438.65C379.852 431.469 378.981 421.96 378.981 412.92H370.981C370.981 422.12 371.789 433.491 377.031 442.63C379.702 447.287 383.52 451.363 388.883 454.244C394.22 457.111 400.872 458.68 409.061 458.68V450.68ZM437.861 344.92C440.523 344.92 442.951 344.298 444.964 342.927C446.988 341.548 448.287 339.62 449.03 337.54C450.453 333.556 449.933 328.809 448.719 324.673C447.474 320.434 445.307 316.173 442.661 312.893C440.182 309.821 436.511 306.68 432.101 306.68V314.68C432.73 314.68 434.339 315.319 436.435 317.917C438.364 320.307 440.068 323.606 441.043 326.927C442.048 330.351 442.098 333.164 441.496 334.85C441.226 335.605 440.864 336.04 440.461 336.315C440.045 336.597 439.278 336.92 437.861 336.92V344.92ZM432.101 306.68C429.706 306.68 427.663 307.657 426.18 309.298C424.806 310.821 424.066 312.732 423.663 314.532C422.86 318.124 423.126 322.521 423.95 326.593C424.783 330.708 426.279 334.955 428.318 338.284C430.178 341.321 433.331 344.92 437.861 344.92V336.92C437.83 336.92 436.753 336.739 435.14 334.106C433.707 331.765 432.488 328.452 431.791 325.007C431.085 321.519 431.006 318.356 431.471 316.278C431.702 315.243 431.999 314.792 432.118 314.66C432.128 314.648 432.035 314.68 432.101 314.68V306.68ZM534.142 356.76L530.15 356.5L530.149 356.517L530.148 356.535L534.142 356.76ZM557.902 285L557.957 289L557.984 288.999L558.011 288.998L557.902 285ZM569.662 351.72L573.609 352.371L573.61 352.361L573.612 352.352L569.662 351.72ZM538.133 357.02C538.862 345.851 539.102 333.27 539.102 317.64H531.102C531.102 333.21 530.862 345.589 530.15 356.5L538.133 357.02ZM539.102 317.64C539.102 311.97 540.345 304.563 543.464 298.698C546.513 292.964 551.078 289.094 557.957 289L557.847 281C547.205 281.146 540.371 287.476 536.4 294.942C532.499 302.277 531.102 311.07 531.102 317.64H539.102ZM558.011 288.998C561.694 288.898 564.231 289.739 566.055 290.97C567.904 292.219 569.332 294.082 570.416 296.523C572.652 301.562 573.102 308.303 573.102 314.52H581.102C581.102 308.257 580.711 299.998 577.728 293.277C576.201 289.838 573.925 286.631 570.532 284.34C567.112 282.031 562.87 280.862 557.792 281.001L558.011 288.998ZM573.102 314.52C573.102 320.341 571.837 326.227 570.231 332.38C568.668 338.372 566.713 344.834 565.712 351.088L573.612 352.352C574.531 346.606 576.295 340.828 577.972 334.4C579.607 328.133 581.102 321.419 581.102 314.52H573.102ZM565.715 351.069C563.624 363.744 566.927 375.664 570.412 386.568C573.994 397.778 577.662 407.707 577.662 417.72H585.662C585.662 406.133 581.41 394.702 578.032 384.132C574.556 373.256 571.859 362.976 573.609 352.371L565.715 351.069ZM577.662 417.72C577.662 426.489 575.767 435.586 571.278 442.36C566.933 448.916 560.012 453.56 549.022 453.56V461.56C562.752 461.56 572.151 455.524 577.946 446.78C583.597 438.254 585.662 427.431 585.662 417.72H577.662ZM549.022 453.56C536.65 453.56 524.462 441.581 524.462 420.12H516.462C516.462 444.259 530.673 461.56 549.022 461.56V453.56ZM524.462 420.12C524.462 403.773 527.519 392.649 530.72 383.455C533.846 374.473 537.614 366.243 538.136 356.985L530.148 356.535C529.71 364.317 526.638 370.847 523.164 380.825C519.765 390.591 516.462 402.627 516.462 420.12H524.462ZM729.11 314.28L733.108 314.412L733.108 314.4L733.109 314.388L729.11 314.28ZM709.91 360.12L706.471 358.078L706.463 358.09L706.456 358.102L709.91 360.12ZM682.07 430.2L685.825 431.579L685.828 431.569L685.832 431.559L682.07 430.2ZM615.83 413.64L619.795 413.111L619.792 413.091L619.789 413.072L615.83 413.64ZM597.99 321.72C597.99 313.316 600.132 304.886 604.517 298.678C608.794 292.624 615.287 288.52 624.71 288.52V280.52C612.533 280.52 603.667 286.016 597.983 294.062C592.408 301.954 589.99 312.124 589.99 321.72H597.99ZM624.71 288.52C633.07 288.52 639.15 292.16 643.272 297.895C647.491 303.764 649.75 312.001 649.75 321H657.75C657.75 310.799 655.209 300.796 649.768 293.225C644.23 285.52 635.79 280.52 624.71 280.52V288.52ZM649.75 321C649.75 327.472 648.785 333.656 647.765 339.749C646.767 345.709 645.67 351.79 645.67 357.48H653.67C653.67 352.61 654.613 347.291 655.655 341.071C656.675 334.984 657.75 328.208 657.75 321H649.75ZM645.67 357.48C645.67 359.97 646.067 363.133 647.543 365.823C649.156 368.766 652.076 371.08 656.39 371.08V363.08C655.77 363.08 655.452 362.936 655.271 362.82C655.067 362.689 654.815 362.447 654.557 361.977C653.993 360.947 653.67 359.31 653.67 357.48H645.67ZM656.39 371.08C662.451 371.08 666.964 367.508 669.78 363.355C672.576 359.234 674.07 354.07 674.07 349.56H666.07C666.07 352.49 665.044 356.086 663.16 358.865C661.296 361.612 658.969 363.08 656.39 363.08V371.08ZM674.07 349.56C674.07 343.516 673.102 338.143 672.208 333.137C671.302 328.063 670.47 323.356 670.47 318.12H662.47C662.47 324.164 663.438 329.537 664.332 334.543C665.238 339.617 666.07 344.324 666.07 349.56H674.07ZM670.47 318.12C670.47 309.839 674.092 303.523 679.597 299.181C685.189 294.77 692.804 292.36 700.55 292.36V284.36C691.256 284.36 681.831 287.23 674.643 292.899C667.368 298.637 662.47 307.201 662.47 318.12H670.47ZM700.55 292.36C707.847 292.36 714.117 294.246 718.421 297.759C722.592 301.163 725.321 306.411 725.111 314.172L733.109 314.388C733.379 304.389 729.749 296.677 723.479 291.561C717.344 286.554 709.093 284.36 700.55 284.36V292.36ZM725.112 314.148C724.436 334.65 716.016 342.002 706.471 358.078L713.349 362.162C722.044 347.518 732.344 337.59 733.108 314.412L725.112 314.148ZM706.456 358.102C692.051 382.763 687.49 403.413 678.308 428.841L685.832 431.559C695.37 405.147 699.449 385.957 713.364 362.138L706.456 358.102ZM678.315 428.821C674.221 439.966 664.921 451.4 651.11 451.4V459.4C669.939 459.4 681.279 443.954 685.825 431.579L678.315 428.821ZM651.11 451.4C640.592 451.4 633.681 447.043 628.903 440.306C623.963 433.342 621.201 423.657 619.795 413.111L611.865 414.169C613.339 425.223 616.337 436.418 622.377 444.934C628.579 453.677 637.868 459.4 651.11 459.4V451.4ZM619.789 413.072C616.145 387.679 610.612 369.082 606.023 354.592C601.352 339.839 597.99 330.173 597.99 321.72H589.99C589.99 331.747 593.948 342.961 598.397 357.008C602.928 371.318 608.315 389.441 611.871 414.208L619.789 413.072ZM750.807 356.76L746.816 356.5L746.815 356.517L746.814 356.535L750.807 356.76ZM774.568 285L774.622 289L774.65 288.999L774.677 288.998L774.568 285ZM786.328 351.72L790.274 352.371L790.276 352.361L790.277 352.352L786.328 351.72ZM754.799 357.02C755.527 345.851 755.768 333.27 755.768 317.64H747.767C747.767 333.21 747.528 345.589 746.816 356.5L754.799 357.02ZM755.768 317.64C755.768 311.97 757.01 304.563 760.129 298.698C763.178 292.964 767.744 289.094 774.622 289L774.513 281C763.871 281.146 757.037 287.476 753.066 294.942C749.165 302.277 747.767 311.07 747.767 317.64H755.768ZM774.677 288.998C778.36 288.898 780.897 289.739 782.72 290.97C784.57 292.219 785.998 294.082 787.081 296.523C789.318 301.562 789.768 308.303 789.768 314.52H797.768C797.768 308.257 797.377 299.998 794.393 293.277C792.867 289.838 790.59 286.631 787.197 284.34C783.778 282.031 779.535 280.862 774.458 281.001L774.677 288.998ZM789.768 314.52C789.768 320.341 788.502 326.227 786.897 332.38C785.334 338.372 783.378 344.834 782.378 351.088L790.277 352.352C791.197 346.606 792.961 340.828 794.638 334.4C796.273 328.133 797.768 321.419 797.768 314.52H789.768ZM782.381 351.069C780.29 363.744 783.593 375.664 787.077 386.568C790.66 397.778 794.328 407.707 794.328 417.72H802.328C802.328 406.133 798.075 394.702 794.698 384.132C791.222 373.256 788.525 362.976 790.274 352.371L782.381 351.069ZM794.328 417.72C794.328 426.489 792.433 435.586 787.943 442.36C783.598 448.916 776.677 453.56 765.688 453.56V461.56C779.418 461.56 788.817 455.524 794.612 446.78C800.262 438.254 802.328 427.431 802.328 417.72H794.328ZM765.688 453.56C753.316 453.56 741.128 441.581 741.128 420.12H733.128C733.128 444.259 747.339 461.56 765.688 461.56V453.56ZM741.128 420.12C741.128 403.773 744.185 392.649 747.385 383.455C750.512 374.473 754.28 366.243 754.801 356.985L746.814 356.535C746.375 364.317 743.303 370.847 739.83 380.825C736.43 390.591 733.128 402.627 733.128 420.12H741.128ZM842.096 352.68L838.627 350.688L838.627 350.689L842.096 352.68ZM814.416 420.36C814.416 409.479 818.243 399.751 824.157 389.3C827.12 384.062 830.55 378.74 834.233 373.012C837.896 367.315 841.788 361.251 845.565 354.671L838.627 350.689C834.964 357.069 831.175 362.975 827.504 368.685C823.852 374.365 820.291 379.888 817.194 385.36C810.988 396.329 806.416 407.481 806.416 420.36H814.416ZM845.564 354.672C849.138 348.451 851.086 340.901 852.743 333.584C854.447 326.059 855.853 318.753 858.249 312.095C860.617 305.516 863.806 300.035 868.759 296.16C873.667 292.321 880.743 289.72 891.536 289.72V281.72C879.408 281.72 870.464 284.669 863.83 289.86C857.24 295.015 853.364 302.044 850.722 309.385C848.109 316.647 846.559 324.671 844.941 331.816C843.275 339.169 841.533 345.629 838.627 350.688L845.564 354.672ZM891.536 289.72C912.103 289.72 924.976 307.264 924.976 328.92H932.976C932.976 304.496 918.009 281.72 891.536 281.72V289.72ZM924.976 328.92C924.976 349.676 929.191 364.946 933.323 377.979C937.497 391.145 941.296 401.336 941.296 412.92H949.296C949.296 399.784 944.935 388.135 940.949 375.561C936.92 362.854 932.976 348.484 932.976 328.92H924.976ZM941.296 412.92C941.296 423.525 939.526 433.239 935.06 440.188C930.785 446.841 923.766 451.4 911.936 451.4V459.4C926.265 459.4 935.926 453.639 941.791 444.512C947.466 435.681 949.296 424.155 949.296 412.92H941.296ZM911.936 451.4C906.235 451.4 901.789 449.19 898.704 445.532C895.564 441.808 893.616 436.304 893.616 429.48H885.616C885.616 437.776 887.987 445.232 892.588 450.688C897.243 456.21 903.956 459.4 911.936 459.4V451.4ZM893.616 429.48C893.616 425.628 894.034 422.176 894.498 419.073C894.938 416.134 895.503 413.065 895.621 410.623C895.738 408.201 895.525 405.028 893.153 402.655C890.862 400.364 887.52 399.8 884.096 399.8V407.8C887.031 407.8 887.56 408.376 887.496 408.312C887.351 408.167 887.723 408.309 887.63 410.237C887.538 412.145 887.099 414.461 886.586 417.889C886.098 421.154 885.616 425.052 885.616 429.48H893.616ZM884.096 399.8C878.066 399.8 872.921 403.773 869.496 408.724C865.999 413.779 863.776 420.515 863.776 427.56H871.776C871.776 422.125 873.512 416.981 876.075 413.276C878.71 409.467 881.725 407.8 884.096 407.8V399.8ZM863.776 427.56C863.776 436.493 859.92 441.976 855.166 445.362C850.222 448.882 844.169 450.2 840.176 450.2V458.2C845.543 458.2 853.289 456.518 859.806 451.878C866.511 447.104 871.776 439.267 871.776 427.56H863.776ZM840.176 450.2C832.221 450.2 825.945 447.822 821.631 443.261C817.293 438.675 814.416 431.328 814.416 420.36H806.416C806.416 432.672 809.658 442.245 815.82 448.759C822.006 455.298 830.61 458.2 840.176 458.2V450.2ZM888.896 360.52C894.346 360.52 897.924 356.445 900.017 352.452C902.191 348.305 903.476 343.028 904.004 337.975C904.532 332.923 904.346 327.673 903.263 323.516C902.726 321.455 901.896 319.378 900.582 317.733C899.201 316.004 897.128 314.6 894.416 314.6V322.6C894.103 322.6 894.055 322.381 894.331 322.726C894.674 323.155 895.132 324.04 895.521 325.534C896.291 328.487 896.51 332.717 896.047 337.145C895.585 341.572 894.485 345.775 892.932 348.738C891.297 351.855 889.805 352.52 888.896 352.52V360.52ZM894.416 314.6C889.251 314.6 885.804 318.888 883.788 322.627C881.593 326.7 880.081 331.915 879.329 336.972C878.581 342.002 878.52 347.309 879.562 351.55C880.082 353.665 880.95 355.819 882.421 357.513C883.994 359.324 886.199 360.52 888.896 360.52V352.52C888.772 352.52 888.69 352.531 888.461 352.268C888.132 351.889 887.685 351.08 887.331 349.64C886.626 346.771 886.58 342.598 887.242 338.148C887.9 333.725 889.193 329.46 890.83 326.423C892.647 323.052 894.061 322.6 894.416 322.6V314.6ZM1002.9 360.6L998.998 359.711L998.994 359.725L998.991 359.739L1002.9 360.6ZM963.057 374.04L959.297 375.403L959.301 375.414L963.057 374.04ZM953.138 326.04C953.138 316.077 955.27 306.405 959.768 299.363C964.145 292.513 970.79 288.04 980.578 288.04V280.04C967.805 280.04 958.73 286.127 953.027 295.057C947.445 303.795 945.138 315.123 945.138 326.04H953.138ZM980.578 288.04C997.889 288.04 1008.74 303.31 1008.74 319.08H1016.74C1016.74 300.29 1003.59 280.04 980.578 280.04V288.04ZM1008.74 319.08C1008.74 325.683 1007.2 332.191 1005.16 338.956C1003.18 345.528 1000.6 352.702 998.998 359.711L1006.8 361.489C1008.32 354.818 1010.66 348.432 1012.82 341.264C1014.92 334.289 1016.74 326.877 1016.74 319.08H1008.74ZM998.991 359.739C998.166 363.485 997.611 368.159 996.992 372.668C996.356 377.304 995.635 381.937 994.484 386.079C993.322 390.259 991.819 393.563 989.851 395.776C988.021 397.834 985.688 399.08 982.258 399.08V407.08C988.067 407.08 992.544 404.786 995.829 401.092C998.976 397.552 1000.89 392.891 1002.19 388.221C1003.5 383.513 1004.28 378.411 1004.92 373.755C1005.57 368.971 1006.07 364.795 1006.8 361.461L998.991 359.739ZM982.258 399.08C979.498 399.08 977.607 398.226 976.131 396.926C974.557 395.538 973.252 393.453 972.125 390.723C971.001 388.001 970.167 384.93 969.361 381.747C968.588 378.694 967.805 375.374 966.814 372.666L959.301 375.414C960.11 377.626 960.767 380.396 961.606 383.711C962.413 386.895 963.364 390.469 964.73 393.777C966.093 397.077 967.983 400.407 970.841 402.927C973.798 405.534 977.577 407.08 982.258 407.08V399.08ZM966.818 372.677C963.25 362.834 959.883 354.626 957.284 346.799C954.721 339.082 953.138 332.362 953.138 326.04H945.138C945.138 333.638 947.034 341.318 949.691 349.321C952.312 357.214 955.905 366.046 959.297 375.403L966.818 372.677ZM977.458 416.68C984.37 416.68 989.117 418.974 992.157 422.078C995.244 425.232 996.844 429.499 996.918 433.868C996.993 438.249 995.53 442.531 992.754 445.67C990.038 448.741 985.893 450.92 980.098 450.92V458.92C988.102 458.92 994.457 455.819 998.746 450.97C1002.97 446.189 1005.02 439.911 1004.92 433.732C1004.81 427.541 1002.54 421.248 997.873 416.481C993.158 411.666 986.265 408.68 977.458 408.68V416.68ZM980.098 450.92C972.284 450.92 967.636 448.557 965.003 445.64C962.333 442.681 961.222 438.583 961.612 434.151C962.004 429.701 963.898 425.227 966.802 421.919C969.682 418.638 973.375 416.68 977.458 416.68V408.68C970.62 408.68 964.862 412.002 960.79 416.641C956.742 421.253 954.181 427.339 953.643 433.449C953.103 439.577 954.587 446.039 959.064 451C963.579 456.003 970.631 458.92 980.098 458.92V450.92Z" fill="#FFFF7F" mask="url(#path-7-outside-1_2_2359)"/>
<path d="M402.394 298.732C406.655 294.73 413.24 292.236 417.106 293.162C420.972 294.088 420.656 298.075 416.408 302.075C412.159 306.076 405.562 308.571 401.696 307.646C397.83 306.72 398.146 302.733 402.394 298.732Z" fill="white"/>
<path d="M431.893 296.908C436.544 296.558 440.209 294.87 440.079 293.137C439.949 291.405 436.073 290.283 431.422 290.633C426.77 290.982 423.106 292.67 423.236 294.403C423.366 296.136 427.242 297.257 431.893 296.908Z" fill="white"/>
<path d="M247.906 319.889C249.512 320.204 251.077 319.268 251.402 317.8C251.728 316.331 250.69 314.885 249.085 314.57C247.48 314.255 245.915 315.191 245.589 316.659C245.264 318.128 246.301 319.574 247.906 319.889Z" fill="white"/>
<path d="M258.107 302.026C264.194 297.652 273.302 294.647 278.453 295.311C283.604 295.976 282.852 300.052 276.78 304.423C270.709 308.793 261.585 311.802 256.434 311.138C251.283 310.473 252.035 306.397 258.107 302.026Z" fill="white"/>
<path d="M296.893 299.908C301.544 299.558 305.209 297.87 305.079 296.138C304.949 294.405 301.073 293.284 296.422 293.633C291.77 293.982 288.106 295.67 288.236 297.403C288.366 299.136 292.242 300.257 296.893 299.908Z" fill="white"/>
<path d="M322.891 442.263C326.603 439.912 328.901 436.886 328.026 435.503C327.15 434.121 323.431 434.905 319.72 437.256C316.009 439.606 313.71 442.633 314.586 444.015C315.461 445.398 319.18 444.613 322.891 442.263Z" fill="#FFBD9C"/>
<path d="M309.087 448.045C310.823 447.513 312.019 446.392 311.758 445.541C311.498 444.69 309.879 444.431 308.143 444.962C306.407 445.494 305.211 446.615 305.472 447.466C305.732 448.317 307.351 448.576 309.087 448.045Z" fill="#FFBD9C"/>
<path d="M542.977 305.006C544.069 305.22 545.134 304.584 545.356 303.585C545.577 302.586 544.871 301.602 543.779 301.388C542.687 301.174 541.622 301.81 541.401 302.809C541.179 303.808 541.885 304.792 542.977 305.006Z" fill="white"/>
<path d="M603.977 306.006C605.069 306.22 606.134 305.584 606.356 304.585C606.577 303.586 605.871 302.602 604.779 302.388C603.687 302.174 602.622 302.81 602.401 303.809C602.179 304.808 602.885 305.792 603.977 306.006Z" fill="white"/>
<path d="M759.977 305.006C761.069 305.22 762.134 304.584 762.356 303.585C762.577 302.586 761.871 301.602 760.779 301.388C759.687 301.174 758.622 301.81 758.401 302.809C758.179 303.808 758.885 304.792 759.977 305.006Z" fill="white"/>
<path d="M959.977 305.006C961.069 305.22 962.134 304.584 962.356 303.585C962.577 302.586 961.871 301.602 960.779 301.388C959.687 301.174 958.622 301.81 958.401 302.809C958.179 303.808 958.885 304.792 959.977 305.006Z" fill="white"/>
<path d="M547.452 293.493C550.239 290.875 554.508 289.206 556.989 289.765C559.47 290.324 559.226 292.894 556.447 295.51C553.669 298.126 549.392 299.796 546.911 299.237C544.429 298.679 544.673 296.109 547.452 293.493Z" fill="white"/>
<path d="M608.452 294.493C611.239 291.875 615.508 290.206 617.989 290.765C620.47 291.324 620.226 293.894 617.447 296.51C614.669 299.126 610.392 300.796 607.911 300.237C605.429 299.679 605.673 297.109 608.452 294.493Z" fill="white"/>
<path d="M764.452 293.493C767.239 290.875 771.508 289.206 773.989 289.765C776.47 290.324 776.226 292.894 773.447 295.51C770.669 298.126 766.392 299.796 763.911 299.237C761.429 298.679 761.673 296.109 764.452 293.493Z" fill="white"/>
<path d="M964.452 293.493C967.239 290.875 971.508 289.206 973.989 289.765C976.47 290.324 976.226 292.894 973.447 295.51C970.669 298.126 966.392 299.796 963.911 299.237C961.429 298.679 961.673 296.109 964.452 293.493Z" fill="white"/>
<path d="M862.813 310.727C863.814 310.796 864.695 310.107 864.78 309.188C864.866 308.269 864.124 307.469 863.123 307.4C862.121 307.331 861.24 308.02 861.155 308.939C861.069 309.858 861.812 310.658 862.813 310.727Z" fill="white"/>
<path d="M867.653 299.075C871.023 295.946 876.336 293.419 879.522 293.429C882.708 293.439 882.562 295.978 879.202 299.103C875.841 302.228 870.519 304.759 867.333 304.749C864.147 304.739 864.292 302.2 867.653 299.075Z" fill="white"/>
<path d="M932.846 442.905C935.274 440.349 936.471 437.543 935.519 436.639C934.567 435.734 931.826 437.072 929.397 439.628C926.969 442.184 925.772 444.989 926.724 445.894C927.676 446.799 930.417 445.46 932.846 442.905Z" fill="#FFBD9C"/>
<path d="M991.846 446.905C994.274 444.349 995.471 441.543 994.519 440.639C993.567 439.734 990.826 441.072 988.397 443.628C985.969 446.184 984.772 448.989 985.724 449.894C986.676 450.799 989.417 449.46 991.846 446.905Z" fill="#FFBD9C"/>
<path d="M922.782 448.585C923.808 448.27 924.434 447.34 924.179 446.508C923.924 445.675 922.885 445.255 921.859 445.57C920.832 445.884 920.207 446.814 920.462 447.646C920.716 448.479 921.755 448.899 922.782 448.585Z" fill="#FFBD9C"/>
</g>
<path d="M316.72 509.6C322.48 504 329.413 501.2 337.52 501.2C344.933 501.2 350.533 502.533 354.32 505.2V521.92C352.56 520.96 351.147 520.213 350.08 519.68C349.013 519.147 347.28 518.613 344.88 518.08C342.48 517.493 339.92 517.2 337.2 517.2C333.36 517.2 330.187 518.4 327.68 520.8C325.227 523.2 324 526.267 324 530C324 533.68 325.253 536.72 327.76 539.12C330.267 541.52 333.413 542.72 337.2 542.72C339.92 542.72 342.48 542.453 344.88 541.92C347.28 541.387 348.987 540.907 350 540.48C351.013 540 352.453 539.28 354.32 538.32V554.8C350.64 557.413 345.04 558.72 337.52 558.72C329.413 558.72 322.453 555.92 316.64 550.32C310.88 544.667 308 537.893 308 530C308 522.053 310.907 515.253 316.72 509.6ZM386.284 502H401.484V523.76H417.484V502H432.684V558H417.484V537.36H401.484V558H386.284V502ZM482.401 502H500.721L519.681 558H503.041L500.881 551.12H482.241L480.081 558H463.441L482.401 502ZM496.641 537.52L491.601 521.04L486.481 537.52H496.641ZM550.494 502H565.694V543.6H582.814V558H550.494V502ZM614.356 502H629.556V543.6H646.676V558H614.356V502ZM678.219 502H708.379V516.4H693.419V520.4H704.379V534.8H693.419V543.6H710.779V558H678.219V502ZM742.394 558V502H758.474L774.074 530.24V502H789.274V558H773.034L757.594 530.08V558H742.394ZM829.459 509.68C835.219 504.027 842.179 501.2 850.339 501.2C857.752 501.2 863.352 502.533 867.139 505.2V521.92C865.379 520.96 863.965 520.213 862.899 519.68C861.832 519.147 860.099 518.613 857.699 518.08C855.299 517.493 852.739 517.2 850.019 517.2C846.392 517.2 843.272 518.453 840.659 520.96C838.099 523.467 836.819 526.48 836.819 530C836.819 533.733 838.045 536.8 840.499 539.2C843.005 541.547 846.765 542.72 851.779 542.72C852.685 542.72 853.939 542.667 855.539 542.56V528.72H870.739V554.8C867.059 557.413 861.085 558.72 852.819 558.72C843.112 558.72 835.352 555.973 829.539 550.48C823.725 544.987 820.819 538.16 820.819 530C820.819 522.107 823.699 515.333 829.459 509.68ZM904.338 502H934.498V516.4H919.538V520.4H930.498V534.8H919.538V543.6H936.898V558H904.338V502Z" fill="#9C9FAB"/>
<path d="M313.72 506.6C319.48 501 326.413 498.2 334.52 498.2C341.933 498.2 347.533 499.533 351.32 502.2V518.92C349.56 517.96 348.147 517.213 347.08 516.68C346.013 516.147 344.28 515.613 341.88 515.08C339.48 514.493 336.92 514.2 334.2 514.2C330.36 514.2 327.187 515.4 324.68 517.8C322.227 520.2 321 523.267 321 527C321 530.68 322.253 533.72 324.76 536.12C327.267 538.52 330.413 539.72 334.2 539.72C336.92 539.72 339.48 539.453 341.88 538.92C344.28 538.387 345.987 537.907 347 537.48C348.013 537 349.453 536.28 351.32 535.32V551.8C347.64 554.413 342.04 555.72 334.52 555.72C326.413 555.72 319.453 552.92 313.64 547.32C307.88 541.667 305 534.893 305 527C305 519.053 307.907 512.253 313.72 506.6ZM383.284 499H398.484V520.76H414.484V499H429.684V555H414.484V534.36H398.484V555H383.284V499ZM479.401 499H497.721L516.681 555H500.041L497.881 548.12H479.241L477.081 555H460.441L479.401 499ZM493.641 534.52L488.601 518.04L483.481 534.52H493.641ZM547.494 499H562.694V540.6H579.814V555H547.494V499ZM611.356 499H626.556V540.6H643.676V555H611.356V499ZM675.219 499H705.379V513.4H690.419V517.4H701.379V531.8H690.419V540.6H707.779V555H675.219V499ZM739.394 555V499H755.474L771.074 527.24V499H786.274V555H770.034L754.594 527.08V555H739.394ZM826.459 506.68C832.219 501.027 839.179 498.2 847.339 498.2C854.752 498.2 860.352 499.533 864.139 502.2V518.92C862.379 517.96 860.965 517.213 859.899 516.68C858.832 516.147 857.099 515.613 854.699 515.08C852.299 514.493 849.739 514.2 847.019 514.2C843.392 514.2 840.272 515.453 837.659 517.96C835.099 520.467 833.819 523.48 833.819 527C833.819 530.733 835.045 533.8 837.499 536.2C840.005 538.547 843.765 539.72 848.779 539.72C849.685 539.72 850.939 539.667 852.539 539.56V525.72H867.739V551.8C864.059 554.413 858.085 555.72 849.819 555.72C840.112 555.72 832.352 552.973 826.539 547.48C820.725 541.987 817.819 535.16 817.819 527C817.819 519.107 820.699 512.333 826.459 506.68ZM901.338 499H931.498V513.4H916.538V517.4H927.498V531.8H916.538V540.6H933.898V555H901.338V499Z" fill="url(#paint2_linear_2_2359)"/>
<g filter="url(#filter1_df_2_2359)">
<path d="M360 360C360.868 365.867 362.837 368.477 371 371C363.588 372.288 361.01 375.095 360 382C358.224 375.168 356.625 371.953 349 371C356.117 368.331 358.481 365.904 360 360Z" fill="#FFFFA1"/>
</g>
<g filter="url(#filter2_df_2_2359)">
<path d="M605 426C605.868 431.867 607.837 434.477 616 437C608.588 438.288 606.01 441.095 605 448C603.224 441.168 601.625 437.953 594 437C601.117 434.331 603.481 431.904 605 426Z" fill="white"/>
</g>
<g filter="url(#filter3_df_2_2359)">
<path d="M823 332C823.868 337.867 825.837 340.477 834 343C826.588 344.288 824.01 347.095 823 354C821.224 347.168 819.625 343.953 812 343C819.117 340.331 821.481 337.904 823 332Z" fill="white"/>
</g>
<g filter="url(#filter4_df_2_2359)">
<path d="M257 459C257.71 463.8 259.321 465.935 266 468C259.935 469.054 257.826 471.35 257 477C255.547 471.41 254.238 468.78 248 468C253.823 465.816 255.757 463.83 257 459Z" fill="white"/>
</g>
<g filter="url(#filter5_df_2_2359)">
<path d="M1025 402C1025.87 407.867 1027.84 410.477 1036 413C1028.59 414.288 1026.01 417.095 1025 424C1023.22 417.168 1021.62 413.953 1014 413C1021.12 410.331 1023.48 407.904 1025 402Z" fill="#FFFFA1"/>
</g>
<defs>
<filter id="filter0_d_2_2359" x="218.4" y="263.32" width="818.338" height="229.24" filterUnits="userSpaceOnUse" color-interpolation-filters="sRGB">
<feFlood flood-opacity="0" result="BackgroundImageFix"/>
<feColorMatrix in="SourceAlpha" type="matrix" values="0 0 0 0 0 0 0 0 0 0 0 0 0 0 0 0 0 0 127 0" result="hardAlpha"/>
<feOffset/>
<feGaussianBlur stdDeviation="10"/>
<feComposite in2="hardAlpha" operator="out"/>
<feColorMatrix type="matrix" values="0 0 0 0 1 0 0 0 0 1 0 0 0 0 0 0 0 0 0.8 0"/>
<feBlend mode="normal" in2="BackgroundImageFix" result="effect1_dropShadow_2_2359"/>
<feBlend mode="normal" in="SourceGraphic" in2="effect1_dropShadow_2_2359" result="shape"/>
</filter>
<filter id="filter1_df_2_2359" x="334" y="345" width="52" height="52" filterUnits="userSpaceOnUse" color-interpolation-filters="sRGB">
<feFlood flood-opacity="0" result="BackgroundImageFix"/>
<feColorMatrix in="SourceAlpha" type="matrix" values="0 0 0 0 0 0 0 0 0 0 0 0 0 0 0 0 0 0 127 0" result="hardAlpha"/>
<feOffset/>
<feGaussianBlur stdDeviation="7.5"/>
<feComposite in2="hardAlpha" operator="out"/>
<feColorMatrix type="matrix" values="0 0 0 0 0.952941 0 0 0 0 0.0980392 0 0 0 0 0.262745 0 0 0 1 0"/>
<feBlend mode="normal" in2="BackgroundImageFix" result="effect1_dropShadow_2_2359"/>
<feBlend mode="normal" in="SourceGraphic" in2="effect1_dropShadow_2_2359" result="shape"/>
<feGaussianBlur stdDeviation="0.9" result="effect2_foregroundBlur_2_2359"/>
</filter>
<filter id="filter2_df_2_2359" x="579" y="411" width="52" height="52" filterUnits="userSpaceOnUse" color-interpolation-filters="sRGB">
<feFlood flood-opacity="0" result="BackgroundImageFix"/>
<feColorMatrix in="SourceAlpha" type="matrix" values="0 0 0 0 0 0 0 0 0 0 0 0 0 0 0 0 0 0 127 0" result="hardAlpha"/>
<feOffset/>
<feGaussianBlur stdDeviation="7.5"/>
<feComposite in2="hardAlpha" operator="out"/>
<feColorMatrix type="matrix" values="0 0 0 0 1 0 0 0 0 1 0 0 0 0 0.498039 0 0 0 1 0"/>
<feBlend mode="normal" in2="BackgroundImageFix" result="effect1_dropShadow_2_2359"/>
<feBlend mode="normal" in="SourceGraphic" in2="effect1_dropShadow_2_2359" result="shape"/>
<feGaussianBlur stdDeviation="0.9" result="effect2_foregroundBlur_2_2359"/>
</filter>
<filter id="filter3_df_2_2359" x="797" y="317" width="52" height="52" filterUnits="userSpaceOnUse" color-interpolation-filters="sRGB">
<feFlood flood-opacity="0" result="BackgroundImageFix"/>
<feColorMatrix in="SourceAlpha" type="matrix" values="0 0 0 0 0 0 0 0 0 0 0 0 0 0 0 0 0 0 127 0" result="hardAlpha"/>
<feOffset/>
<feGaussianBlur stdDeviation="7.5"/>
<feComposite in2="hardAlpha" operator="out"/>
<feColorMatrix type="matrix" values="0 0 0 0 1 0 0 0 0 1 0 0 0 0 0.498039 0 0 0 1 0"/>
<feBlend mode="normal" in2="BackgroundImageFix" result="effect1_dropShadow_2_2359"/>
<feBlend mode="normal" in="SourceGraphic" in2="effect1_dropShadow_2_2359" result="shape"/>
<feGaussianBlur stdDeviation="0.9" result="effect2_foregroundBlur_2_2359"/>
</filter>
<filter id="filter4_df_2_2359" x="233" y="444" width="48" height="48" filterUnits="userSpaceOnUse" color-interpolation-filters="sRGB">
<feFlood flood-opacity="0" result="BackgroundImageFix"/>
<feColorMatrix in="SourceAlpha" type="matrix" values="0 0 0 0 0 0 0 0 0 0 0 0 0 0 0 0 0 0 127 0" result="hardAlpha"/>
<feOffset/>
<feGaussianBlur stdDeviation="7.5"/>
<feComposite in2="hardAlpha" operator="out"/>
<feColorMatrix type="matrix" values="0 0 0 0 1 0 0 0 0 1 0 0 0 0 0.498039 0 0 0 1 0"/>
<feBlend mode="normal" in2="BackgroundImageFix" result="effect1_dropShadow_2_2359"/>
<feBlend mode="normal" in="SourceGraphic" in2="effect1_dropShadow_2_2359" result="shape"/>
<feGaussianBlur stdDeviation="0.9" result="effect2_foregroundBlur_2_2359"/>
</filter>
<filter id="filter5_df_2_2359" x="999" y="387" width="52" height="52" filterUnits="userSpaceOnUse" color-interpolation-filters="sRGB">
<feFlood flood-opacity="0" result="BackgroundImageFix"/>
<feColorMatrix in="SourceAlpha" type="matrix" values="0 0 0 0 0 0 0 0 0 0 0 0 0 0 0 0 0 0 127 0" result="hardAlpha"/>
<feOffset/>
<feGaussianBlur stdDeviation="7.5"/>
<feComposite in2="hardAlpha" operator="out"/>
<feColorMatrix type="matrix" values="0 0 0 0 0.952941 0 0 0 0 0.0980392 0 0 0 0 0.262745 0 0 0 1 0"/>
<feBlend mode="normal" in2="BackgroundImageFix" result="effect1_dropShadow_2_2359"/>
<feBlend mode="normal" in="SourceGraphic" in2="effect1_dropShadow_2_2359" result="shape"/>
<feGaussianBlur stdDeviation="0.9" result="effect2_foregroundBlur_2_2359"/>
</filter>
<radialGradient id="paint0_radial_2_2359" cx="0" cy="0" r="1" gradientUnits="userSpaceOnUse" gradientTransform="translate(636 369.5) rotate(90) scale(555.5 956.152)">
<stop offset="0.135" stop-color="#F073FE"/>
<stop offset="0.325" stop-color="#B677E6"/>
<stop offset="0.88" stop-color="#2F0066"/>
</radialGradient>
<linearGradient id="paint1_linear_2_2359" x1="621" y1="261" x2="621" y2="453" gradientUnits="userSpaceOnUse">
<stop stop-color="#FFF7DD"/>
<stop offset="0.155" stop-color="#FFFF9E"/>
<stop offset="0.48" stop-color="#FFD41E"/>
<stop offset="0.84" stop-color="#FF9B10"/>
<stop offset="0.98" stop-color="#FF5601"/>
</linearGradient>
<linearGradient id="paint2_linear_2_2359" x1="649.392" y1="508.567" x2="648.618" y2="585.998" gradientUnits="userSpaceOnUse">
<stop stop-color="white"/>
<stop offset="0.345" stop-color="#DEDEDE"/>
<stop offset="0.46" stop-color="#FDFDFD"/>
<stop offset="0.565" stop-color="#C3C3C3"/>
<stop offset="0.675" stop-color="#E7E7E7"/>
<stop offset="0.79" stop-color="#C8C8C8"/>
<stop offset="0.9" stop-color="#D9D9D9"/>
<stop offset="1" stop-color="#999999"/>
</linearGradient>
</defs>
</svg>
