<svg width="500" height="110" viewBox="0 0 500 110" fill="none" xmlns="http://www.w3.org/2000/svg">
<rect x="3.75472" y="3.07308" width="492.49" height="103.162" rx="19.0702" fill="url(#paint0_linear_2_3817)" stroke="#FAE18C" stroke-width="6.15169"/>
<path d="M11.5265 25.8545C12.6107 25.975 13.6122 25.3704 13.7635 24.504C13.9148 23.6376 13.1586 22.8376 12.0744 22.717C10.9902 22.5965 9.98867 23.2011 9.83736 24.0675C9.68604 24.9339 10.4423 25.7339 11.5265 25.8545Z" fill="white"/>
<path d="M47.8145 12.6891C51.5869 12.6891 54.6451 11.7131 54.6451 10.5091C54.6451 9.30512 51.5869 8.3291 47.8145 8.3291C44.0421 8.3291 40.9839 9.30512 40.9839 10.5091C40.9839 11.7131 44.0421 12.6891 47.8145 12.6891Z" fill="white"/>
<path d="M18.1872 13.9107C23.2049 10.9458 30.5936 9.14075 34.6932 9.87798C38.7928 10.6152 38.0544 13.6106 33.0498 16.5738C28.0452 19.5371 20.6434 21.3438 16.5438 20.6066C12.4442 19.8694 13.1826 16.874 18.1872 13.9107Z" fill="white"/>
<path d="M240.87 37.21L231.446 55.488V64H223.96V55.488L214.536 37.21H223.048L227.76 47.546L232.472 37.21H240.87ZM263.525 53.094C263.525 53.6767 263.487 54.2593 263.411 54.842H249.313C249.389 56.0073 249.706 56.8813 250.263 57.464C250.846 58.0213 251.58 58.3 252.467 58.3C253.708 58.3 254.595 57.7427 255.127 56.628H263.069C262.74 58.0973 262.094 59.4147 261.131 60.58C260.194 61.72 259.003 62.6193 257.559 63.278C256.115 63.9367 254.519 64.266 252.771 64.266C250.668 64.266 248.794 63.8227 247.147 62.936C245.526 62.0493 244.246 60.7827 243.309 59.136C242.397 57.4893 241.941 55.5513 241.941 53.322C241.941 51.0927 242.397 49.1673 243.309 47.546C244.221 45.8993 245.488 44.6327 247.109 43.746C248.756 42.8593 250.643 42.416 252.771 42.416C254.874 42.416 256.736 42.8467 258.357 43.708C259.978 44.5693 261.245 45.8107 262.157 47.432C263.069 49.028 263.525 50.9153 263.525 53.094ZM255.925 51.232C255.925 50.32 255.621 49.6107 255.013 49.104C254.405 48.572 253.645 48.306 252.733 48.306C251.821 48.306 251.074 48.5593 250.491 49.066C249.908 49.5473 249.528 50.2693 249.351 51.232H255.925ZM275.655 64.266C273.73 64.266 272.007 63.9493 270.487 63.316C268.992 62.6573 267.802 61.7707 266.915 60.656C266.054 59.516 265.572 58.2367 265.471 56.818H272.691C272.792 57.502 273.109 58.034 273.641 58.414C274.173 58.794 274.832 58.984 275.617 58.984C276.225 58.984 276.706 58.8573 277.061 58.604C277.416 58.3507 277.593 58.0213 277.593 57.616C277.593 57.084 277.302 56.6913 276.719 56.438C276.136 56.1847 275.174 55.906 273.831 55.602C272.311 55.298 271.044 54.956 270.031 54.576C269.018 54.196 268.131 53.5753 267.371 52.714C266.636 51.8527 266.269 50.6873 266.269 49.218C266.269 47.9513 266.611 46.8113 267.295 45.798C267.979 44.7593 268.98 43.936 270.297 43.328C271.64 42.72 273.248 42.416 275.123 42.416C277.91 42.416 280.101 43.1 281.697 44.468C283.293 45.836 284.218 47.6347 284.471 49.864H277.745C277.618 49.18 277.314 48.6607 276.833 48.306C276.377 47.926 275.756 47.736 274.971 47.736C274.363 47.736 273.894 47.85 273.565 48.078C273.261 48.306 273.109 48.6227 273.109 49.028C273.109 49.5347 273.4 49.9273 273.983 50.206C274.566 50.4593 275.503 50.7253 276.795 51.004C278.34 51.3333 279.62 51.7007 280.633 52.106C281.672 52.5113 282.571 53.17 283.331 54.082C284.116 54.9687 284.509 56.1847 284.509 57.73C284.509 58.9713 284.142 60.086 283.407 61.074C282.698 62.062 281.672 62.8473 280.329 63.43C279.012 63.9873 277.454 64.266 275.655 64.266Z" fill="#622C34"/>
<path d="M450.651 99.0529C454.423 99.0529 457.482 98.0769 457.482 96.8729C457.482 95.6689 454.423 94.6929 450.651 94.6929C446.878 94.6929 443.82 95.6689 443.82 96.8729C443.82 98.0769 446.878 99.0529 450.651 99.0529Z" fill="#F9E2A6"/>
<path d="M467.701 89.7418C472.719 86.7769 480.107 84.9718 484.207 85.709C488.306 86.4463 487.568 89.4417 482.563 92.4049C477.559 95.3681 470.157 97.1749 466.057 96.4377C461.958 95.7004 462.696 92.705 467.701 89.7418Z" fill="#F9E2A6"/>
<defs>
<linearGradient id="paint0_linear_2_3817" x1="250" y1="6.14893" x2="250" y2="103.159" gradientUnits="userSpaceOnUse">
<stop stop-color="#FFD046"/>
<stop offset="0.445" stop-color="#E8AD00"/>
</linearGradient>
</defs>
</svg>
